<?xml version="1.0" encoding="UTF-8" standalone="no"?>
<!-- Created with Inkscape (http://www.inkscape.org/) -->

<svg
   version="1.1"
   id="svg2"
   width="2169.7332"
   height="1542.3232"
   viewBox="0 0 2169.7332 1542.3232"
   xmlns="http://www.w3.org/2000/svg"
   xmlns:svg="http://www.w3.org/2000/svg">
  <defs
     id="defs6">
    <clipPath
       clipPathUnits="userSpaceOnUse"
       id="clipPath568">
      <path
         d="m 20740.3,7425.4 c -359.2,0 -719.2,131.5 -1001.4,397.1 -270.8,254.7 -422.9,588.4 -454,931.7 -36.6,402.1 92.6,817.3 391.1,1134.6 62.9,66.9 130.6,126.6 202.2,179 232.3,170.1 504.4,263.4 780.5,278.9 16.5,0.9 33,1.5 49.5,1.9 -86.3,-223.9 -131.4,-464.2 -131.4,-711.4 0,-417.8 152.9,-862.8 419.6,-1220.9 205.5,-275.9 464,-478.7 746.9,-592.8 -139.6,-131.9 -299.4,-231.2 -469.4,-297.7 -63.8,-25 -129.1,-45.3 -195.3,-61 -111.1,-26.3 -224.7,-39.4 -338.3,-39.4"
         id="path566" />
    </clipPath>
  </defs>
  <g
     id="g10"
     transform="matrix(1.3333333,0,0,-1.3333333,-2090.4133,1891.7364)">
    <path
       d="m 2751.84,746.2 c 0,-61.69 -24.03,-119.68 -67.65,-163.31 -43.62,-43.63 -101.62,-67.64 -163.31,-67.64 h -355.63 c -22.54,0 -41.54,-18.44 -41.35,-40.98 0.2,-21.92 18.09,-39.69 40.06,-39.69 h 174.85 c 93.05,0 168.94,-74.87 170.58,-167.54 -120.61,0.03 -245.87,0.08 -368.36,0.16 -47.07,5.11 -90.66,25.92 -124.62,59.88 -39.42,39.41 -61.12,91.81 -61.12,147.55 0,55.89 21.77,108.43 61.28,147.95 39.52,39.51 92.06,61.28 147.95,61.28 h 356.36 c 30.2,-0.42 46.25,21.82 47.2,44.07 1,23.5 -14.86,46.99 -48.72,43.77 h -291.07 c -48.66,0 -95.54,25.49 -128.65,69.93 -26.67,35.81 -41.96,80.31 -41.96,122.09 0,52.74 20.53,102.31 57.82,139.6 37.28,37.29 86.86,57.83 139.6,57.83 22.37,0 42.62,9.06 57.28,23.72 14.65,14.66 23.72,34.92 23.72,57.28 v 91.28 c 0,46.49 37.19,85.02 83.67,85.37 46.86,0.35 84.95,-37.54 84.95,-84.31 v -171.34 c 0,-94.23 -76.38,-170.62 -170.61,-170.62 h -79.01 c -15.88,0 -28.81,-12.93 -28.81,-28.81 0,-0.85 0.09,-1.77 0.24,-2.73 1.93,-12.01 12.63,-20.67 24.8,-20.67 h 284.98 c 56.14,0 106.08,-15.7 144.41,-45.39 45.86,-35.52 71.12,-88.34 71.12,-148.73"
       style="fill:#95bec9;fill-opacity:1;fill-rule:nonzero;stroke:none;stroke-width:0.1"
       id="path294" />
    <path
       d="m 2972.48,290.74 12.89,-4.8 c 0,0 55.95,77.61 62.84,145.89 1.23,12.19 0.82,24 -1.84,34.9 0,0 0.55,3.13 1.5,8.65 0.44,2.58 0.99,5.68 1.61,9.23 1.82,10.43 4.32,24.69 7.18,40.93 6.59,37.36 15.12,85.13 21.74,120.25 l -3.47,1.12 -37.55,12.11 -7.77,24.65 -27.96,7.37 c 0,0 -6.25,-12.22 -11.83,-69.95 -1.03,-7.58 -1.97,-15.93 -2.68,-24.98 -2.17,-27.64 -2.33,-61.93 2.67,-101.13 1.28,-10.03 2.9,-20.39 4.91,-31.03 1.47,-7.81 1.69,-18.44 1.07,-30.65 -2.82,-55.82 -23.31,-142.56 -23.31,-142.56"
       style="fill:#ee816f;fill-opacity:1;fill-rule:nonzero;stroke:none;stroke-width:0.1"
       id="path296" />
    <path
       d="m 2987.14,596.11 60.73,-120.73 c 0.44,2.58 0.99,5.68 1.61,9.23 1.82,10.43 4.32,24.69 7.18,40.93 6.59,37.36 15.12,85.13 21.74,120.25 l -3.47,1.12 -37.55,12.11 -7.77,24.65 -27.96,7.37 c 0,0 -6.25,-12.22 -11.83,-69.95 -1.03,-7.58 -1.97,-15.93 -2.68,-24.98"
       style="fill:#eb594c;fill-opacity:1;fill-rule:nonzero;stroke:none;stroke-width:0.1"
       id="path298" />
    <path
       d="m 3013.86,675.54 1.41,12.06 c 23.55,-6.26 86.48,17.48 86.48,17.48 0,0 22.81,-20.06 19.82,-68.13 -1.47,-23.47 -4.14,-123.18 -6.93,-152.69 -1,-10.69 -1.89,-18.3 -2.25,-21.34 v -0.03 c -0.12,-0.93 0.21,-1.8 0.68,-2.61 4.11,-6.97 7.51,-14.23 10.3,-21.66 27.38,-72.96 -4.22,-162.81 -4.22,-162.81 l -8.2,3.31 c 0,0 -17.98,99.99 -32.59,144.17 -2.48,7.49 -4.86,13.38 -7.04,16.89 -6.35,10.26 -12.24,27.01 -17.59,46.93 -10.12,37.67 -18.26,86.67 -23.67,124.5 -0.75,-0.04 -16.2,63.93 -16.2,63.93"
       style="fill:#ee816f;fill-opacity:1;fill-rule:nonzero;stroke:none;stroke-width:0.1"
       id="path300" />
    <path
       d="m 3071.48,269.11 h 64.88 c 0,0 1.56,9.89 -1.83,17.39 -3.25,7.2 -8.33,10.48 -7.12,19.18 -4.12,-4.24 -10.84,-8.99 -20.22,-7.73 -1.15,-1.87 -7.42,-11.84 -11.26,-14.6 -4.24,-3.04 -23.14,-1.96 -24.45,-14.24"
       style="fill:#333333;fill-opacity:1;fill-rule:nonzero;stroke:none;stroke-width:0.1"
       id="path302" />
    <path
       d="m 2932.17,269.11 h 64.88 c 0,0 2.43,10.35 -1.83,17.39 -3.77,6.23 -2.33,9.79 0.46,14.94 -2.93,-1.2 -6.74,-2.3 -10.92,-2.06 -3.24,0.19 -6.65,1.65 -9.65,3.39 -2.8,-3.18 -14.75,-16.73 -18.49,-19.42 -4.24,-3.04 -23.15,-1.96 -24.45,-14.24"
       style="fill:#333333;fill-opacity:1;fill-rule:nonzero;stroke:none;stroke-width:0.1"
       id="path304" />
    <path
       d="m 2993.6,986.04 c 0.06,1.76 1.42,20.68 30.24,21.66 0,0 -14.17,-1.68 -16.62,-7.91 0,0 9.65,7.69 17.5,5.22 7.86,-2.48 12.47,-16.24 12.52,-20.77 0.05,-4.53 -4.32,-19.12 -9.3,-20.37 -1.89,-0.46 -4.07,-0.34 -6.04,0 1.32,-2.07 2.62,-4.36 3.87,-6.91 11.49,-23.6 -0.36,-46.67 -10.1,-44.12 -6.24,1.64 -8,-9.02 -8,-9.02 l -60.65,49.1 c 0,0 22.27,46.1 46.58,33.12"
       style="fill:#4a190c;fill-opacity:1;fill-rule:nonzero;stroke:none;stroke-width:0.1"
       id="path306" />
    <path
       d="m 2995.99,815.41 c 40.49,-2.21 31.59,58.14 29.12,57.84 -4.95,2.59 -13.85,15.15 -18.99,36.18 l -1.75,-0.81 -29.21,-13.74 c 0,0 3.1,-9.5 5.39,-18.6 1.79,-7.12 3.07,-14 2,-15.93 -2.3,-0.93 -3.68,-1.52 -3.68,-1.52 l -0.01,-0.03 c -0.3,-0.75 6.33,-42.8 17.13,-43.39"
       style="fill:#f2beb7;fill-opacity:1;fill-rule:nonzero;stroke:none;stroke-width:0.1"
       id="path308" />
    <path
       d="m 3102.95,781.73 c -3.49,11.31 -7.09,22.17 -10.75,32.19 -8.3,22.78 -13.58,34.67 -18.06,43.89 -8.52,17.52 -46.61,16.42 -46.61,16.42 -7.34,-26.44 -27.5,-42.92 -27.5,-42.92 -10.75,6.31 -18.75,28.5 -18.75,28.5 0,0 -26.4,-10.58 -37.16,-35.11 -11.54,-26.33 -24.75,-65.71 -35.38,-77.5 -2.47,-2.74 -9.74,-6.91 -18.53,-11.33 v 0 c -0.19,-0.29 -0.33,-0.44 -0.43,-0.44 0.57,-1.29 3.13,-7.41 7.27,-13.62 3.35,-5.05 7.76,-10.16 12.98,-12.79 4.01,1.94 11.23,4.78 14.29,6.66 11.08,6.77 26.87,25.95 39.77,46.52 l 4.3,-57.79 6.51,-87.49 c 10.01,-3.11 19.53,-5.54 28.57,-7.41 0.59,7.34 2.97,16.11 2.97,16.11 -0.11,-4.6 5.27,-13.41 8.46,-18.2 83.09,-13.31 122.04,22.94 122.04,22.94 -3.23,32.08 -17.23,96.97 -33.99,151.37"
       style="fill:#30545d;fill-opacity:1;fill-rule:nonzero;stroke:none;stroke-width:0.1"
       id="path310" />
    <path
       d="m 2897.05,721.81 c 3.35,-5.05 7.76,-10.16 12.98,-12.79 4.01,1.94 11.23,4.78 14.29,6.66 11.08,6.77 26.87,25.95 39.77,46.52 -0.48,6.47 -34.33,-26.74 -38.62,-32.76 -3.25,-4.54 -20,-6.79 -28.42,-7.63"
       style="fill:#23393d;fill-opacity:1;fill-rule:nonzero;stroke:none;stroke-width:0.1"
       id="path312" />
    <path
       d="m 2975.15,894.88 c 0,0 3.11,-9.5 5.4,-18.61 17.08,4.77 22.26,22.72 23.82,32.34 l -29.22,-13.73"
       style="fill:#eda8a2;fill-opacity:1;fill-rule:nonzero;stroke:none;stroke-width:0.1"
       id="path314" />
    <path
       d="m 2971.56,884.82 c 0,0 40.86,9.46 34.58,34.81 -6.28,25.35 -5.24,43.65 -31.59,38.68 -26.36,-4.96 -29.01,-15.89 -28.97,-24.86 0.04,-8.97 15.19,-50.44 25.98,-48.63"
       style="fill:#f2beb7;fill-opacity:1;fill-rule:nonzero;stroke:none;stroke-width:0.1"
       id="path316" />
    <path
       d="m 2943.28,947.84 c 4.39,9.2 9.56,8.7 12.8,7.08 19.2,17.76 38.03,3.25 38.03,3.25 7.25,-17.51 22.95,-24.67 22.95,-24.67 0,0 -6.27,-6.42 -24.47,-6.28 -5.55,0.04 -11.14,2.59 -16.22,6.11 9.8,-9.88 21.3,-15.89 21.3,-15.89 -22.77,4.36 -38.04,30.72 -39.61,33.52 -1.93,-2.85 -5.62,-8.91 -5.93,-14.03 -0.42,-6.96 1.97,-20.48 -2.01,-20.99 0,0 -13.43,18.12 -6.84,31.9"
       style="fill:#4a190c;fill-opacity:1;fill-rule:nonzero;stroke:none;stroke-width:0.1"
       id="path318" />
    <path
       d="m 3019.13,879.11 c 0,0 6.91,-0.46 8.39,-4.88 0,0 -9.02,-36.31 -27.49,-42.92 l 19.1,47.8"
       style="fill:#23393d;fill-opacity:1;fill-rule:nonzero;stroke:none;stroke-width:0.1"
       id="path320" />
    <path
       d="m 3000.03,831.31 c 0,0 -15.21,27.48 -17.16,32.98 0,0 -7.13,-2.77 -6.68,-7.19 0,0 14.86,-23.81 23.84,-25.79"
       style="fill:#23393d;fill-opacity:1;fill-rule:nonzero;stroke:none;stroke-width:0.1"
       id="path322" />
    <path
       d="m 3047.35,844.23 c -0.5,-1.72 -62.71,-101.03 -64.06,-120.81 -1.36,-19.77 26.15,-8.59 26.59,-6.02 0.42,2.58 37.47,126.83 37.47,126.83"
       style="fill:#23393d;fill-opacity:1;fill-rule:nonzero;stroke:none;stroke-width:0.1"
       id="path324" />
    <path
       d="m 2968.39,704.41 6.51,-87.49 c 88.98,25.64 93.87,213.41 93.87,213.41 l -54.99,-99.29 -44.91,-25.96 c 0,0 -0.17,-0.23 -0.48,-0.67"
       style="fill:#23393d;fill-opacity:1;fill-rule:nonzero;stroke:none;stroke-width:0.1"
       id="path326" />
    <path
       d="m 2928.82,696.4 3.41,-12.48 c 0,0 4.29,0.79 11.12,2.05 2.05,0.39 3.22,0.69 3.22,0.69 5.46,1.06 11.98,2.52 19.1,4.09 h 0.1 c 12.19,2.92 25.83,6.43 37.34,10.33 1.03,0.37 2.04,0.73 3.03,1.09 6.8,2.51 12.69,5.15 16.86,7.79 0.49,0.29 0.87,0.58 1.36,0.97 11.4,8.29 -24.56,28.27 -30.51,23.98 -1.58,-1.14 -3.27,-2.32 -5.04,-3.53 -9.86,-6.7 -22.42,-14.16 -33.57,-20.45 -5.46,-3.12 -10.63,-5.95 -14.92,-8.29 -6.92,-3.8 -11.5,-6.24 -11.5,-6.24"
       style="fill:#f2beb7;fill-opacity:1;fill-rule:nonzero;stroke:none;stroke-width:0.1"
       id="path328" />
    <path
       d="m 2988.81,731.38 c 0,0 -0.72,-23.58 21.35,-35.04 25.51,9.2 39.16,47.25 49.69,73.38 1.46,3.6 2.83,7.21 4.19,10.72 4.87,13.06 8.77,25.93 11.11,37.05 1.46,6.63 2.44,12.67 2.63,17.64 0.1,1.76 -29.53,22.43 -33.14,14.52 -5.56,-12.57 -11.4,-28.85 -16.86,-45.03 -3.03,-8.88 -5.95,-17.75 -8.88,-25.94 -1.66,-4.97 -3.32,-9.64 -4.87,-13.93 -3.03,-8.2 -5.75,-14.83 -8.19,-19.01 -1.56,-2.74 -6.04,-6.54 -11.99,-10.83 -1.58,-1.14 -3.27,-2.32 -5.04,-3.53"
       style="fill:#30545d;fill-opacity:1;fill-rule:nonzero;stroke:none;stroke-width:0.1"
       id="path330" />
    <path
       d="m 2889.65,735.59 c 0.03,-0.1 0.07,-0.16 0.13,-0.16 l -0.07,0.19 c -0.08,0.15 -0.1,0.15 -0.06,-0.03"
       style="fill:#30545d;fill-opacity:1;fill-rule:nonzero;stroke:none;stroke-width:0.1"
       id="path332" />
    <path
       d="m 2554.96,268.91 h 355.76 v 477.96 h -355.76 z"
       style="fill:#eb594c;fill-opacity:1;fill-rule:nonzero;stroke:none;stroke-width:0.1"
       id="path334" />
    <path
       d="m 2568.33,280.31 h 329.02 v 455.16 h -329.02 z"
       style="fill:#ffffff;fill-opacity:1;fill-rule:nonzero;stroke:none;stroke-width:0.1"
       id="path336" />
    <path
       d="m 2670.26,747.47 v -16.19 c 0,-8.95 7.24,-16.19 16.17,-16.19 h 86.89 c 8.93,0 16.17,7.24 16.17,16.19 v 16.19 h -119.23"
       style="fill:#30545d;fill-opacity:1;fill-rule:nonzero;stroke:none;stroke-width:0.1"
       id="path338" />
    <path
       d="m 2616.82,551.99 h 52.08 v 52.08 h -52.08 z m 54.79,-2.71 h -57.5 v 57.5 h 57.5 v -57.5"
       style="fill:#30545d;fill-opacity:1;fill-rule:nonzero;stroke:none;stroke-width:0.1"
       id="path340" />
    <path
       d="m 2644.29,560.84 c -1.21,0 -2.36,0.53 -3.13,1.47 l -17.74,21.47 c -1.43,1.73 -1.19,4.29 0.54,5.72 1.73,1.43 4.29,1.18 5.72,-0.55 l 14.07,-17.02 25.46,42.73 c 1.15,1.93 3.64,2.56 5.57,1.41 1.93,-1.15 2.56,-3.64 1.41,-5.57 l -28.41,-47.68 c -0.68,-1.13 -1.86,-1.87 -3.18,-1.97 -0.1,-0.01 -0.21,-0.01 -0.31,-0.01"
       style="fill:#ee816f;fill-opacity:1;fill-rule:nonzero;stroke:none;stroke-width:0.1"
       id="path342" />
    <path
       d="m 2616.82,462.08 h 52.08 v 52.09 h -52.08 z m 54.79,-2.71 h -57.5 v 57.5 h 57.5 v -57.5"
       style="fill:#30545d;fill-opacity:1;fill-rule:nonzero;stroke:none;stroke-width:0.1"
       id="path344" />
    <path
       d="m 2644.29,471.42 c -1.21,0 -2.36,0.54 -3.13,1.48 l -17.74,21.46 c -1.43,1.73 -1.19,4.29 0.54,5.72 1.73,1.43 4.29,1.19 5.72,-0.54 l 14.07,-17.02 25.46,42.72 c 1.15,1.93 3.64,2.56 5.57,1.42 1.93,-1.15 2.56,-3.65 1.41,-5.58 l -28.41,-47.67 c -0.68,-1.14 -1.86,-1.87 -3.18,-1.97 -0.1,-0.01 -0.21,-0.02 -0.31,-0.02"
       style="fill:#ee816f;fill-opacity:1;fill-rule:nonzero;stroke:none;stroke-width:0.1"
       id="path346" />
    <path
       d="m 2616.82,374.03 h 52.08 v 52.09 h -52.08 z m 54.79,-2.71 h -57.5 v 57.51 h 57.5 v -57.51"
       style="fill:#30545d;fill-opacity:1;fill-rule:nonzero;stroke:none;stroke-width:0.1"
       id="path348" />
    <path
       d="m 2644.29,384.22 c -1.21,0 -2.36,0.54 -3.13,1.48 l -17.74,21.46 c -1.43,1.73 -1.19,4.29 0.54,5.72 1.73,1.43 4.29,1.19 5.72,-0.54 l 14.07,-17.02 25.46,42.72 c 1.15,1.93 3.64,2.56 5.57,1.41 1.93,-1.14 2.56,-3.64 1.41,-5.57 l -28.41,-47.67 c -0.68,-1.14 -1.86,-1.87 -3.18,-1.98 -0.1,0 -0.21,-0.01 -0.31,-0.01"
       style="fill:#ee816f;fill-opacity:1;fill-rule:nonzero;stroke:none;stroke-width:0.1"
       id="path350" />
    <path
       d="m 2710.37,587.76 h 74.9797 v 5.6 H 2710.37 Z"
       style="fill:#97a9ae;fill-opacity:1;fill-rule:nonzero;stroke:none;stroke-width:0.1"
       id="path352" />
    <path
       d="m 2832.02,587.76 h 17.0402 v 5.6 H 2832.02 Z"
       style="fill:#97a9ae;fill-opacity:1;fill-rule:nonzero;stroke:none;stroke-width:0.1"
       id="path354" />
    <path
       d="m 2710.37,562.7 h 74.9797 v 5.61016 H 2710.37 Z"
       style="fill:#97a9ae;fill-opacity:1;fill-rule:nonzero;stroke:none;stroke-width:0.1"
       id="path356" />
    <path
       d="m 2823.65,562.7 h 25.4102 v 5.61016 H 2823.65 Z"
       style="fill:#97a9ae;fill-opacity:1;fill-rule:nonzero;stroke:none;stroke-width:0.1"
       id="path358" />
    <path
       d="m 2828.17,575.23 h 20.8902 v 5.60977 H 2828.17 Z"
       style="fill:#97a9ae;fill-opacity:1;fill-rule:nonzero;stroke:none;stroke-width:0.1"
       id="path360" />
    <path
       d="m 2765.76,575.23 h 20.8797 v 5.60977 H 2765.76 Z"
       style="fill:#97a9ae;fill-opacity:1;fill-rule:nonzero;stroke:none;stroke-width:0.1"
       id="path362" />
    <path
       d="m 2710.37,575.23 h 46.3996 v 5.60977 H 2710.37 Z"
       style="fill:#97a9ae;fill-opacity:1;fill-rule:nonzero;stroke:none;stroke-width:0.1"
       id="path364" />
    <path
       d="m 2710.37,503.88 h 74.9797 v 5.61016 H 2710.37 Z"
       style="fill:#97a9ae;fill-opacity:1;fill-rule:nonzero;stroke:none;stroke-width:0.1"
       id="path366" />
    <path
       d="m 2832.02,503.88 h 17.0402 v 5.61016 H 2832.02 Z"
       style="fill:#97a9ae;fill-opacity:1;fill-rule:nonzero;stroke:none;stroke-width:0.1"
       id="path368" />
    <path
       d="m 2710.37,478.83 h 74.9797 v 5.60977 H 2710.37 Z"
       style="fill:#97a9ae;fill-opacity:1;fill-rule:nonzero;stroke:none;stroke-width:0.1"
       id="path370" />
    <path
       d="m 2823.65,478.83 h 25.4102 v 5.60977 H 2823.65 Z"
       style="fill:#97a9ae;fill-opacity:1;fill-rule:nonzero;stroke:none;stroke-width:0.1"
       id="path372" />
    <path
       d="m 2828.17,491.35 h 20.8902 v 5.61016 H 2828.17 Z"
       style="fill:#97a9ae;fill-opacity:1;fill-rule:nonzero;stroke:none;stroke-width:0.1"
       id="path374" />
    <path
       d="m 2765.76,491.35 h 20.8797 v 5.61016 H 2765.76 Z"
       style="fill:#97a9ae;fill-opacity:1;fill-rule:nonzero;stroke:none;stroke-width:0.1"
       id="path376" />
    <path
       d="m 2710.37,491.35 h 46.3996 v 5.61016 H 2710.37 Z"
       style="fill:#97a9ae;fill-opacity:1;fill-rule:nonzero;stroke:none;stroke-width:0.1"
       id="path378" />
    <path
       d="m 2710.37,415.93 h 74.9797 v 5.61016 H 2710.37 Z"
       style="fill:#97a9ae;fill-opacity:1;fill-rule:nonzero;stroke:none;stroke-width:0.1"
       id="path380" />
    <path
       d="m 2832.02,415.93 h 17.0402 v 5.61016 H 2832.02 Z"
       style="fill:#97a9ae;fill-opacity:1;fill-rule:nonzero;stroke:none;stroke-width:0.1"
       id="path382" />
    <path
       d="m 2710.37,390.87 h 74.9797 v 5.61016 H 2710.37 Z"
       style="fill:#97a9ae;fill-opacity:1;fill-rule:nonzero;stroke:none;stroke-width:0.1"
       id="path384" />
    <path
       d="m 2823.65,390.87 h 25.4102 v 5.61016 H 2823.65 Z"
       style="fill:#97a9ae;fill-opacity:1;fill-rule:nonzero;stroke:none;stroke-width:0.1"
       id="path386" />
    <path
       d="m 2828.17,403.4 h 20.8902 v 5.61016 H 2828.17 Z"
       style="fill:#97a9ae;fill-opacity:1;fill-rule:nonzero;stroke:none;stroke-width:0.1"
       id="path388" />
    <path
       d="m 2765.76,403.4 h 20.8797 v 5.61016 H 2765.76 Z"
       style="fill:#97a9ae;fill-opacity:1;fill-rule:nonzero;stroke:none;stroke-width:0.1"
       id="path390" />
    <path
       d="m 2710.37,403.4 h 46.3996 v 5.61016 H 2710.37 Z"
       style="fill:#97a9ae;fill-opacity:1;fill-rule:nonzero;stroke:none;stroke-width:0.1"
       id="path392" />
    <path
       d="m 2615.93,659.69 c 0.01,6.34 4.87,11.7 11.69,11.68 3.95,0 6.37,-1.11 8.7,-3.08 l -2.53,-3.01 c -1.74,1.49 -3.46,2.43 -6.33,2.44 -4.17,0.01 -7.35,-3.64 -7.36,-8.04 -0.01,-4.66 3.06,-8.09 7.68,-8.1 2.14,0 4.08,0.67 5.47,1.71 l 0.01,4.23 -5.79,0.01 0.01,3.46 9.63,-0.01 -0.01,-9.51 c -2.24,-1.91 -5.44,-3.52 -9.45,-3.51 -7.09,0.01 -11.73,5.07 -11.72,11.73"
       style="fill:#30545d;fill-opacity:1;fill-rule:nonzero;stroke:none;stroke-width:0.1"
       id="path394" />
    <path
       d="m 2660.78,659.61 c 0.01,4.39 -3.18,8.06 -7.68,8.06 -4.49,0.01 -7.64,-3.57 -7.64,-8.04 -0.01,-4.39 3.18,-8.05 7.68,-8.06 4.49,-0.01 7.64,3.57 7.64,8.04 z m -19.49,0.03 c 0.01,6.37 4.93,11.7 11.88,11.69 6.96,-0.02 11.8,-5.3 11.79,-11.73 -0.02,-6.37 -4.94,-11.7 -11.89,-11.68 -6.96,0.01 -11.8,5.29 -11.78,11.72"
       style="fill:#30545d;fill-opacity:1;fill-rule:nonzero;stroke:none;stroke-width:0.1"
       id="path396" />
    <path
       d="m 2688.28,659.56 c 0,4.4 -3.19,8.06 -7.69,8.06 -4.49,0.01 -7.63,-3.57 -7.64,-8.04 -0.01,-4.39 3.18,-8.05 7.68,-8.06 4.5,-0.01 7.64,3.57 7.65,8.04 z m -19.5,0.03 c 0.01,6.37 4.93,11.7 11.89,11.69 6.95,-0.02 11.79,-5.3 11.78,-11.73 -0.01,-6.37 -4.94,-11.7 -11.89,-11.68 -6.95,0.01 -11.8,5.29 -11.78,11.72"
       style="fill:#30545d;fill-opacity:1;fill-rule:nonzero;stroke:none;stroke-width:0.1"
       id="path398" />
    <path
       d="m 2705.7,651.83 c 4.75,-0.01 7.86,3.19 7.87,7.68 0.01,4.43 -3.09,7.7 -7.85,7.71 l -4.46,0.01 -0.03,-15.39 z m -8.41,19.03 8.44,-0.02 c 7.11,-0.01 12.02,-4.9 12.01,-11.34 -0.01,-6.37 -4.94,-11.31 -12.05,-11.29 l -8.44,0.01 0.04,22.64"
       style="fill:#30545d;fill-opacity:1;fill-rule:nonzero;stroke:none;stroke-width:0.1"
       id="path400" />
    <path
       d="m 2732.29,670.79 16.84,-0.03 v -3.62 l -12.87,0.03 -0.01,-6.18 11.41,-0.02 -0.01,-3.62 -11.41,0.02 -0.02,-9.22 -3.98,0.01 0.05,22.63"
       style="fill:#30545d;fill-opacity:1;fill-rule:nonzero;stroke:none;stroke-width:0.1"
       id="path402" />
    <path
       d="m 2753.5,670.76 3.98,-0.01 -0.04,-19.01 11.9,-0.03 v -3.62 l -15.88,0.03 0.04,22.64"
       style="fill:#30545d;fill-opacity:1;fill-rule:nonzero;stroke:none;stroke-width:0.1"
       id="path404" />
    <path
       d="m 2790.7,659.37 c 0.01,4.4 -3.18,8.06 -7.68,8.07 -4.49,0.01 -7.64,-3.58 -7.64,-8.04 -0.01,-4.4 3.18,-8.06 7.68,-8.07 4.49,-0.01 7.64,3.58 7.64,8.04 z m -19.49,0.04 c 0.01,6.37 4.93,11.69 11.88,11.68 6.96,-0.01 11.8,-5.29 11.79,-11.73 -0.02,-6.37 -4.94,-11.69 -11.89,-11.68 -6.96,0.01 -11.8,5.29 -11.78,11.73"
       style="fill:#30545d;fill-opacity:1;fill-rule:nonzero;stroke:none;stroke-width:0.1"
       id="path406" />
    <path
       d="m 2809.5,659.43 c 2.84,0 4.66,1.48 4.66,3.84 0,2.43 -1.74,3.76 -4.68,3.76 l -5.79,0.01 -0.01,-7.6 z m -9.78,11.24 10.09,-0.02 c 5.3,-0.01 8.4,-2.86 8.39,-7.22 0,-3.72 -2.24,-5.95 -5.41,-6.85 l 6.1,-8.58 -4.69,0.01 -5.62,7.9 -4.91,0.01 -0.01,-7.89 -3.98,0.01 0.04,22.63"
       style="fill:#30545d;fill-opacity:1;fill-rule:nonzero;stroke:none;stroke-width:0.1"
       id="path408" />
    <path
       d="m 2836.79,656.96 -3.9,9.06 -3.89,-9.05 z m -5.67,13.82 3.69,-0.01 9.92,-22.81 h -4.21 l -2.28,5.47 -10.71,0.02 -2.33,-5.46 -4.08,0.01 10,22.78"
       style="fill:#30545d;fill-opacity:1;fill-rule:nonzero;stroke:none;stroke-width:0.1"
       id="path410" />
    <path
       d="m 2886.06,695 c 5.37,0.03 13.84,0.39 18.74,2.27 0,0 -15.65,0.22 -12.32,5.17 0.61,0.9 8.38,0.22 17.07,0.22 3.56,0 7.84,-2.66 11.9,-5.11 3.2,-1.04 19.66,5.35 19.66,5.35 l 2.24,-16.93 c 0,0 -20.95,-6.28 -30.85,-10.54 -7.59,-3.27 -24.36,1.36 -29.05,6.24 -2.97,3.1 -5.31,7.21 -5.15,10.2 0.18,3.26 4.49,3.11 7.76,3.13"
       style="fill:#f2beb7;fill-opacity:1;fill-rule:nonzero;stroke:none;stroke-width:0.1"
       id="path412" />
    <path
       d="m 2715.01,288.04 c 0,-5.16 -2.11,-9.85 -5.52,-13.25 -3.4,-3.4 -8.09,-5.52 -13.25,-5.52 h -88.63 c -10.32,0 -18.77,8.45 -18.77,18.77 0,5.16 2.11,9.85 5.51,13.26 3.41,3.4 8.09,5.51 13.26,5.51 h 88.63 c 10.32,0 18.77,-8.45 18.77,-18.77"
       style="fill:#333333;fill-opacity:1;fill-rule:nonzero;stroke:none;stroke-width:0.1"
       id="path414" />
    <path
       d="m 2669.29,288.04 c 0,-5.16 -2.12,-9.85 -5.52,-13.25 -3.4,-3.4 -8.09,-5.52 -13.25,-5.52 h -42.91 c -10.32,0 -18.77,8.45 -18.77,18.77 0,5.16 2.11,9.85 5.51,13.26 3.41,3.4 8.09,5.51 13.26,5.51 h 42.91 c 10.32,0 18.77,-8.45 18.77,-18.77"
       style="fill:#30545d;fill-opacity:1;fill-rule:nonzero;stroke:none;stroke-width:0.1"
       id="path416" />
    <path
       d="m 2697.74,296.73 h -30.6 c -1.2,2.29 -2.87,4.3 -4.87,5.92 h 35.47 c 1.46,0 2.66,-1.2 2.66,-2.66 v -0.6 c 0,-1.47 -1.2,-2.66 -2.66,-2.66"
       style="fill:#7c8084;fill-opacity:1;fill-rule:nonzero;stroke:none;stroke-width:0.1"
       id="path418" />
    <path
       d="m 2667.14,296.73 h -53.94 c -1.47,0 -2.66,1.19 -2.66,2.66 v 0.6 c 0,1.46 1.19,2.66 2.66,2.66 h 49.07 c 2,-1.62 3.67,-3.63 4.87,-5.92"
       style="fill:#7a949d;fill-opacity:1;fill-rule:nonzero;stroke:none;stroke-width:0.1"
       id="path420" />
    <path
       d="m 2639.37,341.2 c 2.46,-4.89 2.68,-10.33 1.07,-15.18 -1.61,-4.84 -5.05,-9.07 -9.94,-11.52 l -84.01,-42.1 c -9.78,-4.9 -21.8,-0.9 -26.7,8.88 -2.45,4.89 -2.68,10.34 -1.07,15.18 1.61,4.83 5.05,9.06 9.94,11.51 l 84.01,42.1 c 9.78,4.91 21.8,0.92 26.7,-8.87"
       style="fill:#333333;fill-opacity:1;fill-rule:nonzero;stroke:none;stroke-width:0.1"
       id="path422" />
    <path
       d="m 2596.04,319.49 c 2.45,-4.89 2.67,-10.34 1.07,-15.18 -1.61,-4.85 -5.05,-9.07 -9.94,-11.53 l -40.68,-20.38 c -9.78,-4.9 -21.8,-0.9 -26.7,8.88 -2.45,4.89 -2.68,10.34 -1.07,15.18 1.61,4.83 5.05,9.06 9.94,11.51 l 40.68,20.39 c 9.78,4.9 21.8,0.91 26.7,-8.87"
       style="fill:#ee816f;fill-opacity:1;fill-rule:nonzero;stroke:none;stroke-width:0.1"
       id="path424" />
    <path
       d="m 2589.88,326.7 c -2.23,1.6 -4.76,2.72 -7.43,3.3 l 33.62,16.84 c 0.4,0.2 0.83,0.3 1.26,0.3 1.03,0 2.03,-0.57 2.53,-1.55 l 0.28,-0.57 c 0.7,-1.39 0.13,-3.09 -1.26,-3.79 l -29,-14.53"
       style="fill:#998b80;fill-opacity:1;fill-rule:nonzero;stroke:none;stroke-width:0.1"
       id="path426" />
    <path
       d="m 2537.5,300.78 c -1.04,0 -2.04,0.57 -2.53,1.55 l -0.29,0.57 c -0.69,1.39 -0.13,3.09 1.26,3.79 l 46.51,23.31 c 2.67,-0.58 5.2,-1.7 7.43,-3.3 l -51.13,-25.62 c -0.4,-0.21 -0.83,-0.3 -1.25,-0.3"
       style="fill:#f7b29e;fill-opacity:1;fill-rule:nonzero;stroke:none;stroke-width:0.1"
       id="path428" />
    <path
       d="m 2131.67,289.13 c 0,-5.16 -2.12,-9.85 -5.52,-13.26 -3.4,-3.4 -8.09,-5.51 -13.25,-5.51 h -88.64 c -10.32,0 -18.76,8.45 -18.76,18.77 0,5.16 2.11,9.85 5.51,13.25 3.4,3.4 8.09,5.51 13.25,5.51 h 88.64 c 10.32,0 18.77,-8.44 18.77,-18.76"
       style="fill:#c4eaf4;fill-opacity:1;fill-rule:nonzero;stroke:none;stroke-width:0.1"
       id="path430" />
    <path
       d="m 2085.94,289.13 c 0,-5.16 -2.11,-9.85 -5.51,-13.26 -3.4,-3.4 -8.09,-5.51 -13.25,-5.51 h -42.92 c -10.32,0 -18.76,8.45 -18.76,18.77 0,5.16 2.11,9.85 5.51,13.25 3.4,3.4 8.09,5.51 13.25,5.51 h 42.92 c 10.32,0 18.76,-8.44 18.76,-18.76"
       style="fill:#30545d;fill-opacity:1;fill-rule:nonzero;stroke:none;stroke-width:0.1"
       id="path432" />
    <path
       d="m 2114.4,297.81 h -30.6 c -1.2,2.29 -2.87,4.31 -4.87,5.92 h 35.47 c 1.46,0 2.66,-1.2 2.66,-2.66 v -0.6 c 0,-1.46 -1.2,-2.66 -2.66,-2.66"
       style="fill:#d3eef8;fill-opacity:1;fill-rule:nonzero;stroke:none;stroke-width:0.1"
       id="path434" />
    <path
       d="m 2083.8,297.81 h -53.95 c -1.46,0 -2.65,1.2 -2.65,2.66 v 0.6 c 0,1.46 1.19,2.66 2.65,2.66 h 49.08 c 2,-1.61 3.67,-3.63 4.87,-5.92"
       style="fill:#7a949d;fill-opacity:1;fill-rule:nonzero;stroke:none;stroke-width:0.1"
       id="path436" />
    <path
       d="m 2408.02,1156.42 c 0,52.37 42.46,94.82 94.83,94.82 52.37,0 94.83,-42.45 94.83,-94.82 0,-52.37 -42.46,-94.83 -94.83,-94.83 -52.37,0 -94.83,42.46 -94.83,94.83"
       style="fill:#30545d;fill-opacity:1;fill-rule:nonzero;stroke:none;stroke-width:0.1"
       id="path438" />
    <path
       d="m 2502.96,1102.7 c -3.4,0 -6.65,1.51 -8.84,4.16 l -50.07,60.57 c -4.03,4.88 -3.34,12.1 1.54,16.14 4.87,4.03 12.1,3.35 16.13,-1.53 l 39.71,-48.04 71.84,120.57 c 3.24,5.44 10.28,7.22 15.72,3.98 5.43,-3.24 7.22,-10.28 3.98,-15.72 l -80.16,-134.53 c -1.91,-3.21 -5.25,-5.28 -8.97,-5.57 -0.3,-0.02 -0.59,-0.03 -0.88,-0.03"
       style="fill:#eb594c;fill-opacity:1;fill-rule:nonzero;stroke:none;stroke-width:0.1"
       id="path440" />
    <path
       d="m 2082.2,489.9 c -2.14,0.1 -4.19,1.24 -5.38,3.22 -19.97,33.4 -22.77,67.51 -22.88,68.95 -0.28,3.65 2.46,6.84 6.11,7.12 3.66,0.27 6.84,-2.46 7.12,-6.11 0.03,-0.32 2.73,-32.53 21.04,-63.15 1.88,-3.15 0.86,-7.22 -2.29,-9.1 -1.16,-0.7 -2.46,-1 -3.72,-0.93"
       style="fill:#30545d;fill-opacity:1;fill-rule:nonzero;stroke:none;stroke-width:0.1"
       id="path442" />
    <path
       d="m 2356.55,600.27 c 1.84,1.12 4.18,1.32 6.27,0.35 35.25,-16.48 56.69,-43.16 57.58,-44.29 2.28,-2.87 1.8,-7.04 -1.07,-9.32 -2.88,-2.28 -7.04,-1.8 -9.32,1.07 -0.2,0.25 -20.49,25.41 -52.81,40.51 -3.32,1.55 -4.75,5.5 -3.2,8.82 0.57,1.23 1.48,2.21 2.55,2.86"
       style="fill:#eb594c;fill-opacity:1;fill-rule:nonzero;stroke:none;stroke-width:0.1"
       id="path444" />
    <path
       d="m 2658.52,847.26 c 0.95,-1.93 0.96,-4.27 -0.2,-6.27 -19.47,-33.7 -47.91,-52.73 -49.11,-53.53 -3.06,-2.02 -7.17,-1.18 -9.2,1.88 -2.02,3.06 -1.18,7.17 1.88,9.19 0.27,0.18 27.1,18.21 44.94,49.1 1.84,3.17 5.89,4.26 9.07,2.43 1.17,-0.68 2.06,-1.67 2.62,-2.8"
       style="fill:#eb594c;fill-opacity:1;fill-rule:nonzero;stroke:none;stroke-width:0.1"
       id="path446" />
    <path
       d="m 2234.03,819.78 c -1.35,-1.67 -3.47,-2.67 -5.77,-2.46 -38.77,3.42 -68.03,21.16 -69.26,21.91 -3.12,1.92 -4.1,6 -2.18,9.13 1.92,3.12 6,4.09 9.12,2.18 0.27,-0.17 27.95,-16.87 63.49,-20 3.65,-0.33 6.34,-3.55 6.02,-7.2 -0.12,-1.35 -0.63,-2.57 -1.42,-3.56"
       style="fill:#eb594c;fill-opacity:1;fill-rule:nonzero;stroke:none;stroke-width:0.1"
       id="path448" />
    <path
       d="m 2427.92,1262.6 c 0.35,-1.83 -0.19,-3.79 -1.61,-5.2 -24.06,-23.72 -52.25,-33.11 -53.43,-33.5 -3.03,-0.98 -6.28,0.67 -7.27,3.69 -0.98,3.03 0.67,6.27 3.68,7.26 0.27,0.09 26.88,9.01 48.93,30.75 2.26,2.24 5.91,2.21 8.14,-0.05 0.83,-0.84 1.35,-1.87 1.56,-2.95"
       style="fill:#eb594c;fill-opacity:1;fill-rule:nonzero;stroke:none;stroke-width:0.1"
       id="path450" />
    <path
       d="m 2224.1,624.42 c 1.53,-1.33 2.38,-3.38 2.1,-5.54 -4.8,-36.46 -22.73,-63.36 -23.49,-64.49 -1.94,-2.87 -5.84,-3.63 -8.71,-1.69 -2.87,1.94 -3.62,5.83 -1.69,8.7 0.17,0.25 17.06,25.7 21.45,59.12 0.46,3.43 3.61,5.85 7.04,5.39 1.27,-0.16 2.4,-0.7 3.3,-1.49"
       style="fill:#eb594c;fill-opacity:1;fill-rule:nonzero;stroke:none;stroke-width:0.1"
       id="path452" />
    <path
       d="m 2036.69,384.26 c -0.67,1.82 -0.45,3.93 0.77,5.62 20.73,28.46 48.12,42.88 49.28,43.48 2.94,1.52 6.56,0.38 8.09,-2.57 1.53,-2.94 0.38,-6.56 -2.56,-8.08 -0.26,-0.14 -26.11,-13.81 -45.1,-39.9 -1.95,-2.68 -5.71,-3.27 -8.38,-1.31 -1,0.72 -1.71,1.69 -2.1,2.76"
       style="fill:#eb594c;fill-opacity:1;fill-rule:nonzero;stroke:none;stroke-width:0.1"
       id="path454" />
    <path
       d="m 2264.57,357.84 c 0.95,-1.55 1.13,-3.54 0.31,-5.32 -13.88,-29.97 -36.46,-48.24 -37.42,-49 -2.43,-1.94 -5.97,-1.55 -7.92,0.88 -1.94,2.44 -1.54,5.97 0.88,7.91 0.22,0.18 21.52,17.47 34.24,44.95 1.31,2.82 4.65,4.05 7.48,2.74 1.04,-0.48 1.87,-1.25 2.43,-2.16"
       style="fill:#30545d;fill-opacity:1;fill-rule:nonzero;stroke:none;stroke-width:0.1"
       id="path456" />
    <path
       d="m 2204.3,1079.35 c -7.08,-1.65 -13.89,1.57 -15.2,7.19 -1.31,5.63 3.38,11.52 10.46,13.17 7.09,1.65 13.89,-1.57 15.2,-7.19 1.31,-5.63 -3.37,-11.52 -10.46,-13.17"
       style="fill:#23393d;fill-opacity:1;fill-rule:nonzero;stroke:none;stroke-width:0.1"
       id="path458" />
    <path
       d="m 2333.12,1031.83 c -5.14,5.14 -6,12.62 -1.92,16.71 4.08,4.08 11.56,3.22 16.71,-1.93 5.14,-5.14 6,-12.62 1.92,-16.7 -4.08,-4.09 -11.56,-3.22 -16.71,1.92"
       style="fill:#30545d;fill-opacity:1;fill-rule:nonzero;stroke:none;stroke-width:0.1"
       id="path460" />
    <path
       d="m 2361.17,1258.7 c -2.89,2.89 -3.37,7.09 -1.08,9.39 2.3,2.3 6.5,1.81 9.39,-1.08 2.9,-2.89 3.38,-7.1 1.08,-9.39 -2.29,-2.3 -6.5,-1.81 -9.39,1.08"
       style="fill:#eb594c;fill-opacity:1;fill-rule:nonzero;stroke:none;stroke-width:0.1"
       id="path462" />
    <path
       d="m 2231.62,1071.37 c -2.9,2.9 -3.38,7.1 -1.08,9.4 2.29,2.29 6.5,1.81 9.39,-1.08 2.89,-2.9 3.37,-7.1 1.08,-9.4 -2.3,-2.29 -6.5,-1.81 -9.39,1.08"
       style="fill:#eb594c;fill-opacity:1;fill-rule:nonzero;stroke:none;stroke-width:0.1"
       id="path464" />
    <path
       d="m 2231.62,888.29 c -2.9,2.89 -3.38,7.09 -1.08,9.39 2.29,2.29 6.5,1.81 9.39,-1.08 2.89,-2.89 3.37,-7.1 1.08,-9.39 -2.3,-2.3 -6.5,-1.82 -9.39,1.08"
       style="fill:#eb594c;fill-opacity:1;fill-rule:nonzero;stroke:none;stroke-width:0.1"
       id="path466" />
    <path
       d="m 2388.74,614.17 c -5.15,5.15 -6.01,12.63 -1.92,16.71 4.08,4.08 11.56,3.22 16.7,-1.92 5.15,-5.15 6.01,-12.63 1.93,-16.71 -4.09,-4.08 -11.57,-3.22 -16.71,1.92"
       style="fill:#30545d;fill-opacity:1;fill-rule:nonzero;stroke:none;stroke-width:0.1"
       id="path468" />
    <path
       d="m 2223,378.33 c -5.14,5.15 -6,12.63 -1.92,16.71 4.08,4.08 11.56,3.22 16.71,-1.92 5.14,-5.15 6,-12.63 1.92,-16.71 -4.08,-4.08 -11.56,-3.22 -16.71,1.92"
       style="fill:#eb594c;fill-opacity:1;fill-rule:nonzero;stroke:none;stroke-width:0.1"
       id="path470" />
    <path
       d="m 2086.75,352.48 c -3.6,3.6 -4.2,8.84 -1.34,11.69 2.86,2.86 8.09,2.26 11.69,-1.34 3.6,-3.6 4.21,-8.84 1.35,-11.69 -2.86,-2.86 -8.09,-2.26 -11.7,1.34"
       style="fill:#eb594c;fill-opacity:1;fill-rule:nonzero;stroke:none;stroke-width:0.1"
       id="path472" />
    <path
       d="m 2134.27,614.17 c -5.15,5.15 -6.01,12.63 -1.93,16.71 4.09,4.08 11.57,3.22 16.71,-1.92 5.15,-5.15 6.01,-12.63 1.92,-16.71 -4.08,-4.08 -11.56,-3.22 -16.7,1.92"
       style="fill:#23393d;fill-opacity:1;fill-rule:nonzero;stroke:none;stroke-width:0.1"
       id="path474" />
    <path
       d="m 2117.39,532.14 c -3.83,3.83 -4.47,9.39 -1.43,12.42 3.04,3.04 8.6,2.4 12.42,-1.43 3.82,-3.82 4.46,-9.38 1.43,-12.42 -3.04,-3.03 -8.6,-2.39 -12.42,1.43"
       style="fill:#eb594c;fill-opacity:1;fill-rule:nonzero;stroke:none;stroke-width:0.1"
       id="path476" />
    <path
       d="m 2084.73,610.76 c -4.37,4.37 -4.69,11.13 -0.71,15.11 3.97,3.97 10.74,3.65 15.11,-0.72 4.37,-4.37 4.69,-11.13 0.71,-15.11 -3.97,-3.97 -10.74,-3.65 -15.11,0.72"
       style="fill:#eb594c;fill-opacity:1;fill-rule:nonzero;stroke:none;stroke-width:0.1"
       id="path478" />
    <path
       d="m 2005.02,517.38 c -5.15,5.14 -6.01,12.62 -1.93,16.7 4.09,4.09 11.57,3.23 16.71,-1.92 5.15,-5.14 6.01,-12.62 1.92,-16.7 -4.08,-4.09 -11.56,-3.23 -16.7,1.92"
       style="fill:#30545d;fill-opacity:1;fill-rule:nonzero;stroke:none;stroke-width:0.1"
       id="path480" />
    <path
       d="m 2125.84,403.67 c -2.08,3.16 -1.72,7.07 0.79,8.71 2.52,1.65 6.24,0.41 8.31,-2.75 2.08,-3.17 1.72,-7.07 -0.79,-8.72 -2.52,-1.65 -6.24,-0.41 -8.31,2.76"
       style="fill:#23393d;fill-opacity:1;fill-rule:nonzero;stroke:none;stroke-width:0.1"
       id="path482" />
    <path
       d="m 2158.16,376.65 c -3.52,1.4 -5.47,4.8 -4.36,7.59 1.11,2.79 4.86,3.92 8.38,2.52 3.52,-1.4 5.47,-4.8 4.36,-7.59 -1.11,-2.79 -4.86,-3.92 -8.38,-2.52"
       style="fill:#23393d;fill-opacity:1;fill-rule:nonzero;stroke:none;stroke-width:0.1"
       id="path484" />
    <path
       d="m 2132.77,391.27 c -2.5,2.84 -2.7,6.76 -0.44,8.74 2.25,1.99 6.11,1.29 8.61,-1.55 2.5,-2.85 2.7,-6.76 0.44,-8.74 -2.25,-1.99 -6.11,-1.29 -8.61,1.55"
       style="fill:#23393d;fill-opacity:1;fill-rule:nonzero;stroke:none;stroke-width:0.1"
       id="path486" />
    <path
       d="m 2145.52,381.54 c -3.52,1.4 -5.47,4.8 -4.36,7.59 1.11,2.79 4.86,3.92 8.38,2.52 3.52,-1.4 5.47,-4.8 4.36,-7.59 -1.11,-2.79 -4.86,-3.92 -8.38,-2.52"
       style="fill:#23393d;fill-opacity:1;fill-rule:nonzero;stroke:none;stroke-width:0.1"
       id="path488" />
    <path
       d="m 2169.34,371.44 c -3.11,2.16 -4.24,5.92 -2.52,8.38 1.71,2.47 5.62,2.72 8.73,0.56 3.11,-2.16 4.24,-5.91 2.53,-8.38 -1.72,-2.47 -5.63,-2.72 -8.74,-0.56"
       style="fill:#23393d;fill-opacity:1;fill-rule:nonzero;stroke:none;stroke-width:0.1"
       id="path490" />
    <path
       d="m 2174.76,363.78 c -1.06,3.64 0.41,7.27 3.3,8.11 2.88,0.85 6.08,-1.42 7.15,-5.05 1.06,-3.63 -0.41,-7.26 -3.3,-8.11 -2.88,-0.84 -6.08,1.42 -7.15,5.05"
       style="fill:#23393d;fill-opacity:1;fill-rule:nonzero;stroke:none;stroke-width:0.1"
       id="path492" />
    <path
       d="m 2178.82,350.05 c -1.45,3.49 -0.39,7.26 2.39,8.42 2.77,1.15 6.2,-0.74 7.66,-4.24 1.45,-3.49 0.38,-7.27 -2.39,-8.42 -2.77,-1.16 -6.2,0.74 -7.66,4.24"
       style="fill:#23393d;fill-opacity:1;fill-rule:nonzero;stroke:none;stroke-width:0.1"
       id="path494" />
    <path
       d="m 2408.79,839.79 c 3.75,-0.55 6.43,-3.41 5.99,-6.38 -0.44,-2.97 -3.83,-4.94 -7.57,-4.39 -3.75,0.55 -6.43,3.41 -6,6.38 0.44,2.98 3.83,4.94 7.58,4.39"
       style="fill:#23393d;fill-opacity:1;fill-rule:nonzero;stroke:none;stroke-width:0.1"
       id="path496" />
    <path
       d="m 2367.13,833.54 c 3.38,1.71 7.22,0.91 8.57,-1.77 1.35,-2.69 -0.29,-6.24 -3.68,-7.95 -3.38,-1.7 -7.21,-0.9 -8.57,1.78 -1.35,2.69 0.3,6.24 3.68,7.94"
       style="fill:#23393d;fill-opacity:1;fill-rule:nonzero;stroke:none;stroke-width:0.1"
       id="path498" />
    <path
       d="m 2394.92,842.83 c 3.78,-0.01 6.84,-2.46 6.83,-5.47 -0.01,-3 -3.09,-5.43 -6.88,-5.41 -3.79,0.02 -6.84,2.47 -6.83,5.47 0.01,3.01 3.09,5.43 6.88,5.41"
       style="fill:#23393d;fill-opacity:1;fill-rule:nonzero;stroke:none;stroke-width:0.1"
       id="path500" />
    <path
       d="m 2379.18,839.75 c 3.38,1.71 7.22,0.91 8.57,-1.77 1.35,-2.69 -0.3,-6.24 -3.68,-7.95 -3.38,-1.7 -7.22,-0.9 -8.57,1.78 -1.35,2.69 0.3,6.24 3.68,7.94"
       style="fill:#23393d;fill-opacity:1;fill-rule:nonzero;stroke:none;stroke-width:0.1"
       id="path502" />
    <path
       d="m 2355.81,828.64 c 3.68,0.89 7.24,-0.76 7.95,-3.68 0.71,-2.92 -1.7,-6.01 -5.38,-6.9 -3.68,-0.89 -7.24,0.75 -7.95,3.67 -0.71,2.92 1.7,6.02 5.38,6.91"
       style="fill:#23393d;fill-opacity:1;fill-rule:nonzero;stroke:none;stroke-width:0.1"
       id="path504" />
    <path
       d="m 2346.48,829.67 c 3.43,-1.62 5.16,-5.13 3.88,-7.85 -1.28,-2.72 -5.1,-3.61 -8.52,-2 -3.42,1.62 -5.16,5.13 -3.88,7.85 1.28,2.72 5.1,3.61 8.52,2"
       style="fill:#23393d;fill-opacity:1;fill-rule:nonzero;stroke:none;stroke-width:0.1"
       id="path506" />
    <path
       d="m 2333.52,835.75 c 3.58,-1.23 5.69,-4.53 4.71,-7.38 -0.98,-2.84 -4.67,-4.14 -8.25,-2.91 -3.58,1.23 -5.69,4.53 -4.72,7.37 0.98,2.84 4.68,4.15 8.26,2.92"
       style="fill:#23393d;fill-opacity:1;fill-rule:nonzero;stroke:none;stroke-width:0.1"
       id="path508" />
    <path
       d="m 2546.72,828.09 c -2.08,-0.54 -4.39,-0.07 -6.12,1.47 -29.15,26.02 -42.05,57.87 -42.59,59.21 -1.36,3.42 0.31,7.29 3.72,8.65 3.43,1.36 7.29,-0.3 8.66,-3.71 0.12,-0.3 12.36,-30.36 39.08,-54.21 2.75,-2.45 2.99,-6.66 0.53,-9.4 -0.9,-1.02 -2.05,-1.69 -3.28,-2.01"
       style="fill:#23393d;fill-opacity:1;fill-rule:nonzero;stroke:none;stroke-width:0.1"
       id="path510" />
    <path
       d="m 2528.69,847.23 c -1,-0.26 -2.06,-0.29 -3.13,-0.05 -17.53,3.92 -52.52,3.94 -52.87,3.94 -3.68,0 -6.66,2.98 -6.67,6.66 0,3.68 2.98,6.66 6.66,6.66 1.49,0 36.84,-0.02 55.79,-4.26 3.59,-0.81 5.85,-4.37 5.04,-7.96 -0.56,-2.52 -2.49,-4.38 -4.82,-4.99"
       style="fill:#23393d;fill-opacity:1;fill-rule:nonzero;stroke:none;stroke-width:0.1"
       id="path512" />
    <path
       d="m 2118.46,906.46 c -0.1,2.15 0.84,4.31 2.7,5.68 31.45,23.18 65.27,29.27 66.69,29.52 3.63,0.63 7.08,-1.8 7.71,-5.42 0.63,-3.63 -1.8,-7.07 -5.42,-7.71 -0.32,-0.05 -32.24,-5.87 -61.07,-27.11 -2.97,-2.19 -7.14,-1.56 -9.32,1.41 -0.81,1.09 -1.23,2.36 -1.29,3.63"
       style="fill:#23393d;fill-opacity:1;fill-rule:nonzero;stroke:none;stroke-width:0.1"
       id="path514" />
    <path
       d="m 2140.9,920.17 c -0.05,1.03 0.14,2.08 0.59,3.07 7.44,16.35 14.65,50.59 14.72,50.93 0.75,3.61 4.28,5.91 7.88,5.16 3.61,-0.75 5.91,-4.29 5.16,-7.88 -0.31,-1.47 -7.59,-36.05 -15.64,-53.73 -1.52,-3.34 -5.47,-4.82 -8.82,-3.3 -2.35,1.07 -3.78,3.34 -3.89,5.75"
       style="fill:#23393d;fill-opacity:1;fill-rule:nonzero;stroke:none;stroke-width:0.1"
       id="path516" />
    <path
       d="m 2445.86,1295.39 c -2.09,-0.54 -4.4,-0.06 -6.12,1.48 -29.15,26.02 -42.06,57.86 -42.59,59.21 -1.36,3.41 0.3,7.29 3.72,8.65 3.42,1.36 7.29,-0.3 8.65,-3.72 0.12,-0.3 12.37,-30.35 39.09,-54.2 2.74,-2.45 2.98,-6.66 0.53,-9.41 -0.91,-1.01 -2.06,-1.69 -3.28,-2.01"
       style="fill:#23393d;fill-opacity:1;fill-rule:nonzero;stroke:none;stroke-width:0.1"
       id="path518" />
    <path
       d="m 2427.82,1314.54 c -0.99,-0.26 -2.06,-0.3 -3.13,-0.06 -17.52,3.93 -52.51,3.95 -52.86,3.95 -3.68,0 -6.67,2.98 -6.67,6.65 0,3.68 2.98,6.67 6.66,6.67 1.49,0 36.83,-0.02 55.78,-4.27 3.59,-0.8 5.85,-4.36 5.05,-7.95 -0.56,-2.52 -2.49,-4.39 -4.83,-4.99"
       style="fill:#23393d;fill-opacity:1;fill-rule:nonzero;stroke:none;stroke-width:0.1"
       id="path520" />
    <path
       d="m 2236.75,568.61 c 0.56,2.08 2.12,3.85 4.31,4.58 37.03,12.46 71.09,7.91 72.52,7.71 3.65,-0.51 6.19,-3.87 5.68,-7.52 -0.51,-3.64 -3.87,-6.18 -7.51,-5.67 -0.32,0.04 -32.5,4.27 -66.44,-7.14 -3.49,-1.18 -7.27,0.7 -8.44,4.19 -0.43,1.29 -0.45,2.62 -0.12,3.85"
       style="fill:#23393d;fill-opacity:1;fill-rule:nonzero;stroke:none;stroke-width:0.1"
       id="path522" />
    <path
       d="m 2262.31,574.81 c 0.26,0.98 0.76,1.93 1.5,2.74 12.08,13.28 29.42,43.68 29.59,43.99 1.82,3.2 5.88,4.31 9.08,2.5 3.2,-1.82 4.32,-5.89 2.5,-9.09 -0.74,-1.3 -18.25,-31.99 -31.31,-46.37 -2.48,-2.72 -6.69,-2.92 -9.41,-0.44 -1.91,1.74 -2.58,4.33 -1.95,6.67"
       style="fill:#23393d;fill-opacity:1;fill-rule:nonzero;stroke:none;stroke-width:0.1"
       id="path524" />
    <path
       d="m 2359.97,1154.01 c 0.67,-1.73 0.49,-3.74 -0.65,-5.37 -19.3,-27.43 -45.17,-41.59 -46.27,-42.18 -2.78,-1.5 -6.24,-0.47 -7.74,2.31 -1.5,2.79 -0.47,6.25 2.31,7.75 0.24,0.13 24.65,13.56 42.34,38.7 1.82,2.59 5.39,3.21 7.97,1.39 0.96,-0.67 1.65,-1.59 2.04,-2.6"
       style="fill:#eb594c;fill-opacity:1;fill-rule:nonzero;stroke:none;stroke-width:0.1"
       id="path526" />
    <path
       d="m 2345.44,1136.73 c 0.31,-0.82 0.45,-1.72 0.35,-2.66 -1.61,-15.33 1.84,-45.17 1.88,-45.47 0.37,-3.14 -1.88,-5.98 -5.02,-6.35 -3.13,-0.36 -5.97,1.88 -6.34,5.02 -0.15,1.27 -3.63,31.41 -1.89,47.99 0.32,3.14 3.14,5.42 6.28,5.09 2.2,-0.23 3.98,-1.68 4.74,-3.62"
       style="fill:#eb594c;fill-opacity:1;fill-rule:nonzero;stroke:none;stroke-width:0.1"
       id="path528" />
    <path
       d="m 1905.83,879.59 c 0,0 2.75,6.19 4.53,9.13 1.79,2.93 9.41,11.52 10.71,9.58 1.29,-1.95 6.48,-15.04 3.72,-18.71 -2.75,-3.67 0.18,-10.05 -13.53,-13.91 l -5.43,13.91"
       style="fill:#f2beb7;fill-opacity:1;fill-rule:nonzero;stroke:none;stroke-width:0.1"
       id="path530" />
    <path
       d="m 1753.49,918.7 c 0,0 70.18,-58.58 97.54,-53.15 21.39,4.24 54.23,15.5 54.23,15.5 l 6.56,-16.8 c 0,0 -29.44,-39.95 -60.15,-40.21 -47.99,-0.41 -83.44,20.78 -83.44,20.78 l -14.74,73.88"
       style="fill:#23393d;fill-opacity:1;fill-rule:nonzero;stroke:none;stroke-width:0.1"
       id="path532" />
    <path
       d="m 1630.43,300.86 c 0,0 2.04,-32.86 8.39,-33.33 0.85,-0.06 32.25,-0.06 32.25,-0.06 l 40.08,0.23 c 0,0 -0.26,9.66 -11.98,11.7 -11.71,2.04 -31.33,10.28 -38.42,25.76 -7.47,16.29 -30.32,-4.3 -30.32,-4.3"
       style="fill:#333333;fill-opacity:1;fill-rule:nonzero;stroke:none;stroke-width:0.1"
       id="path534" />
    <path
       d="m 1628.12,298.58 c 0,0 12.18,-4.07 21.7,-4.07 10.61,0 20.25,2.89 20.25,2.89 0,0 2.3,22.18 14.92,71.06 6.62,25.62 16.07,58.56 29.52,99.5 37.18,113.12 48.48,179.3 49.51,185.57 0.06,0.33 0.08,0.5 0.08,0.5 l -0.12,0.05 -114.3,50.19 c 0,0 14.12,-155.92 -3.9,-215.76 -2.52,-8.37 -4.69,-18.12 -6.54,-28.68 -11.39,-65 -11.12,-161.25 -11.12,-161.25"
       style="fill:#ee816f;fill-opacity:1;fill-rule:nonzero;stroke:none;stroke-width:0.1"
       id="path536" />
    <path
       d="m 1684.99,368.46 c 6.62,25.62 16.07,58.56 29.52,99.5 37.18,113.12 48.48,179.3 49.51,185.57 -0.01,0.19 -0.02,0.36 -0.04,0.55 l -114.3,50.19 c 0,0 14.12,-155.92 -3.9,-215.76 -2.52,-8.37 39.21,-120.05 39.21,-120.05"
       style="fill:#eb594c;fill-opacity:1;fill-rule:nonzero;stroke:none;stroke-width:0.1"
       id="path538" />
    <path
       d="m 1719.7,300.86 c 0,0 2.04,-32.86 8.4,-33.33 0.84,-0.06 32.24,-0.06 32.24,-0.06 l 40.09,0.23 c 0,0 -0.27,9.66 -11.98,11.7 -11.72,2.04 -31.33,10.28 -38.43,25.76 -7.46,16.29 -30.32,-4.3 -30.32,-4.3"
       style="fill:#333333;fill-opacity:1;fill-rule:nonzero;stroke:none;stroke-width:0.1"
       id="path540" />
    <path
       d="m 1784.51,700.59 c 0,0 1.48,-101.03 -16,-225.09 -17.48,-124.05 -11.55,-176.71 -11.55,-176.71 0,0 -12.01,-3.89 -16.86,-4.28 -12.35,-1.01 -25.01,2.89 -25.01,2.89 0,0 -25.02,124.1 -17.85,186.19 7.18,62.09 -34.26,213.07 -34.26,213.07 l 121.53,3.93"
       style="fill:#ee816f;fill-opacity:1;fill-rule:nonzero;stroke:none;stroke-width:0.1"
       id="path542" />
    <path
       d="m 1750,952.81 c -0.71,-8.24 -2.76,-17.64 -8,-22.8 l -16.24,-7.61 -22.3,14.63 c 0,0 8.36,15.94 6.25,39.4 -0.12,1.33 -0.96,10.38 -0.99,10.55 l 11.22,-4.95 30.12,-13.29 c 0,0 0.69,-7.33 -0.06,-15.93"
       style="fill:#f2beb7;fill-opacity:1;fill-rule:nonzero;stroke:none;stroke-width:0.1"
       id="path544" />
    <path
       d="m 1791.17,696.22 c -0.46,-53.33 -4.01,-178.08 -6.63,-180.62 -27.77,-26.81 -149.95,7.35 -156.43,36.89 -6.47,29.54 24.62,378.74 72.06,392.69 9.85,2.89 62.48,-14.13 62.48,-14.13 0,0 8.25,-21.59 13.67,-49.1 2.01,-10.2 8.56,-82.93 12.38,-131.54 1.01,-12.95 1.83,-24.19 2.32,-32.07 0.2,-3.26 0.24,-11.2 0.15,-22.12"
       style="fill:#30545d;fill-opacity:1;fill-rule:nonzero;stroke:none;stroke-width:0.1"
       id="path546" />
    <path
       d="m 1750,952.81 c -11.55,4.28 -32.08,13.13 -38.03,23.21 -2.73,4.61 1.32,6.1 7.97,6.01 l 30.12,-13.29 c 0,0 0.69,-7.33 -0.06,-15.93"
       style="fill:#eda8a2;fill-opacity:1;fill-rule:nonzero;stroke:none;stroke-width:0.1"
       id="path548" />
    <path
       d="m 1761.41,970.57 c 0,0 -48.51,-15.13 -57.46,15.22 -8.96,30.35 -21.25,48.84 9.33,59.78 30.59,10.95 40.06,1.15 45.51,-8.25 5.45,-9.41 15,-62.03 2.62,-66.75"
       style="fill:#f2beb7;fill-opacity:1;fill-rule:nonzero;stroke:none;stroke-width:0.1"
       id="path550" />
    <path
       d="m 1756.88,1040.24 c 0,0 -3.09,-35.32 -10.39,-33.78 -7.31,1.53 -13.93,2.67 -12.86,-7.98 1.07,-10.65 -1.17,-23.71 -23.68,-25.59 -22.51,-1.89 -42.5,56.93 -36.32,67.92 17.84,31.72 109.04,38.12 83.25,-0.57"
       style="fill:#4a190c;fill-opacity:1;fill-rule:nonzero;stroke:none;stroke-width:0.1"
       id="path552" />
    <path
       d="m 1749.75,944.41 c -0.63,0.26 -36.11,16.18 -40.26,14.81 -4.15,-1.37 -9.32,-14.05 -9.32,-14.05 l 62.48,-14.12 c 0,0 -4.92,10 -12.9,13.36"
       style="fill:#23393d;fill-opacity:1;fill-rule:nonzero;stroke:none;stroke-width:0.1"
       id="path554" />
    <path
       d="M 1979.61,765.76 1797.19,572.03 c -3.53,-3.75 -9.6,-3.81 -13.5,-0.14 l -12.41,11.67 c -3.9,3.67 -4.21,9.74 -0.68,13.48 l 182.78,194.09 c 3.52,3.75 6.58,0.8 10.48,-2.87 l 12.41,-11.68 c 3.9,-3.66 6.86,-7.08 3.34,-10.82"
       style="fill:#23393d;fill-opacity:1;fill-rule:nonzero;stroke:none;stroke-width:0.1"
       id="path556" />
    <path
       d="m 1879.59,659.62 -82.14,-87.31 c -3.67,-3.9 -9.86,-4.09 -13.76,-0.42 l -12.41,11.67 c -3.9,3.67 -4.09,9.87 -0.42,13.77 l 82.14,87.31 26.59,-25.02"
       style="fill:#eb594c;fill-opacity:1;fill-rule:nonzero;stroke:none;stroke-width:0.1"
       id="path558" />
    <path
       d="m 2180.53,788.55 c -20.37,-21.65 -45.77,-35.7 -72.67,-42.08 -46.19,-10.92 -96.82,0.82 -133.97,35.77 -58.8,55.32 -61.63,147.84 -6.3,206.64 34.96,37.15 84.76,51.96 131.52,43.86 27.26,-4.71 53.47,-17.19 75.12,-37.55 58.79,-55.32 61.62,-147.84 6.3,-206.64 m 2.79,211.34 c -0.8,0.8 -1.62,1.58 -2.44,2.36 -62.71,58.99 -161.36,55.99 -220.36,-6.71 -39.68,-42.17 -51.31,-100.62 -35.59,-152.31 7.64,-25.17 21.78,-48.73 42.3,-68.05 62.71,-58.99 161.38,-55.99 220.37,6.72 58.22,61.87 56.05,158.76 -4.28,217.99"
       style="fill:#23393d;fill-opacity:1;fill-rule:nonzero;stroke:none;stroke-width:0.1"
       id="path560" />
    <g
       id="g562"
       transform="scale(0.1)">
      <g
         id="g564"
         clip-path="url(#clipPath568)">
        <path
           d="m 19248.3,7425.4 h 2495 v 2923.19 h -2495 z"
           style="fill:#e8f1fd;fill-opacity:1;fill-rule:nonzero;stroke:none"
           id="path570" />
      </g>
    </g>
    <path
       d="m 2174.33,782.35 c -28.29,11.41 -54.14,31.69 -74.69,59.28 -26.67,35.81 -41.96,80.31 -41.96,122.09 0,24.72 4.51,48.75 13.14,71.14 1.08,0.02 2.16,0.03 3.24,0.03 8.38,0 16.76,-0.71 25.05,-2.15 4.34,-0.75 8.64,-1.69 12.91,-2.83 0.02,-0.01 0.04,-0.02 0.06,-0.02 0.02,0 0.04,-0.01 0.05,-0.01 22.53,-6.06 43.92,-17.6 62.1,-34.69 0.29,-0.28 0.58,-0.55 0.87,-0.83 19.69,-18.83 32.98,-41.86 39.79,-66.37 2.24,-8.09 3.79,-16.35 4.62,-24.66 2.34,-23.45 -0.96,-47.39 -9.97,-69.6 -25.47,5.86 -43.38,16.68 -43.6,16.81 -1.08,0.67 -2.28,0.98 -3.46,0.98 -2.23,0 -4.41,-1.12 -5.66,-3.16 -1.92,-3.13 -0.94,-7.21 2.18,-9.13 0.95,-0.58 18.79,-11.4 44.86,-17.82 -6.07,-11.7 -13.85,-22.78 -23.33,-32.86 -1.15,-1.22 -2.32,-2.42 -3.5,-3.59 -0.89,-0.89 -1.79,-1.76 -2.7,-2.61 m -31.92,143 c -6.94,-3.62 -14.15,-7.98 -21.25,-13.21 -1.86,-1.37 -2.8,-3.53 -2.7,-5.68 0.06,-1.27 0.48,-2.54 1.29,-3.63 1.31,-1.78 3.32,-2.71 5.37,-2.71 1.37,0 2.76,0.42 3.95,1.3 28.83,21.24 60.75,27.06 61.07,27.11 3.62,0.64 6.05,4.08 5.42,7.71 -0.57,3.23 -3.38,5.52 -6.56,5.52 -0.38,0 -0.76,-0.04 -1.15,-0.1 -0.83,-0.15 -12.62,-2.27 -28.53,-8.58 5.5,17.32 9.7,37.26 9.93,38.37 0.75,3.59 -1.55,7.13 -5.16,7.88 -0.46,0.1 -0.91,0.14 -1.37,0.14 -3.08,0 -5.85,-2.15 -6.51,-5.3 -0.07,-0.33 -6.7,-31.82 -13.8,-48.82"
       style="fill:#9ec3d7;fill-opacity:1;fill-rule:nonzero;stroke:none;stroke-width:0.1"
       id="path572" />
    <path
       d="m 2203.86,821.41 c -26.07,6.42 -43.91,17.24 -44.86,17.82 -3.12,1.92 -4.1,6 -2.18,9.13 1.25,2.04 3.43,3.16 5.66,3.16 1.18,0 2.38,-0.31 3.46,-0.98 0.22,-0.13 18.13,-10.95 43.6,-16.81 -1.69,-4.17 -3.58,-8.28 -5.68,-12.32"
       style="fill:#da7d80;fill-opacity:1;fill-rule:nonzero;stroke:none;stroke-width:0.1"
       id="path574" />
    <path
       d="m 2125.12,900.12 c -2.05,0 -4.06,0.93 -5.37,2.71 -0.81,1.09 -1.23,2.36 -1.29,3.63 -0.1,2.15 0.84,4.31 2.7,5.68 7.1,5.23 14.31,9.59 21.25,13.21 -0.31,-0.73 -0.61,-1.43 -0.92,-2.11 -0.45,-0.99 -0.64,-2.04 -0.59,-3.07 0.11,-2.41 1.54,-4.68 3.89,-5.75 0.9,-0.41 1.84,-0.6 2.76,-0.6 2.53,0 4.95,1.45 6.06,3.9 1.98,4.35 3.91,9.71 5.71,15.36 15.91,6.31 27.7,8.43 28.53,8.58 0.39,0.06 0.77,0.1 1.15,0.1 3.18,0 5.99,-2.29 6.56,-5.52 0.63,-3.63 -1.8,-7.07 -5.42,-7.71 -0.32,-0.05 -32.24,-5.87 -61.07,-27.11 -1.19,-0.88 -2.58,-1.3 -3.95,-1.3"
       style="fill:#4e6676;fill-opacity:1;fill-rule:nonzero;stroke:none;stroke-width:0.1"
       id="path576" />
    <path
       d="m 2147.55,913.82 c -0.92,0 -1.86,0.19 -2.76,0.6 -2.35,1.07 -3.78,3.34 -3.89,5.75 -0.05,1.03 0.14,2.08 0.59,3.07 0.31,0.68 0.61,1.38 0.92,2.11 7.1,17 13.73,48.49 13.8,48.82 0.66,3.15 3.43,5.3 6.51,5.3 0.46,0 0.91,-0.04 1.37,-0.14 3.61,-0.75 5.91,-4.29 5.16,-7.88 -0.23,-1.11 -4.43,-21.05 -9.93,-38.37 -1.8,-5.65 -3.73,-11.01 -5.71,-15.36 -1.11,-2.45 -3.53,-3.9 -6.06,-3.9"
       style="fill:#4e6676;fill-opacity:1;fill-rule:nonzero;stroke:none;stroke-width:0.1"
       id="path578" />
    <path
       d="m 2127.39,752.58 c 17,6.65 32.98,16.58 46.94,29.77 0.91,0.85 1.81,1.72 2.7,2.61 -14.59,-14.5 -31.54,-25.31 -49.64,-32.38 m 92.12,150.75 c -0.83,8.31 -2.38,16.57 -4.62,24.66 2.24,-8.09 3.79,-16.35 4.62,-24.66 m -44.41,91.03 c -0.29,0.28 -0.58,0.55 -0.87,0.83 -18.18,17.09 -39.57,28.63 -62.1,34.69 3.64,-0.98 7.25,-2.1 10.82,-3.36 18.53,-6.57 36.04,-16.99 51.28,-31.33 0.29,-0.28 0.58,-0.55 0.87,-0.83 m -187.28,12.42 c 23.22,17.01 50.44,26.34 78.05,27.89 -27.61,-1.55 -54.82,-10.88 -78.05,-27.89 m 124.26,23.11 c -0.02,0 -0.04,0.01 -0.06,0.02 0.02,-0.01 0.04,-0.02 0.06,-0.02"
       style="fill:#4e6676;fill-opacity:1;fill-rule:nonzero;stroke:none;stroke-width:0.1"
       id="path580" />
    <path
       d="m 1791.17,696.22 c -115.92,78.5 -106.47,186.47 -106.47,186.47 45.23,-25.51 90.06,-85.91 104,-132.28 1.01,-12.95 1.83,-24.19 2.32,-32.07 0.2,-3.26 0.24,-11.2 0.15,-22.12"
       style="fill:#23393d;fill-opacity:1;fill-rule:nonzero;stroke:none;stroke-width:0.1"
       id="path582" />
    <path
       d="m 1893.34,735.95 c 7.73,1.79 12.92,7.63 14,8.65 0,0 3.29,-0.22 -0.54,-7.25 -0.32,-0.59 -1.04,-2.1 -1.57,-3.17 -0.22,-0.44 0.08,-0.95 0.57,-0.98 4.46,-0.34 8.94,1.42 17.53,-0.37 1.19,-0.25 1.54,-3.09 1.49,-4.3 -0.08,-2.04 0.07,-4.34 -2.31,-7.48 -1.38,-1.83 -5.25,-3.79 -13.85,-7.25 -3.27,-1.32 -12.64,-0.33 -21.42,2.69 l -7.02,3.25 2.17,13.04 1.77,-0.37 c 2.8,-0.59 6.26,2.83 9.18,3.54"
       style="fill:#f2beb7;fill-opacity:1;fill-rule:nonzero;stroke:none;stroke-width:0.1"
       id="path584" />
    <path
       d="m 1718.71,931.05 c 0,0 -98.47,-18.75 28.97,-161.35 20.38,-22.8 130.5,-52.5 130.5,-52.5 0,0 11.17,9.5 5.54,17.2 0,0 -75.82,55.06 -92.5,63.81 -7.51,3.94 -29.13,87.88 -41.36,108.1 -12.24,20.21 -31.15,24.74 -31.15,24.74"
       style="fill:#30545d;fill-opacity:1;fill-rule:nonzero;stroke:none;stroke-width:0.1"
       id="path586" />
    <path
       d="m 1908.5,877.86 c 0,0 3.22,6.16 3.85,9.4 0.63,3.25 4.68,12.72 6.35,14.39 0.67,0.66 2.88,-0.2 3.14,-3.07 0.11,-1.25 -0.5,-3.52 -1.59,-6.23 -1.76,-4.4 -1.47,-10.38 -2.08,-12.37 -1.52,-4.96 -9.67,-2.12 -9.67,-2.12"
       style="fill:#f2beb7;fill-opacity:1;fill-rule:nonzero;stroke:none;stroke-width:0.1"
       id="path588" />
    <path
       d="m 2393.11,269.65 -48.09,0.01 -25.44,0.01 c -9.87,0 -17.94,8.08 -17.94,17.96 l 0.06,177.7 c 0,9.87 8.07,17.95 17.95,17.94 l 22.56,-0.01 50.96,-0.01 c 9.88,0 17.95,-8.08 17.95,-17.96 l -0.05,-177.69 c -0.01,-9.88 -8.08,-17.95 -17.96,-17.95"
       style="fill:#c4eaf4;fill-opacity:1;fill-rule:nonzero;stroke:none;stroke-width:0.1"
       id="path590" />
    <path
       d="m 2335.56,355.12 -4.76,-6.22 -5.74,-7.49 -0.07,-0.11 0.3,5.95 c 0.01,0.15 0,0.3 0,0.45 0.27,0.08 0.54,0.18 0.81,0.29 3.56,1.49 5.63,5.1 5.35,8.77 1.2,-0.88 2.61,-1.46 4.11,-1.64 z m 53.08,-45.15 -0.68,2.82 -0.13,0.54 c 0.95,-1.16 2.19,-2.08 3.59,-2.63 -0.96,-0.09 -1.9,-0.33 -2.78,-0.73 z m -18.51,2.05 0.48,-2.03 c -0.78,0.35 -1.6,0.58 -2.42,0.69 z m -41.23,-10.81 0.99,2.4 c 0.72,1.75 0.82,3.61 0.42,5.33 0.2,0.12 0.4,0.24 0.59,0.37 l 15.55,10.72 c 0.1,0.07 0.19,0.15 0.28,0.22 0.21,-0.85 0.55,-1.66 0.99,-2.4 l -2.77,-1.91 c -1.86,-1.28 -3.06,-3.17 -3.54,-5.23 -2.92,0.29 -5.92,-0.88 -7.83,-3.37 z m 15.82,37.04 3.38,4.42 c -0.05,-0.28 -0.09,-0.55 -0.11,-0.83 l -0.64,-8.11 c -1.27,1.14 -2.82,1.87 -4.45,2.14 z m 8.72,21.07 c -1.92,-2.9 -2.02,-6.8 0.07,-9.83 l 0.12,-0.16 c -0.64,-0.25 -1.24,-0.56 -1.8,-0.94 0.4,1.25 0.51,2.56 0.34,3.84 -0.29,2.22 -1.43,4.34 -3.34,5.8 l -0.03,0.02 z m 17.66,-33.16 c -1.86,1.54 -4.26,2.25 -6.61,1.99 l 0.19,2.36 c 0.41,-0.51 0.89,-0.98 1.43,-1.4 1.94,-1.48 4.32,-2.02 6.57,-1.7 -0.58,-0.36 -1.11,-0.78 -1.58,-1.25 z m -5.74,16.39 c -0.22,1.37 -0.76,2.64 -1.55,3.72 0.65,0.25 1.29,0.57 1.89,0.98 l 6.9,4.76 z m -1.9,27.79 2.21,-1.82 -2.28,-1.57 c 0.24,1.09 0.28,2.24 0.07,3.39 z m 19.93,-33.97 1.72,-12.58 c -0.75,1.51 -1.9,2.75 -3.29,3.6 -1.69,1.04 -3.74,1.51 -5.81,1.22 0.9,0.54 1.71,1.25 2.38,2.13 l 4.93,6.44 c 0.01,-0.27 0.03,-0.54 0.07,-0.81 z m -59.05,-7.98 0.16,3.21 c 0.55,-0.93 1.29,-1.78 2.2,-2.48 0.34,-0.26 0.7,-0.48 1.06,-0.68 l -4.01,-2.77 c 0.33,0.85 0.54,1.76 0.59,2.72 z m 78.97,-8.36 -1.28,9.35 -1.27,9.35 c -0.33,2.39 -1.6,4.43 -3.39,5.79 -1.79,1.36 -4.09,2.04 -6.48,1.71 -0.26,-0.03 -0.52,-0.09 -0.78,-0.14 0.88,1.26 1.37,2.69 1.51,4.14 1.62,-3.9 5.89,-6.17 10.12,-5.16 4.69,1.12 7.6,5.87 6.48,10.56 l -2.2,9.18 -2.19,9.19 c -0.56,2.34 -2.04,4.24 -3.95,5.41 -1.91,1.18 -4.27,1.63 -6.62,1.07 -4.68,-1.12 -7.6,-5.88 -6.48,-10.56 l 3.31,-13.84 c -0.5,0.72 -1.12,1.38 -1.85,1.94 -1.51,1.16 -3.29,1.74 -5.06,1.79 0.87,1.12 1.44,2.43 1.69,3.79 0.33,1.79 0.1,3.67 -0.72,5.38 0.99,3.28 0,7 -2.79,9.31 l -14.56,12.03 c -3.71,3.07 -9.26,2.54 -12.33,-1.18 -2.84,-3.43 -2.6,-8.43 0.39,-11.6 -0.77,0.01 -1.55,-0.08 -2.33,-0.3 l -9.11,-2.49 -9.11,-2.49 c -3.16,-0.87 -5.45,-3.39 -6.19,-6.39 l -0.95,2.29 -3.64,8.71 c -1.86,4.45 -7.02,6.57 -11.47,4.71 -4.45,-1.86 -6.56,-7.01 -4.71,-11.46 l 3.64,-8.71 2.33,-5.58 c -3.09,-1.23 -5.35,-4.17 -5.53,-7.7 l -0.48,-9.43 -0.48,-9.43 c -0.12,-2.4 0.76,-4.64 2.26,-6.31 1.51,-1.66 3.65,-2.76 6.05,-2.88 1.03,-0.05 2.03,0.09 2.96,0.37 -0.91,-1.82 -1.16,-3.92 -0.69,-5.92 -1.62,-0.94 -2.96,-2.38 -3.72,-4.22 l -3.61,-8.73 -3.6,-8.72 c -0.92,-2.23 -0.85,-4.63 0.02,-6.7 0.86,-2.08 2.5,-3.83 4.73,-4.75 3.48,-1.44 7.37,-0.44 9.79,2.18 0.57,-1.35 1.48,-2.58 2.72,-3.53 3.83,-2.93 9.35,-2.2 12.29,1.63 l 5.73,7.5 5.74,7.5 c 0.78,1.01 1.29,2.15 1.56,3.33 2,-0.2 4.07,0.27 5.84,1.5 l 1.51,1.03 -2.08,-2.72 -5.74,-7.49 c -2.93,-3.83 -2.2,-9.36 1.63,-12.29 3.83,-2.93 9.35,-2.19 12.28,1.63 l 5.74,7.5 5.74,7.5 c 0.08,0.09 0.14,0.2 0.21,0.3 0.46,-0.75 1.03,-1.41 1.68,-1.98 l -2.05,-2.67 c -2.93,-3.83 -2.19,-9.35 1.63,-12.29 3.83,-2.93 9.36,-2.19 12.29,1.64 l 11.48,14.99 c 1.46,1.91 2.01,4.25 1.71,6.48 -0.29,2.23 -1.43,4.34 -3.35,5.81 -0.65,0.5 -1.36,0.88 -2.09,1.17 0.11,0.01 0.21,0.01 0.32,0.03 4.78,0.65 8.15,5.09 7.5,9.87"
       style="fill:#30545d;fill-opacity:1;fill-rule:nonzero;stroke:none;stroke-width:0.1"
       id="path592" />
    <path
       d="m 2409.94,474.87 -68.3,0.02 -38.76,0.02 c -1.92,0 -3.49,1.57 -3.49,3.49 v 16.73 c 0,1.92 1.57,3.49 3.5,3.49 l 38.7,-0.01 h 0.01 l 68.35,-0.02 c 1.92,0 3.49,-1.57 3.49,-3.49 l -0.01,-16.73 c 0,-1.93 -1.57,-3.5 -3.49,-3.5"
       style="fill:#ee816f;fill-opacity:1;fill-rule:nonzero;stroke:none;stroke-width:0.1"
       id="path594" />
    <path
       d="m 2341.64,474.89 -38.76,0.02 c -1.92,0 -3.49,1.57 -3.49,3.49 v 16.73 c 0,1.92 1.57,3.49 3.5,3.49 l 38.7,-0.01 h 0.01 c 1.92,0 3.48,-1.57 3.48,-3.49 v -16.74 c 0,-1.9 -1.54,-3.46 -3.44,-3.49"
       style="fill:#eb594c;fill-opacity:1;fill-rule:nonzero;stroke:none;stroke-width:0.1"
       id="path596" />
    <path
       d="m 3192.61,262.06 h -1622.3 c -1.38,0 -2.5,1.12 -2.5,2.5 v 2.93 c 0,1.37 1.12,2.5 2.5,2.5 h 1622.3 c 1.38,0 2.5,-1.13 2.5,-2.5 v -2.93 c 0,-1.38 -1.12,-2.5 -2.5,-2.5"
       style="fill:#23393d;fill-opacity:1;fill-rule:nonzero;stroke:none;stroke-width:0.1"
       id="path598" />
  </g>
</svg>
