<svg xmlns="http://www.w3.org/2000/svg" viewBox="0 0 2517.91 1430.46"><defs><style>.cls-1{fill:#4ca676;}.cls-2{fill:#295a40;}.cls-3{fill:#ffeede;}.cls-4{fill:#736c6c;}.cls-5{fill:#d6eaff;}.cls-6{fill:#bddeff;}.cls-47,.cls-7{fill:#fff;}.cls-8{fill:#da5450;}.cls-16,.cls-17,.cls-18,.cls-20,.cls-26,.cls-28,.cls-34,.cls-35,.cls-36,.cls-40,.cls-41,.cls-46,.cls-49,.cls-51,.cls-53,.cls-57,.cls-60,.cls-61,.cls-62,.cls-63,.cls-64,.cls-66,.cls-9{fill:none;}.cls-9{stroke:#bddeff;stroke-width:6.06px;}.cls-18,.cls-20,.cls-26,.cls-28,.cls-34,.cls-35,.cls-46,.cls-49,.cls-51,.cls-53,.cls-66,.cls-9{stroke-miterlimit:10;}.cls-10{fill:#332b27;}.cls-11{fill:#315395;}.cls-12{fill:#255073;}.cls-13{fill:#2d628c;}.cls-14{fill:#a06753;}.cls-15{fill:#824c3a;}.cls-16{stroke:#fff1f0;stroke-width:0.77px;}.cls-16,.cls-17,.cls-36,.cls-40,.cls-41,.cls-57,.cls-60,.cls-61,.cls-62,.cls-63,.cls-64{stroke-linecap:round;stroke-linejoin:round;}.cls-17{stroke:#724638;stroke-width:0.45px;}.cls-18{stroke:#332b27;stroke-width:0.67px;}.cls-19{fill:#a14c53;}.cls-20,.cls-36,.cls-60,.cls-61,.cls-62{stroke:#fff;}.cls-20{stroke-width:0.77px;}.cls-21{fill:#deecff;}.cls-22{fill:#403630;}.cls-23{fill:#fdae97;}.cls-24{fill:#fff1f0;}.cls-25{fill:#e89780;}.cls-26{stroke:#e89780;stroke-width:0.5px;}.cls-27{fill:#323e61;}.cls-28{stroke:#323e61;stroke-width:0.63px;}.cls-29{fill:#597cff;}.cls-30{fill:#d9ab7e;}.cls-31{fill:#bf966f;}.cls-32{opacity:0.3;}.cls-33{fill:#cfe4ff;}.cls-34{stroke:#2c3447;stroke-width:0.87px;}.cls-35{stroke:#f7e7dc;stroke-width:0.71px;}.cls-36{stroke-width:0.35px;}.cls-37{fill:#ada3a3;}.cls-38{fill:#595454;}.cls-39{fill:#877f7f;}.cls-40{stroke:#877f7f;}.cls-40,.cls-41{stroke-width:6.8px;}.cls-41{stroke:#c7bbbb;}.cls-42{fill:#ba9875;}.cls-43{fill:#fae4aa;}.cls-44{fill:#facc9d;}.cls-45{fill:#eb726e;}.cls-46,.cls-51,.cls-53{stroke:#295a40;}.cls-46{stroke-width:1.32px;}.cls-47{opacity:0.5;}.cls-48{fill:#c2937a;}.cls-49,.cls-66{stroke:#c2937a;}.cls-49{stroke-width:0.77px;}.cls-50{fill:#993c39;}.cls-51{stroke-width:0.65px;}.cls-52{fill:#b34642;}.cls-53{stroke-width:2.58px;}.cls-54{fill:#fadc91;}.cls-55{fill:#f29357;}.cls-56{fill:#e66965;}.cls-57{stroke:#bf7445;stroke-width:0.97px;}.cls-58{fill:#60a2f7;}.cls-59{fill:#ffe9d4;}.cls-60{stroke-width:2.48px;}.cls-61{stroke-width:1.67px;}.cls-62{stroke-width:1.74px;}.cls-63,.cls-64{stroke:#f2bf8d;}.cls-63{stroke-width:1.68px;}.cls-64{stroke-width:1.24px;}.cls-65{fill:#f2bf8d;}.cls-66{stroke-width:3.27px;}</style></defs><g id="Layer_2" data-name="Layer 2"><g id="Ñëîé_1" data-name="Ñëîé 1"><path class="cls-1" d="M2176.84,1293.79c61.3-34.58,117.88-54.75,117.88-127.18s6.29-139.26,81.73-177.36S2422,883.54,2440.89,827s77-75.72,77-75.72a145.19,145.19,0,0,0-48,22.64c-14.53,10.77-27.82,24.67-36.64,41.82-9.42,17.08-13.38,36.25-16.54,53.88s-5.33,34.62-10.12,48.48a71.45,71.45,0,0,1-8.76,18.09,55.68,55.68,0,0,1-12.33,12.77A75.88,75.88,0,0,1,2369.3,958c-1.43.68-3.07,1.24-4.64,1.83l-2.35.88-3.43,1.5c-4.7,2.1-9.45,4.13-14.15,6.42a168.55,168.55,0,0,0-52,40.55c-15.06,17.4-25.79,38.18-33,58.56s-11.41,40.7-14.38,60c-1.49,9.65-2.65,19.06-3.69,28.28l-.74,6.87-.37,3.44c-.15.89-.34,1.3-.49,2l-.88,3.63-.39,1.79c-.17.54-.43,1-.63,1.49-.92,1.86-1.32,4.07-2.48,5.35-.47.74-.89,1.47-1.27,2.2s-1.1,1.16-1.55,1.76c-1.73,2.35-4.32,3.93-6.8,6-5.76,3.89-15.09,9.06-27.88,14.66s-28.32,11.64-45.26,18.78l-6.46,2.78-3.24,1.39-1.62.7c-.61.28-.88.34-1.91.89-3.45,1.79-6.93,3.6-10.33,5.56s-6.71,4.1-10,6.31a177.43,177.43,0,0,0-34.36,31c-19.62,22.94-32.11,48-40.58,72a285.29,285.29,0,0,0-10.09,36.23c-1.25,6.06-2.33,12.14-3.21,18.4-.45,3.12-.83,6.31-1.17,9.63l-.45,5.2-.18,2.89-.08,1.64c0,.76,0,1,0,2.59l89.42-3.14S2115.54,1328.37,2176.84,1293.79Z"/><path class="cls-2" d="M2440.89,827c-18.86,56.57,11,124.18-64.44,162.28s-81.73,104.93-81.73,177.36-56.58,92.6-117.88,127.18S2118.68,1418,2118.68,1418l88.94-3.12c0-.22-.1-.46-.15-.7-.2-1-.39-2.16-.53-3.36-.31-2.4-.52-5-.67-7.49a129,129,0,0,1,.08-14.75,103.92,103.92,0,0,1,3.53-21.51,54,54,0,0,1,2-6.08c.19-.43.42-.8.59-1.3s.51-.78.73-1.27c-.11,0,.59-.47.92-.72l1.22-.88,2.46-1.76,4.91-3.52c13.47-9.54,28.72-19.42,45.6-31.91,4.33-3.3,8.4-6.21,12.92-10l6.58-5.44c2.2-1.85,4.52-4,6.74-6.06a201.89,201.89,0,0,0,26.3-29.14c2-2.93,4-6,5.9-9a86.26,86.26,0,0,0,5.42-9.34q2.49-4.91,4.81-9.85a101.64,101.64,0,0,0,3.92-10.17c1.16-3.43,2.45-6.86,3.33-10.29s1.57-6.88,2.28-10.31c1.68-7,1.92-13.48,2.56-20.13.12-1.65.28-3.33.33-4.94l0-4.71-.24-9.37-.18-4.52-.33-3.06-.66-6.14c-.83-8.12-1.57-16.05-2.06-23.72-1-15.35-1.1-29.76.41-42.86s4.49-24.88,10-35.53a93.8,93.8,0,0,1,24.12-29.5c2.73-2.16,5.64-4.21,8.48-6.39.76-.56,1.32-1,2.25-1.67l3.37-2.21c2.24-1.48,4.47-2.9,6.66-4.59a131.33,131.33,0,0,0,24.61-22.87,109.42,109.42,0,0,0,17.4-29.65,121.21,121.21,0,0,0,7.35-31.22c2.12-20.21.34-38.13-.27-55s-.71-32.74,3.74-47.66c4-15.2,12.46-29.44,23.43-42a139.87,139.87,0,0,1,40.52-31S2459.76,770.4,2440.89,827Z"/><path class="cls-1" d="M2123.06,1058.6c105.66-65.94,127.28-103,121.33-186.73s26-139.22,89.33-167.42,107.94-67.46,85.62-129.12,24.5-112.06,70.39-126.55A121.9,121.9,0,0,0,2432,481.5a109.68,109.68,0,0,0-20.08,28.55,96.27,96.27,0,0,0-8.86,35c-.08,3.07-.23,6.16-.21,9.25l.86,9.21a60.61,60.61,0,0,0,1.61,9.1l1,4.52.51,2.27.37,1.86a75.29,75.29,0,0,1,1.53,27.16c-1.11,8.5-4.74,16-9.49,22.75a82.2,82.2,0,0,1-18.42,18.23A163.43,163.43,0,0,1,2356.6,664c-8.68,4.38-17.81,8.37-27.25,12l-7.09,2.71-8.72,3.71c-5.87,2.31-11.47,5.59-17.21,8.48-2.82,1.6-5.56,3.38-8.35,5.08a89.15,89.15,0,0,0-8.18,5.49l-8,5.93-7.57,6.6c-1.25,1.13-2.53,2.21-3.75,3.38L2257,721c-2.32,2.46-4.74,4.85-6.93,7.42-4.24,5.29-8.68,10.5-12.28,16.27-7.76,11.23-13.65,23.51-18.54,36-9.41,25.07-13.57,51-14.51,76.14l-.14,18.54c-.12,4.84,0,9.82-.28,14.5l-.45,6.91-.22,3.44-.44,3.21-.82,6.41c-.31,2.09-.84,3.95-1.22,5.93-3.24,15.8-9.58,26.11-19.23,37.4-10,11.12-24.52,22.27-40.66,32.93L2128.84,994l-13,7.77c-4.32,2.6-9,5.09-13.43,7.64l-6.75,3.81c-.46.24-1.35.79-2.17,1.3l-2.46,1.54-4.9,3.1c-26.18,16.74-47.73,41.57-61.84,67.74-14.44,26.31-22.2,53.7-26.87,80.13a393.58,393.58,0,0,0-5,77.69c.36,12.68,1.23,25.23,2.65,37.77.69,6.28,1.54,12.55,2.5,18.89.49,3.16,1,6.37,1.6,9.61l.94,5c.38,1.86.6,3.11,1.28,6l64-17S2017.4,1124.53,2123.06,1058.6Z"/><path class="cls-2" d="M2440.2,488.34a108.55,108.55,0,0,1,21.72-23,115,115,0,0,1,27.81-16.59c-45.89,14.49-92.7,64.89-70.39,126.55s-22.3,100.91-85.62,129.12-95.27,83.72-89.33,167.42-15.67,120.79-121.33,186.73S2065.37,1305,2065.37,1305l64.05-17a14.3,14.3,0,0,1-.67-2l-.86-3-1.68-6.43c-1.08-4.39-2.12-8.87-3-13.39-1.84-9.05-3.4-18.21-4.58-27.31a274.84,274.84,0,0,1-2-53c1.17-16.77,4.35-32.28,9.49-45.09a81.3,81.3,0,0,1,9.2-17.38,66,66,0,0,1,12.54-13.91l1.84-1.53.92-.79a10.42,10.42,0,0,1,1.23-1l7.05-5c4.7-3.38,9.37-6.58,14.07-10.12l14.09-10.59,14.09-11.27c18.64-15.58,37.83-32.87,54.62-56.38l6-9.18c1-1.56,2-3,2.9-4.66l2.63-5c1.71-3.35,3.49-6.64,5.05-10.06l4.19-10.57a91.69,91.69,0,0,0,3.47-10.72c1-3.6,2.12-7.22,2.8-10.79,1.28-7.14,2.76-14.38,3.13-21.22.27-3.44.67-7,.77-10.32l.12-10,0-5-.24-4.75-.51-9.47c-.42-6.23-1.18-12.15-1.77-18.21l-1.56-14.18c-1.49-18.52-.52-36.48,3.45-53,2.16-8.16,4.77-16.17,8.66-23.43,1.68-3.82,4.07-7.17,6.18-10.76,1.13-1.74,2.48-3.33,3.69-5l1.86-2.53c.67-.81,1.41-1.57,2.1-2.36l4.23-4.75,4.7-4.42a46.15,46.15,0,0,1,5-4.26c1.74-1.36,3.41-2.8,5.2-4.12,3.79-2.42,7.29-5.25,11.42-7.39l6-3.47,7.75-4.19c5.18-2.7,10.28-5.9,15.39-8.87,5-3.33,10.09-6.44,15-10.11l7.34-5.46,7.13-6c2.38-1.93,4.66-4.16,6.93-6.37s4.58-4.26,6.7-6.79a115.69,115.69,0,0,0,22-32.85c5.45-12.42,8.54-26.35,7.87-39.76a105.33,105.33,0,0,0-8.86-37.11l-2.8-7a41.16,41.16,0,0,1-2.4-6.75l-1.86-6.94c-.38-2.35-.64-4.72-1-7.1a77.18,77.18,0,0,1,2.47-29A96.29,96.29,0,0,1,2440.2,488.34Z"/><path class="cls-1" d="M1977.37,939.64c105.66-65.94,127.29-103,121.34-186.73s26-139.22,89.32-167.42S2296,518,2273.65,456.37s24.5-112.06,70.39-126.55a122,122,0,0,0-57.71,32.71,109.74,109.74,0,0,0-20.07,28.55,96,96,0,0,0-8.86,35.05c-.09,3.07-.23,6.16-.22,9.25l.86,9.21a60.61,60.61,0,0,0,1.61,9.1l1,4.52.52,2.27.36,1.86a75.29,75.29,0,0,1,1.53,27.16c-1.11,8.5-4.74,16-9.49,22.75a82,82,0,0,1-18.42,18.23A162.92,162.92,0,0,1,2210.91,545c-8.68,4.38-17.81,8.37-27.25,12l-7.09,2.71-8.72,3.71c-5.87,2.31-11.47,5.59-17.21,8.48-2.82,1.6-5.56,3.38-8.35,5.08a89.15,89.15,0,0,0-8.18,5.49l-8,5.93-7.57,6.6c-1.25,1.13-2.53,2.21-3.75,3.38l-3.51,3.64c-2.31,2.46-4.73,4.85-6.93,7.42-4.24,5.29-8.68,10.5-12.28,16.27-7.75,11.23-13.64,23.51-18.54,36-9.41,25.07-13.56,51-14.51,76.14l-.14,18.54c-.12,4.84,0,9.82-.28,14.5l-.45,6.91-.21,3.44-.44,3.21-.83,6.41c-.31,2.09-.84,4-1.22,5.92-3.23,15.8-9.58,26.12-19.23,37.41-10,11.12-24.51,22.27-40.65,32.93l-12.44,7.94-13,7.77c-4.32,2.6-9,5.09-13.43,7.64l-6.75,3.81c-.46.24-1.35.79-2.17,1.3l-2.46,1.54-4.9,3.1c-26.18,16.74-47.72,41.57-61.84,67.74-14.43,26.31-22.2,53.7-26.87,80.12a394.49,394.49,0,0,0-5,77.7c.36,12.68,1.24,25.23,2.65,37.77.69,6.27,1.54,12.55,2.5,18.88q.73,4.75,1.6,9.62l.94,5c.38,1.86.61,3.11,1.28,6l64-17S1871.71,1005.57,1977.37,939.64Z"/><path class="cls-2" d="M2294.51,369.38a108.8,108.8,0,0,1,21.72-23A115.16,115.16,0,0,1,2344,329.82c-45.89,14.49-92.7,64.89-70.39,126.55s-22.3,100.91-85.62,129.12-95.27,83.72-89.32,167.42S2083,873.7,1977.37,939.64,1919.69,1186,1919.69,1186l64-17a13.53,13.53,0,0,1-.66-2l-.87-3-1.68-6.43c-1.08-4.39-2.12-8.87-3-13.39-1.84-9.05-3.4-18.21-4.58-27.31a274.84,274.84,0,0,1-2-53c1.17-16.77,4.35-32.28,9.49-45.09a81.06,81.06,0,0,1,9.2-17.38,66.26,66.26,0,0,1,12.54-13.91l1.85-1.53.91-.79a10.42,10.42,0,0,1,1.23-1l7.05-5c4.7-3.38,9.37-6.58,14.08-10.12l14.08-10.59,14.09-11.27c18.65-15.58,37.84-32.87,54.62-56.38l6-9.18c1-1.56,2-3,2.9-4.66l2.63-5c1.71-3.35,3.49-6.64,5-10.06l4.19-10.57a89.84,89.84,0,0,0,3.47-10.72c.95-3.6,2.12-7.22,2.8-10.79,1.28-7.14,2.76-14.38,3.13-21.22.27-3.44.67-7,.78-10.32l.11-10,0-4.95-.24-4.75-.51-9.47c-.42-6.23-1.18-12.15-1.77-18.21L2137,736.74c-1.49-18.52-.52-36.48,3.45-53,2.16-8.16,4.77-16.17,8.66-23.43,1.68-3.82,4.07-7.17,6.18-10.76,1.14-1.74,2.48-3.33,3.69-5l1.86-2.53c.67-.81,1.41-1.57,2.1-2.36l4.23-4.75,4.71-4.42a45.09,45.09,0,0,1,5-4.26c1.74-1.36,3.41-2.8,5.2-4.12,3.8-2.42,7.3-5.25,11.42-7.39l6-3.47,7.76-4.19c5.17-2.7,10.28-5.9,15.38-8.87,5-3.33,10.09-6.44,15-10.11l7.35-5.46,7.12-6c2.38-1.93,4.66-4.16,6.93-6.37s4.58-4.26,6.7-6.79a115.69,115.69,0,0,0,22-32.85c5.45-12.42,8.54-26.35,7.87-39.76a105.33,105.33,0,0,0-8.86-37.11l-2.8-7a41.16,41.16,0,0,1-2.4-6.75l-1.86-6.94c-.38-2.35-.64-4.72-1-7.1a77.18,77.18,0,0,1,2.47-29A96.29,96.29,0,0,1,2294.51,369.38Z"/><path class="cls-2" d="M2253.65,1430.46H232.92a15,15,0,0,1-15-15h0a15,15,0,0,1,15-15H2253.65a15,15,0,0,1,15,15h0A15,15,0,0,1,2253.65,1430.46Z"/><path class="cls-3" d="M321.92,224a12.84,12.84,0,0,0-3-2.58c-1.09-.68-2.44-1.42-4-2.3A64.69,64.69,0,0,1,291,196.47L256,139.77a62.94,62.94,0,0,1-9.54-30c-.05-1.12-.07-2.18-.05-3.13a15.75,15.75,0,0,1,.41-3.52c1.48-5.64,3.67-5.79,3.53-10.41s-6.49-6.78-9.44-5.93-3.28,9.65-5.27,14.48a8.42,8.42,0,0,1-.88,1.59c-2.53,3.62-7.7,5.71-12.74,17.33-5.73,13.21-6.49,32.21-1.55,49.21s14.92,37.08,40.73,55c17.61,12.23,42.46,15.76,54.6,13.34,3.46-.69,5.89-1.87,6.82-3.47A8.7,8.7,0,0,0,321.92,224Z"/><path class="cls-3" d="M1448.07,111.24s-1.43,9.83,1.26,15.79c0,0,.16-14.19,1.68-16.88,0,0-.76,4.85.33,7.68,0,0,1.89-9.27,2.76-14.65a43.93,43.93,0,0,0,.17-10.15,39.13,39.13,0,0,0-.41-7.52,86.3,86.3,0,0,1-.6-17.08,19.48,19.48,0,0,1,7.3-14.3,18.31,18.31,0,0,0-3,5.58,35,35,0,0,0-1.66,7.46c0,.37-.09.75-.13,1.12-.07.76-.13,1.51-.18,2.27q0,.57-.06,1.14c-.06,1.13-.08,2.26-.09,3.38q0,.56,0,1.11c0,.74,0,1.47,0,2.18l0,1.06c0,1.41.1,2.75.15,4,0,.63.06,1.24.08,1.82,0,.3,0,.59,0,.88,0,1.09.07,2.08.06,2.93,0,.22,0,.42,0,.62,0,.39,0,.75-.06,1.07,0,.17,0,.38,0,.62,0,.46-.06,1-.09,1.72,0,.33,0,.69,0,1.08-.31,9.51-.14,51.49-.14,51.49a104.87,104.87,0,0,0,11,0,12.9,12.9,0,0,0-1.11-5.95s-.1.07-.15.11.1-.07.15-.11c-1-2.37-2.17-4.64-2.36-8-.34-5.94,1-13,3.8-17.92a28.74,28.74,0,0,0,4-12.09c.36.33.61.53.61.53a4,4,0,0,0-.11,1.71.47.47,0,0,0,.47.23c.46-.09,1.1-1.13,1.1-1.13a10.41,10.41,0,0,0,2.11.61c0,.66,0,1.25-.07,1.75-.25,4.19-2.69,8.31-1.26,10.66s7.39,13.44,8.74,19c.29,1.22.62,2.43.94,3.57,1.16,4,2.33,7.24,2.33,7.24h10a24,24,0,0,0-2.09-6.23c-1.17-2.46-2.54-4.64-3.53-6.68-1.77-3.61-2.94-15.28-2.1-19.23a72.73,72.73,0,0,0,2-13.37,3.83,3.83,0,0,0,.29-.28c4.81,3.37,12.82,7.93,18.07,8.47,6.6.67,21.83-3.69,25.08-2.46a4.5,4.5,0,0,1,.63.3c.14.17.28.36.42.51l.16-.15c2.87,2.07,5.63,7.39,5.73,12.1.11,5.37,2.58,9.86,2.35,13-.1,1.43-.11,4.48-.09,7.35h0c0,3.38.09,6.53.09,6.53h10.3a11.94,11.94,0,0,0-1.71-5.54h0a9.55,9.55,0,0,1-1.1-6.66c1.12-5.6,2-7.5,1.91-11.65-.1-3.72.52-11.4,1.62-13l.17.11c.09-.12.17-.26.26-.41s.28.13.34.34V109h0c.17,1.49-1.17,5.92-.08,9.11,1.35,3.92,3,7.73,3.47,11.65a95.12,95.12,0,0,1,.17,9.58c0,.29,0,.58,0,.86-.06,3-.15,5.45-.15,5.45s5.32.08,11.87,0a10.86,10.86,0,0,0-2-5.91c-.11-.21-.23-.42-.34-.64a8.46,8.46,0,0,1-.87-2.52c-.67-3.69-2.69-5.59-3.13-8.73s2.63-8.28,2.66-11.08-.76-7.84,3.84-11.09c2.13-1.51,4.83-5.54,7-10.65h0a49.34,49.34,0,0,0,3.88-14.84c3.4.22,6.52-.76,7.61-2.51a10.47,10.47,0,0,0,1.08-5.25h0c0-2.63-.29-5.37,0-7,.34-1.94,1.78-4.7,2.36-8.07,2.12,1.86,5.66,4.29,9.09,3.54,5.38-1.18,3.45-9.24-1.09-8.65s-6.13-2-8.91-3h0a10.37,10.37,0,0,0-1.16-1.79c6.16-2.47,5.29-7.84,5.29-7.84a12.65,12.65,0,0,1-7.26,6,13.94,13.94,0,0,0-10-2,14.59,14.59,0,0,0-6.26,2.34c-1.07-.27-6-1.75-8.31-6.38,0,0-1,5.86,6.17,8.16-.14.15-.3.3-.43.46s-.33.38-.48.58l-.18,0-1.46.23c-1.43.21-3.15.46-5.12.7-2.61.32-5.66.64-9.07.92-5.25.42-11.36.72-18,.72l-3.38,0c-1.15,0-2.31,0-3.48-.08l-2.87-.12c-1.92-.1-3.86-.22-5.79-.37l-2.9-.23c-2.68-.21-5.34-.47-8-.73l-2.46-.24-.51-.05c-9-.89-17.51-1.76-24.82-1.68-1.48,0-2.91.07-4.27.18a42,42,0,0,0-5.75.79,20.94,20.94,0,0,0-6.63,2.56c-.33.21-.64.44-.94.67a20,20,0,0,0-9.88,16.33,86.43,86.43,0,0,0,.59,17.16,48.77,48.77,0,0,1,.47,6.41c-1.69,3.64-4.32,6.21-5.44,10.2a56.32,56.32,0,0,0-1.34,10.84Z"/><path class="cls-3" d="M486.27,178.05V138.73h0l0-60.38h0L477,57.14V49.7a1.9,1.9,0,0,0-1.9-1.9l-47.28,0a1.9,1.9,0,0,0-1.9,1.9v7.43l-9.23,21.22h0l0,99.46v.24l51.35,0h18.2Z"/><path class="cls-3" d="M2020.62,110.56a1.65,1.65,0,0,0,.73-1.36v-34a7.29,7.29,0,0,1,.62-3,6,6,0,0,0,.49-2.37A37,37,0,0,0,2020,52.65a75.3,75.3,0,0,0-12.62-21.26,3,3,0,0,1-.78-1.86h.65v-11a1.7,1.7,0,0,0-1.7-1.7h-17.61a1.7,1.7,0,0,0-1.7,1.7v11h.62l-.24,1.09a3,3,0,0,1-.51.77,74.83,74.83,0,0,0-12.62,21.26,37,37,0,0,0-2.51,17.19,6,6,0,0,0,.49,2.37,7.29,7.29,0,0,1,.62,3v34a1.67,1.67,0,0,0,.72,1.36,2,2,0,0,1,.84,1.79,3.12,3.12,0,0,1-1.41,2.33,1.68,1.68,0,0,0-.68,1.34c0,5.21.07,31.11,0,40.24-.08,10.17-.48,17.56.71,22.24s3.1,8.42,10.81,8.5,11-3.57,13.66-3.57,6,3.65,13.67,3.57,9.61-3.81,10.8-8.5.8-12.07.72-22.24c-.07-9.13,0-35,0-40.24a1.68,1.68,0,0,0-.68-1.34,3.12,3.12,0,0,1-1.41-2.33A2,2,0,0,1,2020.62,110.56Z"/><path class="cls-3" d="M761.71,31.15c-155,49.65-422.81,279.9-470.86,528.12S516.5,756.78,702.55,866.1s30.39,166.11,131,309.89,470.68,269.87,544.92-13.42S1755.63,893.69,1878.06,970s427.65-272.72,265.78-522.61S1756.51,57.81,1520.85,195,1197.94-108.57,761.71,31.15Z"/><path class="cls-1" d="M371.13,1269.05c-63.72-36-122.54-56.92-122.54-132.22s-6.54-144.76-85-184.37-47.38-109.89-67-168.71S16.57,705,16.57,705a151.07,151.07,0,0,1,49.88,23.53c15.1,11.2,28.92,25.65,38.09,43.48,9.79,17.75,13.91,37.69,17.19,56s5.54,36,10.52,50.39a73.63,73.63,0,0,0,9.11,18.81,57.64,57.64,0,0,0,12.82,13.28A78.68,78.68,0,0,0,171.06,920c1.49.71,3.19,1.29,4.83,1.9l2.44.92,3.56,1.55c4.89,2.19,9.82,4.3,14.71,6.68a175.23,175.23,0,0,1,54,42.16c15.65,18.09,26.81,39.68,34.33,60.87s11.86,42.31,15,62.32c1.55,10,2.75,19.82,3.83,29.41l.77,7.14.39,3.57c.15.92.34,1.36.5,2l.92,3.77.4,1.86c.18.56.45,1,.66,1.55,1,1.93,1.37,4.23,2.57,5.56.49.77.94,1.53,1.33,2.29s1.14,1.21,1.6,1.83c1.81,2.45,4.5,4.08,7.08,6.21,6,4,15.68,9.42,29,15.24S378.39,1189,396,1196.42l6.72,2.89,3.36,1.45,1.69.72c.63.3.92.36,2,.93,3.6,1.86,7.21,3.74,10.74,5.78s7,4.26,10.35,6.56a184.75,184.75,0,0,1,35.73,32.17c20.39,23.85,33.38,49.86,42.19,74.87a296.27,296.27,0,0,1,10.48,37.67c1.3,6.3,2.42,12.62,3.34,19.12.47,3.25.86,6.57,1.22,10l.47,5.41.18,3,.08,1.71c0,.78.05,1,0,2.69l-93-3.26S434.86,1305,371.13,1269.05Z"/><path class="cls-2" d="M96.63,783.75c19.61,58.82-11.44,129.1,67,168.71s85,109.07,85,184.37,58.82,96.27,122.54,132.22,60.46,129.09,60.46,129.09l-92.46-3.24c.06-.24.11-.49.16-.73.21-1.06.41-2.25.55-3.5.32-2.49.54-5.14.7-7.78a132.35,132.35,0,0,0-.09-15.34,107.6,107.6,0,0,0-3.66-22.36,56.28,56.28,0,0,0-2.05-6.32c-.2-.45-.44-.83-.62-1.35a14.44,14.44,0,0,1-.75-1.32c.11,0-.61-.49-1-.75l-1.27-.91-2.55-1.83-5.11-3.66c-14-9.92-29.85-20.19-47.41-33.17-4.49-3.44-8.73-6.46-13.42-10.4l-6.85-5.66c-2.29-1.92-4.69-4.2-7-6.3a209.17,209.17,0,0,1-27.34-30.29c-2.11-3-4.14-6.21-6.13-9.33a89.7,89.7,0,0,1-5.64-9.72c-1.72-3.39-3.39-6.81-5-10.23a104.82,104.82,0,0,1-4.08-10.57c-1.2-3.57-2.54-7.14-3.46-10.7s-1.63-7.15-2.37-10.72c-1.74-7.23-2-14-2.66-20.93-.12-1.71-.3-3.46-.35-5.13l.06-4.9.24-9.73.2-4.71.34-3.18.68-6.38c.87-8.45,1.64-16.69,2.15-24.66,1-15.95,1.14-30.94-.43-44.55s-4.67-25.87-10.38-36.94a97.63,97.63,0,0,0-25.07-30.67c-2.85-2.24-5.87-4.38-8.82-6.64-.79-.58-1.38-1.07-2.35-1.74l-3.5-2.3c-2.33-1.53-4.64-3-6.92-4.77A136.46,136.46,0,0,1,112.39,951,113.76,113.76,0,0,1,94.3,920.14a125.63,125.63,0,0,1-7.64-32.46c-2.21-21-.36-39.63.28-57.2s.73-34-3.89-49.56c-4.14-15.79-13-30.59-24.36-43.68A145.25,145.25,0,0,0,16.57,705S77,724.94,96.63,783.75Z"/><path class="cls-1" d="M480.36,804.88c-4.61-130.27-26.95-169.26-106-207.58S261.7,501,269.19,428.82s-4.8-133.13-72.38-145.1S108,203,118.79,153.78a127.43,127.43,0,0,0-.47,69.42,114.75,114.75,0,0,0,15.41,33.12,100.57,100.57,0,0,0,27.16,26.35c2.73,1.67,5.46,3.42,8.28,5l8.8,4a62.88,62.88,0,0,0,9.08,3.3l4.63,1.45,2.33.72,1.88.64a78.75,78.75,0,0,1,25.43,12.8c7.13,5.45,12,12.65,15.68,20.49a86,86,0,0,1,6.9,26.23,169.71,169.71,0,0,1,.55,29.59c-.57,10.16-1.72,20.52-3.33,31l-1.24,7.85-1.19,9.84c-1,6.53-.93,13.33-1.3,20,0,3.39.16,6.81.25,10.22a91.52,91.52,0,0,0,.7,10.29l1.21,10.34,2,10.31c.36,1.72.68,3.45,1.1,5.16l1.47,5.09c1,3.39,1.92,6.83,3.11,10.17,2.58,6.6,5,13.35,8.34,19.63,6.13,12.9,14.19,24.66,22.94,35.6,17.82,21.63,39.2,39,61.47,52.93l16.75,9.82c4.32,2.63,8.88,5.16,13,7.83l6,4,3,2,2.68,2.08,5.39,4.09c1.73,1.38,3.14,2.83,4.73,4.21,12.64,11.19,18.68,22.33,23.88,37,4.88,14.86,7.4,33.87,8.63,54.07l.71,15.43.24,15.88c.1,5.27-.07,10.79-.08,16.17l-.08,8.11c0,.54,0,1.64,0,2.65l.11,3,.25,6.07c1.51,32.49,12.78,65,29.14,91.48,16.32,26.83,37.12,48.18,58.64,66.22a412.38,412.38,0,0,0,67.84,45.14c11.69,6.3,23.54,12.06,35.65,17.33,6,2.65,12.18,5.16,18.43,7.59q4.69,1.83,9.56,3.58l5,1.76c1.88.62,3.13,1.08,6.07,2l18-67S485,935.16,480.36,804.88Z"/><path class="cls-2" d="M128.8,219.36a113.91,113.91,0,0,1-9.49-31.7,120.41,120.41,0,0,1-.52-33.88c-10.83,49.18,10.43,118,78,129.94s79.87,72.94,72.38,145.1S295.36,559,374.38,597.3s101.37,77.31,106,207.58,193.32,181,193.32,181l18-67a14.59,14.59,0,0,1-2.16-.44l-3.15-.78-6.71-1.83c-4.55-1.31-9.15-2.71-13.74-4.24-9.16-3.06-18.28-6.43-27.15-10.12a286.66,286.66,0,0,1-49.18-25.87c-14.6-9.82-27-20.8-35.94-32.16a85.1,85.1,0,0,1-11-17.42,69.47,69.47,0,0,1-6.06-18.64l-.43-2.47-.24-1.25a11,11,0,0,1-.23-1.62l-.87-9c-.62-6-1.08-11.94-1.83-18.06l-2.25-18.31L527.93,738c-4.39-25-10-51.49-22.61-79l-5.19-10.24c-.91-1.69-1.7-3.39-2.71-5.06l-3.16-5c-2.14-3.3-4.19-6.63-6.48-9.83l-7.39-9.32a95.45,95.45,0,0,0-7.92-8.74c-2.76-2.75-5.44-5.7-8.33-8.19-5.8-4.88-11.6-10-17.6-13.92-3-2-6-4.25-9-6.09l-9-5.3-4.48-2.62-4.43-2.26L410.86,568c-5.88-2.86-11.64-5.27-17.45-7.9l-13.67-6c-17.58-8.33-33.37-18.58-46.29-30.83-6.28-6.22-12.17-12.77-16.73-20.09-2.59-3.52-4.38-7.43-6.54-11.23-1-1.94-1.71-4-2.62-6l-1.33-3c-.39-1-.68-2.09-1-3.14l-2.1-6.32-1.55-6.57a47.91,47.91,0,0,1-1.28-6.73c-.32-2.28-.76-4.54-1-6.86-.21-4.7-.94-9.36-.73-14.21v-7.26l.24-9.23c.26-6.09,0-12.4,0-18.58-.39-6.31-.57-12.52-1.34-18.9l-1.11-9.51L294.55,366c-.51-3.17-1.34-6.4-2.16-9.61s-1.47-6.39-2.65-9.62a121.51,121.51,0,0,0-18.29-37.15C263,298.23,252,288.15,239.5,281.76a110.28,110.28,0,0,0-38.3-11.35l-7.84-1.14a43.06,43.06,0,0,1-7.38-1.35L178.72,266c-2.33-.88-4.61-1.88-7-2.81a80.8,80.8,0,0,1-25-17.4A100.85,100.85,0,0,1,128.8,219.36Z"/><path class="cls-1" d="M448.64,1083.82C321.05,1006.46,294.57,962.37,300.41,862S267.12,695.63,190.83,662.81,60.48,583.67,86.26,509.45,55.19,375.58,0,358.94A141.18,141.18,0,0,1,37.07,373a140.06,140.06,0,0,1,32.56,24.2,131.39,131.39,0,0,1,24.49,33.89A115.29,115.29,0,0,1,105.28,473c.14,3.67.36,7.37.39,11.08l-.89,11c-.15,3.76-1.08,7.29-1.78,10.92l-1.13,5.44-.58,2.73-.41,2.23A89.93,89.93,0,0,0,99.47,549c1.46,10.17,5.92,19.09,11.72,27.12a98.35,98.35,0,0,0,22.34,21.55A195.6,195.6,0,0,0,162.8,614.7c10.46,5.11,21.46,9.75,32.83,14l8.53,3.14,10.5,4.31c7.06,2.68,13.83,6.51,20.75,9.89,3.4,1.87,6.71,4,10.08,6a105.14,105.14,0,0,1,9.88,6.45l9.66,7,9.16,7.8c1.52,1.32,3.07,2.6,4.54,4l4.27,4.31c2.81,2.91,5.75,5.73,8.42,8.78,5.16,6.27,10.56,12.44,14.95,19.3,9.47,13.33,16.72,27.95,22.77,42.8,11.66,29.89,17,60.93,18.55,91l.46,22.22c.21,5.79.2,11.75.56,17.36l.65,8.26.3,4.12.58,3.85,1.08,7.66c.41,2.5,1.07,4.72,1.56,7.08,4.12,18.88,11.88,31.14,23.62,44.51,12.12,13.17,29.7,26.31,49.2,38.83l15,9.31,15.73,9.12c5.21,3,10.83,6,16.21,8.94l8.15,4.46c.54.28,1.62.93,2.61,1.53l3,1.8,5.92,3.64c31.62,19.65,57.81,49.06,75.13,80.2,17.69,31.29,27.41,64,33.42,95.57a472.64,472.64,0,0,1,7.22,93c-.24,15.2-1.09,30.26-2.6,45.3-.72,7.53-1.65,15.05-2.7,22.66q-.81,5.7-1.77,11.54l-1,6c-.42,2.23-.67,3.74-1.44,7.15l-77-19.41S576.23,1161.19,448.64,1083.82Z"/><path class="cls-2" d="M59.94,405.56c-7.17-10.26-16.32-19.24-26.37-27.18A138,138,0,0,0,0,358.94c55.19,16.64,112.05,76.3,86.26,150.51S114.54,630,190.83,662.81,306.25,761.64,300.41,862s20.64,144.46,148.23,221.82,72.9,294.25,72.9,294.25l-77-19.42a16.8,16.8,0,0,0,.77-2.4l1-3.59,1.92-7.72c1.23-5.27,2.41-10.66,3.43-16.1,2.06-10.86,3.79-21.86,5.06-32.78a329.05,329.05,0,0,0,1.61-63.58c-1.66-20.07-5.7-38.61-12.06-53.87A97.67,97.67,0,0,0,435,1157.93a79.3,79.3,0,0,0-15.24-16.46l-2.24-1.82-1.11-.93a11.29,11.29,0,0,0-1.49-1.14l-8.51-5.9c-5.69-4-11.33-7.74-17-11.92l-17-12.46L355.27,1094c-22.57-18.37-45.82-38.79-66.29-66.7l-7.33-10.9c-1.18-1.85-2.44-3.59-3.55-5.54l-3.22-5.94c-2.11-4-4.29-7.89-6.2-12l-5.19-12.59a108.07,108.07,0,0,1-4.32-12.79c-1.2-4.3-2.66-8.62-3.52-12.89-1.65-8.53-3.53-17.19-4.09-25.37-.37-4.12-.9-8.34-1.08-12.36l-.29-11.9-.11-5.94.21-5.69.47-11.36c.41-7.47,1.22-14.57,1.84-21.84l1.65-17c1.5-22.21.07-43.71-4.95-63.46-2.72-9.75-6-19.3-10.73-27.94-2.08-4.55-5-8.52-7.57-12.8-1.39-2.06-3-3.94-4.51-6l-2.26-3c-.81-1-1.71-1.86-2.55-2.8l-5.14-5.63-5.71-5.22a55.26,55.26,0,0,0-6-5c-2.1-1.59-4.12-3.29-6.29-4.85-4.58-2.84-8.82-6.17-13.79-8.67l-7.25-4.06-9.35-4.91c-6.24-3.15-12.41-6.91-18.57-10.38-6.08-3.92-12.18-7.56-18.13-11.89l-8.89-6.42-8.62-7.11c-2.89-2.27-5.65-4.91-8.41-7.53s-5.55-5-8.12-8a138.7,138.7,0,0,1-26.91-39c-6.72-14.8-10.63-31.45-10-47.51a126.05,126.05,0,0,1,10-44.6L73.75,498a49.71,49.71,0,0,0,2.78-8.13l2.12-8.35c.42-2.81.69-5.65,1.08-8.52a92.6,92.6,0,0,0-3.41-34.73A115.63,115.63,0,0,0,59.94,405.56Z"/><path class="cls-4" d="M281.73,1301.94H2259.49a12.51,12.51,0,0,1,12.51,12.51v2.2a84,84,0,0,1-84,84H353.23a84,84,0,0,1-84-84v-2.2a12.51,12.51,0,0,1,12.51-12.51Z"/><path class="cls-4" d="M2217.38,432.66v869.28h-1895V432.66A177.87,177.87,0,0,1,500.28,254.77H2039.49A177.87,177.87,0,0,1,2217.38,432.66Z"/><path class="cls-5" d="M2150.89,432.66v869.28h-1762V432.66a111.57,111.57,0,0,1,111.4-111.4H2039.49A111.57,111.57,0,0,1,2150.89,432.66Z"/><path class="cls-6" d="M2084.38,432.64v66h-1629v-66a45,45,0,0,1,44.9-44.89H2039.48A45,45,0,0,1,2084.38,432.64Z"/><rect class="cls-7" x="455.39" y="498.68" width="1628.99" height="803.27"/><path class="cls-6" d="M890.77,564.17V915.88a11.39,11.39,0,0,1-11.45,11.39H510.89a11.38,11.38,0,0,1-11.39-11.39V564.17A28.16,28.16,0,0,1,527.68,536H862.6A28.15,28.15,0,0,1,890.77,564.17Z"/><path class="cls-7" d="M527.67,548H878.76a0,0,0,0,1,0,0V915.27a0,0,0,0,1,0,0H527.67a16.16,16.16,0,0,1-16.16-16.16V564.18A16.16,16.16,0,0,1,527.67,548Z" transform="translate(1426.78 36.51) rotate(90)"/><path class="cls-6" d="M890.77,564.17v42.05H499.5V564.17A28.16,28.16,0,0,1,527.68,536H862.6A28.15,28.15,0,0,1,890.77,564.17Z"/><circle class="cls-8" cx="525.62" cy="571.11" r="10.21"/><circle class="cls-7" cx="557.48" cy="571.11" r="10.21"/><circle class="cls-1" cx="589.34" cy="571.11" r="10.21"/><rect class="cls-5" x="584.06" y="630.98" width="222.15" height="11.03"/><rect class="cls-5" x="539.33" y="661.22" width="311.6" height="11.82"/><rect class="cls-5" x="539.33" y="693.3" width="311.6" height="11.82"/><rect class="cls-5" x="539.33" y="725.38" width="311.6" height="11.82"/><rect class="cls-5" x="539.33" y="757.45" width="311.6" height="11.82"/><rect class="cls-5" x="539.33" y="789.53" width="311.6" height="11.82"/><rect class="cls-5" x="539.33" y="821.61" width="311.6" height="11.82"/><rect class="cls-5" x="539.33" y="853.68" width="311.6" height="11.82"/><rect class="cls-5" x="539.33" y="885.76" width="311.6" height="11.82"/><path class="cls-6" d="M1360.19,541.77v275.7a8.93,8.93,0,0,1-9,8.92h-288.8a8.92,8.92,0,0,1-8.93-8.92V541.77a22.07,22.07,0,0,1,22.08-22.08h262.54A22.06,22.06,0,0,1,1360.19,541.77Z"/><path class="cls-7" d="M1075.57,529.11h275.21a0,0,0,0,1,0,0V817a0,0,0,0,1,0,0H1075.57a12.67,12.67,0,0,1-12.67-12.67V541.78A12.67,12.67,0,0,1,1075.57,529.11Z" transform="translate(1879.89 -533.79) rotate(90)"/><path class="cls-6" d="M1360.19,541.77v33h-306.7v-33a22.07,22.07,0,0,1,22.08-22.08h262.54A22.06,22.06,0,0,1,1360.19,541.77Z"/><circle class="cls-8" cx="1073.96" cy="547.21" r="8"/><circle class="cls-7" cx="1098.94" cy="547.21" r="8"/><circle class="cls-1" cx="1123.91" cy="547.21" r="8"/><rect class="cls-5" x="1119.77" y="594.14" width="174.14" height="8.64"/><rect class="cls-5" x="1084.71" y="617.85" width="244.26" height="9.26"/><rect class="cls-5" x="1084.71" y="642.99" width="244.26" height="9.26"/><rect class="cls-5" x="1084.71" y="668.13" width="244.26" height="9.26"/><rect class="cls-5" x="1084.71" y="693.28" width="244.26" height="9.26"/><rect class="cls-5" x="1084.71" y="718.42" width="244.26" height="9.26"/><rect class="cls-5" x="1084.71" y="743.57" width="244.26" height="9.26"/><rect class="cls-5" x="1084.71" y="768.71" width="244.26" height="9.26"/><rect class="cls-5" x="1084.71" y="793.86" width="244.26" height="9.26"/><path class="cls-6" d="M1237.7,986.88v280.73a9.32,9.32,0,0,1-9.58,9.09H919.76a9.31,9.31,0,0,1-9.53-9.09V986.88c0-12.43,10.54-22.49,23.58-22.49h280.31C1227.15,964.39,1237.7,974.45,1237.7,986.88Z"/><path class="cls-7" d="M940.6,966.87h279.93a0,0,0,0,1,0,0v307.37a0,0,0,0,1,0,0H940.6A13.21,13.21,0,0,1,927.39,1261V980.08A13.21,13.21,0,0,1,940.6,966.87Z" transform="translate(2194.51 46.59) rotate(90)"/><path class="cls-6" d="M1233.09,986.88v33.56H913V986.88c0-12.43,10.31-22.49,23.05-22.49h274C1222.79,964.39,1233.09,974.45,1233.09,986.88Z"/><circle class="cls-8" cx="937.16" cy="994.61" r="8.79"/><circle class="cls-7" cx="964.58" cy="994.61" r="8.79"/><circle class="cls-1" cx="992.01" cy="994.61" r="8.79"/><rect class="cls-5" x="983.03" y="1059.37" width="182.01" height="11.03"/><rect class="cls-5" x="935.11" y="1089.61" width="277.84" height="11.82"/><rect class="cls-5" x="935.11" y="1121.69" width="277.84" height="11.82"/><rect class="cls-5" x="935.11" y="1153.77" width="277.84" height="11.82"/><rect class="cls-5" x="935.11" y="1185.84" width="277.84" height="11.82"/><rect class="cls-5" x="935.11" y="1217.92" width="277.84" height="11.82"/><path class="cls-6" d="M1714.35,781.61v280.73a9.32,9.32,0,0,1-9.58,9.09H1396.41a9.31,9.31,0,0,1-9.53-9.09V781.61c0-12.43,10.54-22.49,23.58-22.49h280.31C1703.8,759.12,1714.35,769.18,1714.35,781.61Z"/><path class="cls-7" d="M1417.25,761.6h279.93a0,0,0,0,1,0,0V1069a0,0,0,0,1,0,0H1417.25a13.21,13.21,0,0,1-13.21-13.21V774.81A13.21,13.21,0,0,1,1417.25,761.6Z" transform="translate(2465.89 -635.33) rotate(90)"/><path class="cls-6" d="M1709.74,781.61v33.56h-320V781.61c0-12.43,10.31-22.49,23-22.49h274C1699.44,759.12,1709.74,769.18,1709.74,781.61Z"/><circle class="cls-8" cx="1413.81" cy="789.34" r="8.79" transform="translate(408.19 2058.46) rotate(-80.78)"/><circle class="cls-7" cx="1441.23" cy="789.34" r="8.79" transform="translate(431.22 2085.53) rotate(-80.78)"/><circle class="cls-1" cx="1468.66" cy="789.34" r="8.79" transform="translate(454.25 2112.6) rotate(-80.78)"/><rect class="cls-5" x="1459.68" y="854.1" width="182.01" height="11.03"/><rect class="cls-5" x="1411.76" y="884.34" width="277.84" height="11.82"/><rect class="cls-5" x="1411.76" y="916.42" width="277.84" height="11.82"/><rect class="cls-5" x="1411.76" y="948.5" width="277.84" height="11.82"/><rect class="cls-5" x="1411.76" y="980.57" width="277.84" height="11.82"/><rect class="cls-5" x="1411.76" y="1012.65" width="277.84" height="11.82"/><path class="cls-6" d="M2035.76,554V793.71a8,8,0,0,1-8.18,7.77H1764.27a8,8,0,0,1-8.14-7.77V554c0-10.61,9-19.2,20.13-19.2h239.37C2026.76,534.79,2035.76,543.38,2035.76,554Z"/><path class="cls-7" d="M1782.07,536.91h239a0,0,0,0,1,0,0V799.38a0,0,0,0,1,0,0h-239a11.28,11.28,0,0,1-11.28-11.28V548.19A11.28,11.28,0,0,1,1782.07,536.91Z" transform="translate(2564.08 -1227.8) rotate(90)"/><path class="cls-6" d="M2031.83,554v28.66h-273.3V554a19.43,19.43,0,0,1,19.68-19.2h233.94A19.43,19.43,0,0,1,2031.83,554Z"/><circle class="cls-8" cx="1779.12" cy="560.6" r="7.51"/><circle class="cls-7" cx="1802.54" cy="560.6" r="7.51"/><circle class="cls-1" cx="1825.96" cy="560.6" r="7.51"/><rect class="cls-5" x="1818.29" y="615.9" width="155.42" height="9.42"/><rect class="cls-5" x="1777.38" y="641.72" width="237.25" height="10.09"/><rect class="cls-5" x="1777.38" y="669.11" width="237.25" height="10.09"/><rect class="cls-5" x="1777.38" y="696.5" width="237.25" height="10.09"/><rect class="cls-5" x="1777.38" y="723.89" width="237.25" height="10.09"/><rect class="cls-5" x="1777.38" y="751.29" width="237.25" height="10.09"/><path class="cls-6" d="M2035.76,1039.63v239.72a8,8,0,0,1-8.18,7.76H1764.27a8,8,0,0,1-8.14-7.76V1039.63c0-10.62,9-19.21,20.13-19.21h239.37C2026.76,1020.42,2035.76,1029,2035.76,1039.63Z"/><path class="cls-7" d="M1782.07,1022.54h239a0,0,0,0,1,0,0V1285a0,0,0,0,1,0,0h-239a11.28,11.28,0,0,1-11.28-11.28V1033.82A11.28,11.28,0,0,1,1782.07,1022.54Z" transform="translate(3049.72 -742.17) rotate(90)"/><path class="cls-6" d="M2031.83,1039.63v28.66h-273.3v-28.66a19.44,19.44,0,0,1,19.68-19.21h233.94A19.44,19.44,0,0,1,2031.83,1039.63Z"/><circle class="cls-8" cx="1779.12" cy="1046.23" r="7.51"/><circle class="cls-7" cx="1802.54" cy="1046.23" r="7.51"/><circle class="cls-1" cx="1825.96" cy="1046.23" r="7.51"/><rect class="cls-5" x="1818.29" y="1101.53" width="155.42" height="9.42"/><rect class="cls-5" x="1777.38" y="1127.35" width="237.25" height="10.09"/><rect class="cls-5" x="1777.38" y="1154.74" width="237.25" height="10.09"/><rect class="cls-5" x="1777.38" y="1182.14" width="237.25" height="10.09"/><rect class="cls-5" x="1777.38" y="1209.53" width="237.25" height="10.09"/><rect class="cls-5" x="1777.38" y="1236.92" width="237.25" height="10.09"/><circle class="cls-8" cx="487.83" cy="443.21" r="11.9" transform="translate(-133.15 222.3) rotate(-22.67)"/><circle class="cls-7" cx="524.94" cy="443.21" r="11.9" transform="translate(-159.65 501.01) rotate(-45)"/><circle class="cls-1" cx="562.06" cy="443.21" r="11.9" transform="translate(-127.41 250.91) rotate(-22.67)"/><line class="cls-9" x1="890.77" y1="658.96" x2="1053.49" y2="658.96"/><polyline class="cls-9" points="1549.72 1071.43 1549.72 1192.23 1756.13 1192.23"/><polyline class="cls-9" points="695.14 927.27 695.14 1137.45 915.27 1137.45"/><polyline class="cls-9" points="885.86 875.44 1203.35 875.44 1203.35 922.33 1389.69 922.33"/><polyline class="cls-9" points="1354.76 672.77 1556.54 672.77 1556.54 773.34"/><polyline class="cls-9" points="1709.74 948.5 1903.72 948.5 1903.72 798.49"/><path class="cls-10" d="M1167,68.88h-66s-3.81-12.12,5.07-16.83,10.14-10.84,6.33-17.28-2.29-14.46,4.23-19.76,7.49-17.75,23.86-13.5c0,0,20.4,4.05,21.73,15.83s1.31,10.76,6.8,18-1.69,19.67,0,24.2a56.81,56.81,0,0,0,4.86,9.39Z"/><path class="cls-8" d="M1218.91,176.5h0a18.23,18.23,0,0,1-25-6l-39.31-64a18.23,18.23,0,0,1,6-25h0a18.23,18.23,0,0,1,25,6l39.31,64A18.22,18.22,0,0,1,1218.91,176.5Z"/><path class="cls-11" d="M1098.64,199.1s-5.3,6-7.4,10.93,23,2.2,23,2.2l-2.74-23.58Z"/><path class="cls-12" d="M1266.39,302.42h0a30.73,30.73,0,0,1-42.77,7l-95.68-68.63a30.73,30.73,0,0,1-7-42.77h0a30.75,30.75,0,0,1,42.77-7l95.68,68.63A30.73,30.73,0,0,1,1266.39,302.42Z"/><path class="cls-13" d="M1238.83,311h0a30.75,30.75,0,0,1-42.77,7l-95.68-68.63a30.74,30.74,0,0,1-7.05-42.77h0a30.73,30.73,0,0,1,42.77-7l95.69,68.62A30.75,30.75,0,0,1,1238.83,311Z"/><path class="cls-8" d="M1124.66,71.37l-31.81,15s7.07,81.31,7.8,90.27-2,22.48-2,22.48h76.23s-.92-43.87,4.2-56.12c3.47-8.29,5.85-13.34,3.84-22.85s-8.77-23.76-6.4-40.21L1157,72.06Z"/><polygon class="cls-14" points="1263.43 452.59 1257.58 431.94 1289.42 427.34 1292 448.16 1263.43 452.59"/><path class="cls-14" d="M1157,35.08v37a10.54,10.54,0,0,1-.09,1.18c-.38,3-2.33,10.77-12.38,10.66-9.18-.1-15.6-6.85-18.33-10.39a20.56,20.56,0,0,1-1.5-2.13l4.63-36.3Z"/><polygon class="cls-14" points="1155.82 448.99 1184.19 454.46 1190.2 436.47 1158.7 431.77 1155.82 448.99"/><polygon class="cls-15" points="1156.95 72.06 1140.51 51.06 1156.95 47.9 1156.95 72.06"/><path class="cls-14" d="M1160,53.56c-6.07,3.26-15.46,2.31-23-3.19s-26.19-27.8-9.32-42.79,31.55,2.15,32.57,5c0,0,2.07,10.42,3.52,17.77.38,1.86.7,3.52,1,4.77,0,.21.08.39.12.57C1166,41.48,1166.09,50.32,1160,53.56Z"/><path class="cls-8" d="M1061.11,186.6h0a18.22,18.22,0,0,1-8.57-24.23l32.39-67.8A18.24,18.24,0,0,1,1109.17,86h0a18.24,18.24,0,0,1,8.57,24.24l-32.4,67.8A18.22,18.22,0,0,1,1061.11,186.6Z"/><path class="cls-12" d="M1233.28,260.56a29.38,29.38,0,0,0-17.73,37.59L1254,436.47l47.36-7.37-28.8-142.59h0a29.36,29.36,0,0,0-39.25-25.95Z"/><polygon class="cls-10" points="1150.89 470.68 1164.32 473.05 1166.71 464.53 1172.49 474.49 1204.17 480.08 1184.19 454.46 1155.82 448.99 1150.89 470.68"/><path class="cls-13" d="M1220.51,262.47a29.4,29.4,0,0,0-34,23.84l-36.37,147.55,45.37,8.76,46.26-138.14h0a29.36,29.36,0,0,0-21.2-42Z"/><path class="cls-10" d="M1140.51,1.51S1157.89-1,1163.1,15.12l-8.7,2s-.89-5.71-5.75-7.4c0,0,3.89,3.78,3.59,8.21l-10,2.84s-1.56-6.08-1.45-8.62c0,0-1.44,6.08-.91,9.46l-6.8,3.25s1.08,5.75-1.14,8.28-4,12.4-4,12.4-11.09-19-9-26.1S1125.08.9,1140.51,1.51Z"/><polygon class="cls-10" points="1265.85 474.4 1279.31 472.23 1278.78 463.4 1287.51 470.92 1319.27 465.81 1292 448.16 1263.43 452.59 1265.85 474.4"/><path class="cls-16" d="M1160,216.77s50.37,35.51,60.1,42.28,24.11,14.42,24.66,30.69-15.89,52.44-15.89,52.44"/><path class="cls-14" d="M1131.71,38.2c1.73,3.2,2.1,5.39-.41,6.75a6.23,6.23,0,0,1-8.2-2.61c-1.74-3.2-1.1-6.9,1.41-8.26S1130,35,1131.71,38.2Z"/><path class="cls-17" d="M1124.61,37.6s4.25-1,5.28,2.58a4.44,4.44,0,0,0-3.71-.27"/><path class="cls-10" d="M1146.65,30.43c.25,1.39,1.17,2.38,2.06,2.23s1.43-1.41,1.19-2.79-1.16-2.38-2.06-2.23S1146.41,29.05,1146.65,30.43Z"/><ellipse class="cls-10" cx="1159.92" cy="27.02" rx="1.65" ry="2.55" transform="translate(12.53 199.15) rotate(-9.87)"/><path class="cls-7" d="M1153.92,45.71a3.19,3.19,0,0,0,3.64-2.65l-6.28-1A3.17,3.17,0,0,0,1153.92,45.71Z"/><path class="cls-18" d="M1143,28.2s2.18-3.94,5.63-3.25"/><path class="cls-18" d="M1157.75,22.73s2-.73,4.49,1.08"/><path class="cls-18" d="M1154.15,28.23s1.35,6.83,5.53,7a8.66,8.66,0,0,1-2.6,2.15"/><path class="cls-19" d="M1150.2,37.58c-.1,1.38-2.25,2.35-4.8,2.16s-4.55-1.45-4.45-2.83,2.25-2.34,4.81-2.16S1150.3,36.21,1150.2,37.58Z"/><path class="cls-19" d="M1164.77,35.15c-1.46.32-2.72.08-3.17-.76-.6-1.1.38-2.78,2.22-4C1164.2,32.24,1164.52,33.9,1164.77,35.15Z"/><path class="cls-14" d="M1192.26,165.84c-4.37-10.05-.68-21.42,8.19-25.27l80.88-23a59.81,59.81,0,0,0,7.54-4.68c5.08-3.87,20.09-12.76,21.35-10.59s-7.79,10.35-6.51,10.82,9.32-4,12.6-6.13,9.55-7.95,11.71-7.16,1.86,4.16,1.86,4.16,2.12-2.5,3.43-.88-1.07,6.33-1.07,6.33,1-1.51,2,.64-4.93,7.93-4.93,7.93a1.48,1.48,0,0,1,2.06,1.08c.53,1.73-8.09,8.46-15.59,11.17-6.7,2.42-23.25,6.39-26.73,7.21l-72.76,39.64C1207.45,181,1196.62,175.89,1192.26,165.84Z"/><line class="cls-16" x1="1099.17" y1="149.1" x2="1109.96" y2="126.52"/><path class="cls-20" d="M1132.28,45.94a2.68,2.68,0,1,1-3.09-2.18A2.69,2.69,0,0,1,1132.28,45.94Z"/><path class="cls-14" d="M1084.17,178.62c6.55-8.79,5.56-20.7-2.19-26.48l-73.47-40.9a59.07,59.07,0,0,1-6.27-6.29c-4-4.93-16.63-17-18.36-15.19s5.22,11.85,3.86,12-8.16-6-10.85-8.86-7.49-9.92-9.77-9.65-2.76,3.63-2.76,3.63-1.49-2.92-3.13-1.64-.42,6.4-.42,6.4-.66-1.71-2.12.16,3,8.85,3,8.85a1.47,1.47,0,0,0-2.24.58c-.92,1.57,5.93,10.09,12.61,14.44,6,3.89,21.17,11.55,24.37,13.15l61.76,55.24C1065.92,189.86,1077.62,187.4,1084.17,178.62Z"/><path class="cls-16" d="M1178.81,143.69s5.73-12.05,4.8-18.31-6-23.18-6.7-28.37"/><rect class="cls-21" x="1390.57" y="1057.67" width="73.25" height="108.31"/><path class="cls-10" d="M1390.57,998.57l-21.77,124.56a29.92,29.92,0,1,0,58.11,10l35-134.56Z"/><polygon class="cls-22" points="1489.41 997.42 1420.29 986.47 1425.77 1085.87 1434.22 1106.39 1437.64 1135.85 1497.41 1134.42 1489.41 997.42"/><path class="cls-10" d="M1367.38,1137.34a30.78,30.78,0,0,1-.33-4.21,29.93,29.93,0,0,1,59.86,0l-1.77,141.4-50.46,0Z"/><path class="cls-22" d="M1438,1131.64a29.92,29.92,0,0,1,34.24-24.88c16.32,2.59,24.2,10.81,25.19,27.66,2.28,39.1,5.53,139.49,5.53,139.49l-52.35-.14-12.95-137.92A30.11,30.11,0,0,1,1438,1131.64Z"/><polygon class="cls-8" points="1422.22 857.61 1390.57 871.86 1390.57 1000.36 1489.59 1000.36 1497.45 873.04 1454.59 855.25 1422.22 857.61"/><path class="cls-23" d="M1422.23,837.53V857.6s1.2,4.34,11.4,4.38,21-6.73,21-6.73l-3.15-43.9Z"/><path class="cls-23" d="M1255,888.45s-4.26-7.1-2.75-8.93,2.13-.11,2.13-.11-1.09-5.14.59-6.39,3.09,1.72,3.09,1.72.57-3.34,2.86-3.55,6.89,7,9.51,9.92,9.26,9.28,10.62,9.15-5.32-10.36-3.54-12.14,14,10.65,18,15.69a58.61,58.61,0,0,0,6.1,6.46L1289,917.55c-3.15-1.69-18.15-9.75-24-13.8-6.57-4.53-13.19-13.24-12.23-14.78A1.47,1.47,0,0,1,1255,888.45Z"/><path class="cls-24" d="M1374,943.15c7.6,6,8.27,17.93,1.48,26.54s-18.55,10.76-26.15,4.77l-63.77-54.53,16.58-22.59Z"/><polygon class="cls-25" points="1422.22 854.85 1443.07 833.2 1422.22 832.93 1422.22 854.85"/><path class="cls-23" d="M1425.72,792.11s-3.86,11.69-6.61,20l-2.27,6.85c-1.79,5.42-2.93,13.95,2.55,17.83s14.67,4.1,22.6-.3,30.35-28.75,15.85-45.28S1427.07,789.45,1425.72,792.11Z"/><path class="cls-24" d="M1349.94,975.42h0a20.76,20.76,0,0,0,28.21-7.78l37.33-65.81a20.76,20.76,0,0,0-7.79-28.21h0a20.75,20.75,0,0,0-28.21,7.79l-37.33,65.81A20.75,20.75,0,0,0,1349.94,975.42Z"/><path class="cls-10" d="M1456.3,789.58s-18.45-17.26-25.66-12.32.39,10,.39,10-10-4.67-11.89,2.47,27.24,6.18,27.24,6.18-9.91,1.05-6,5.8,11,2.6,11,2.6,4,4.46-1.1,17.17,3.11,17.59,3.11,17.59,4.17-19.42,9.7-23.41S1469.55,790.32,1456.3,789.58Z"/><path class="cls-24" d="M1454.59,855.25s-11.94,31.33-10.58,83.49,0,227.24,0,227.24h59.41l-6-292.94Z"/><path class="cls-23" d="M1448.11,824.1c-3.21,2.61-4.55,4.75-2.5,7.27a7.08,7.08,0,0,0,9.75.81c3.21-2.61,4.16-6.76,2.11-9.28S1451.32,821.49,1448.11,824.1Z"/><path class="cls-26" d="M1455,826.09s-2.54-1.28-5.5,1.53a10.55,10.55,0,0,1,3.73,1.24"/><path class="cls-27" d="M1436.14,812.54c-.42,1.25-1.42,2.05-2.23,1.78s-1.13-1.5-.72-2.76,1.41-2,2.23-1.78S1436.55,811.28,1436.14,812.54Z"/><path class="cls-28" d="M1431.21,826.62a7.44,7.44,0,0,1-8.79.71"/><path class="cls-28" d="M1430.34,811.47l-5.43,7.11a2,2,0,0,0,0,2.42l1.77,2.22"/><path class="cls-28" d="M1440.44,809.66s-2.38-3.19-5.79-2.79"/><path class="cls-27" d="M1420.94,807.51c-.41,1.25-.09,2.49.72,2.76s1.81-.53,2.23-1.79.09-2.49-.72-2.76S1421.36,806.25,1420.94,807.51Z"/><path class="cls-28" d="M1421.61,803.29a4.93,4.93,0,0,1,5.32,1"/><path class="cls-24" d="M1513.78,985.35h0a20.75,20.75,0,0,0,14.86-25.21l-18.91-73.25A20.77,20.77,0,0,0,1484.52,872h0a20.77,20.77,0,0,0-14.87,25.21l18.92,73.26A20.75,20.75,0,0,0,1513.78,985.35Z"/><path class="cls-25" d="M1431.79,820.19c0,1.28,2.08,2.31,4.63,2.31s4.61-1.06,4.6-2.34-2.07-2.31-4.62-2.31S1431.79,818.91,1431.79,820.19Z"/><path class="cls-25" d="M1419.11,812.09l-1.47,4.45c1.8.85,3.51.83,4.1-.06C1422.4,815.42,1421.23,813.45,1419.11,812.09Z"/><polygon class="cls-24" points="1422.23 857.61 1402.89 1165.98 1360.13 1165.98 1390.57 871.86 1422.23 857.61"/><path class="cls-29" d="M1275,767.81a84,84,0,1,0-6.08,118.58A84,84,0,0,0,1275,767.81ZM1265.86,883a79.38,79.38,0,1,1,5.73-112.13A79.38,79.38,0,0,1,1265.86,883Z"/><path class="cls-30" d="M1281.65,761.79A92.94,92.94,0,1,0,1275,893.06,93,93,0,0,0,1281.65,761.79Zm-12.74,124.6A83.94,83.94,0,1,1,1275,767.81,83.93,83.93,0,0,1,1268.91,886.39Z"/><path class="cls-31" d="M1275,767.81a84,84,0,1,0-6.08,118.58A84,84,0,0,0,1275,767.81ZM1265.86,883a79.38,79.38,0,1,1,5.73-112.13A79.38,79.38,0,0,1,1265.86,883Z"/><g class="cls-32"><path class="cls-33" d="M1265.86,883a79.38,79.38,0,1,1,5.73-112.13A79.38,79.38,0,0,1,1265.86,883Z"/></g><polygon class="cls-30" points="1324.01 936.96 1318.6 942.12 1268.87 887.02 1274.58 882.2 1324.01 936.96"/><path class="cls-30" d="M1430.33,1060.79l-.06.06a8.87,8.87,0,0,1-12.56-.65L1314.57,946l4-3.85,2.46-2.36,3-2.8,3.43-3.27,103.47,114.6A8.86,8.86,0,0,1,1430.33,1060.79Z"/><path class="cls-31" d="M1430.33,1060.79a.45.45,0,0,1-.09-.1L1321.05,939.76l3-2.8,3.43-3.27,103.47,114.6A8.86,8.86,0,0,1,1430.33,1060.79Z"/><polygon class="cls-23" points="1421.19 1286.81 1420.7 1274.53 1379.75 1274.5 1380.09 1286.81 1421.19 1286.81"/><polygon class="cls-25" points="1380.04 1283.1 1420.7 1274.53 1379.75 1274.5 1380.04 1283.1"/><polygon class="cls-23" points="1498.99 1286.81 1498.99 1273.91 1459.91 1273.91 1461.23 1286.81 1498.99 1286.81"/><polygon class="cls-25" points="1460.72 1281.84 1498.99 1273.91 1459.91 1273.91 1460.72 1281.84"/><line class="cls-34" x1="1386.4" y1="912.16" x2="1381.14" y2="962.96"/><line class="cls-34" x1="1477.12" y1="926.15" x2="1485.31" y2="957.84"/><path class="cls-23" d="M1395,1033.82l7.9,1.45a2.37,2.37,0,0,0,2.65-1.49l3.56-9.47-11.83,8.46a1.64,1.64,0,0,1-2.18-.26l-.8-.92a1.63,1.63,0,0,1,.1-2.24l18.33-17.76,14.21-4.74,17.07,22.93c-6.29,4.06-19,18.53-23.52,23.86a3.76,3.76,0,0,1-4.15,1.08l-14.11-5.11a8.29,8.29,0,0,1-4.86-4.67l-3.8-9.35A1.3,1.3,0,0,1,1395,1033.82Z"/><path class="cls-24" d="M1497.28,947.81c7.63-6.06,19.48-3.95,26.35,4.69s6.25,20.67-1.38,26.73L1444.61,1033l-21.14-28.25C1423.43,1004.68,1497.28,947.81,1497.28,947.81Z"/><line class="cls-34" x1="1485.13" y1="957.17" x2="1444.56" y2="988.43"/><line class="cls-34" x1="1499.15" y1="995.23" x2="1469.05" y2="1016.06"/><path class="cls-35" d="M1431.21,811.23c-1.08,2.37-.4,5,1.51,5.87s4.32-.36,5.4-2.73.4-5-1.51-5.86S1432.29,808.86,1431.21,811.23Z"/><path class="cls-35" d="M1419.87,807.52c-1,2.24-.47,4.67,1.22,5.44s3.88-.43,4.9-2.67.47-4.67-1.22-5.44S1420.89,805.28,1419.87,807.52Z"/><line class="cls-35" x1="1431.43" y1="810.81" x2="1426.42" y2="808.91"/><path class="cls-10" d="M1422.48,1303.91h-57.36l.07-2.55a10.34,10.34,0,0,1,.07-1.11,14.89,14.89,0,0,1,14.84-13.44h41.1l1,13.44Z"/><path class="cls-7" d="M1422.48,1303.91h-57.36l.07-2.55a10.34,10.34,0,0,1,.07-1.11h57Z"/><path class="cls-36" d="M1381.57,1291.05s-1.25-5.46-4.33-4,4.14,4.18,4.14,4.18l-4.3,3"/><path class="cls-36" d="M1381.57,1291.05s1.25-5.46,4.34-4-4.14,4.18-4.14,4.18l4.29,3"/><path class="cls-10" d="M1515.28,1303.91H1462.4l-.27-3.66-.91-13.44H1499a16.14,16.14,0,0,1,15.92,13.44,9.19,9.19,0,0,1,.24,1.68Z"/><path class="cls-7" d="M1515.28,1303.91H1462.4l-.27-3.66h52.78a9.19,9.19,0,0,1,.24,1.68Z"/><path class="cls-36" d="M1502,1291.05s-1.25-5.46-4.33-4,4.14,4.18,4.14,4.18l-4.3,3"/><path class="cls-36" d="M1502,1291.05s1.25-5.46,4.34-4-4.14,4.18-4.14,4.18l4.29,3"/><path class="cls-4" d="M367.28,696.34c0,184.76,88.93,346.5,234.52,415.78l12.27-25.82,30.34-63.73c-109.51-52.13-178-181.77-178-326.23,0-194.12,127.9-352,285.12-352V245.15c-1,0-1.91,0-2.86,0C645.43,246,549,294.06,476.82,380.61,406.18,465.36,367.28,577.48,367.28,696.34Z"/><path class="cls-37" d="M367.28,696.34c0,184.76,88.93,346.5,234.52,415.78l12.27-25.82c-39-20.2-79.81-49.71-113.85-92.8-99.58-126-119.81-311-54.76-490.09S717.29,276.65,717.29,276.65h33.9l-2.48-31.46C645.43,246,549,294.06,476.82,380.61,406.18,465.36,367.28,577.48,367.28,696.34Z"/><path class="cls-38" d="M689.94,329.38v-70a20.34,20.34,0,0,1,20.34-20.34H744.2V346.86a54.55,54.55,0,1,1-54.26-17.48Z"/><path class="cls-4" d="M753.74,173.23v26.35h80.77V173.23a9.27,9.27,0,0,0-9.28-9.25H763A9.27,9.27,0,0,0,753.74,173.23Z"/><path class="cls-4" d="M734.67,207.68v39.65H868.38V207.68a8.1,8.1,0,0,0-8.12-8.1H742.76A8.07,8.07,0,0,0,734.67,207.68Z"/><path class="cls-37" d="M786.77,173.23v26.35h47.74V173.23a9.27,9.27,0,0,0-9.28-9.25H796A9.25,9.25,0,0,0,786.77,173.23Z"/><path class="cls-37" d="M767.65,207.68v39.65H868.38V207.68a8.1,8.1,0,0,0-8.12-8.1H775.75A8.08,8.08,0,0,0,767.65,207.68Z"/><path class="cls-4" d="M702.8,257v247.3a9.64,9.64,0,0,0,9.66,9.62H921.23a9.64,9.64,0,0,0,9.66-9.62V257a9.65,9.65,0,0,0-9.66-9.63H712.46A9.65,9.65,0,0,0,702.8,257Z"/><path class="cls-37" d="M739.15,247.33V467.94a9.61,9.61,0,0,0,9.63,9.62H930.89V257a9.65,9.65,0,0,0-9.66-9.63Z"/><path class="cls-4" d="M765.19,635.45H791a4.82,4.82,0,0,0,4.78-4.24l2.89-23.83h-41.1l2.89,23.83A4.81,4.81,0,0,0,765.19,635.45Z"/><rect class="cls-38" x="725.1" y="513.89" width="128.51" height="25.18" transform="translate(1578.71 1052.97) rotate(180)"/><path class="cls-38" d="M751.79,616.64h52.85a4.83,4.83,0,0,0,4.73-3.89l6-30.84H741l6,30.84A4.82,4.82,0,0,0,751.79,616.64Z"/><path class="cls-37" d="M735.9,575.25H964a4.8,4.8,0,0,0,4.73-3.93l5-26.54a4.82,4.82,0,0,0-4.73-5.71H725.1l6.07,32.25A4.8,4.8,0,0,0,735.9,575.25Z"/><path class="cls-4" d="M905.85,635.45h25.76a4.81,4.81,0,0,0,4.78-4.24l2.89-23.83h-41.1l2.89,23.83A4.82,4.82,0,0,0,905.85,635.45Z"/><path class="cls-38" d="M892.45,616.64H945.3a4.83,4.83,0,0,0,4.73-3.89l6-30.84H881.68l6,30.84A4.83,4.83,0,0,0,892.45,616.64Z"/><rect class="cls-4" x="735.87" y="575.25" width="227.18" height="13.31" rx="3.86" transform="translate(1698.92 1163.82) rotate(180)"/><path class="cls-4" d="M727.12,1017.57v19.59H941.88v-19.59a9.64,9.64,0,0,0-9.63-9.62H736.77A9.64,9.64,0,0,0,727.12,1017.57Z"/><path class="cls-39" d="M739.05,1008v7.57a12.84,12.84,0,0,0,12.84,12.84h190v-10.82a9.63,9.63,0,0,0-9.63-9.62H739.09Z"/><path class="cls-38" d="M530.12,1251.07H973.92a0,0,0,0,1,0,0V1294a8.77,8.77,0,0,1-8.77,8.77H538.89a8.77,8.77,0,0,1-8.77-8.77v-42.94A0,0,0,0,1,530.12,1251.07Z" transform="translate(1504.04 2553.84) rotate(180)"/><path class="cls-38" d="M605.57,1048.83H973.15a6.94,6.94,0,0,0,6.94-6.94h0a6.94,6.94,0,0,0-6.94-6.94H605.57Z"/><path class="cls-4" d="M574,1251.07H755.49L631,992.8a30,30,0,0,0-27-17h0a30,30,0,0,0-30,30Z"/><path class="cls-37" d="M594.89,1058a24.5,24.5,0,0,0,34.42-4.91,24.12,24.12,0,0,0,2.83-4.82,24.59,24.59,0,0,0-38.31-28.74,25,25,0,0,0-6.68,8.9A24.59,24.59,0,0,0,594.89,1058Z"/><path class="cls-4" d="M587.15,1028.43l38.31,28.75a24.6,24.6,0,0,0,3.85-4.09,24.12,24.12,0,0,0,2.83-4.82l-38.31-28.74a25,25,0,0,0-6.68,8.9Z"/><path class="cls-37" d="M671.07,392.62A13.23,13.23,0,0,0,689.61,390a13.92,13.92,0,0,0,1.52-2.59,13.25,13.25,0,0,0-20.63-15.49,13.49,13.49,0,0,0-2.07,2.19,13.9,13.9,0,0,0-1.53,2.61A13.24,13.24,0,0,0,671.07,392.62Z"/><path class="cls-4" d="M666.9,376.69l20.63,15.48a13.22,13.22,0,0,0,2.08-2.2,13.92,13.92,0,0,0,1.52-2.59L670.5,371.89a13.49,13.49,0,0,0-2.07,2.19A13.9,13.9,0,0,0,666.9,376.69Z"/><path class="cls-4" d="M773.55,1218.51H952a0,0,0,0,1,0,0v20.4a12.16,12.16,0,0,1-12.16,12.16H785.71a12.16,12.16,0,0,1-12.16-12.16v-20.4A0,0,0,0,1,773.55,1218.51Z" transform="translate(1725.53 2469.57) rotate(180)"/><path class="cls-37" d="M807.2,1165.11H918.34a0,0,0,0,1,0,0v40.38a13,13,0,0,1-13,13H820.22a13,13,0,0,1-13-13v-40.38A0,0,0,0,1,807.2,1165.11Z" transform="translate(1725.53 2383.61) rotate(180)"/><line class="cls-40" x1="658.45" y1="1094.38" x2="648.98" y2="1074.95"/><line class="cls-40" x1="725.67" y1="1232.36" x2="665.42" y2="1108.68"/><line class="cls-41" x1="910.63" y1="319.97" x2="910.63" y2="453.78"/><line class="cls-41" x1="910.63" y1="286.54" x2="910.63" y2="303.62"/><path class="cls-41" d="M411.41,526.29a492.23,492.23,0,0,0-28.07,145.45c-3.8,92.92,19.42,172.64,42.12,227.12"/><path class="cls-41" d="M486.42,392.17s-19,20.6-40.72,58.93"/><path class="cls-5" d="M2070.08,626.84H2212.8a0,0,0,0,1,0,0v660.91a71.36,71.36,0,0,1-71.36,71.36h0a71.36,71.36,0,0,1-71.36-71.36V626.84a0,0,0,0,1,0,0Z"/><rect class="cls-6" x="2054.23" y="614.02" width="174.43" height="32.92" rx="14.02"/><path class="cls-2" d="M2138.57,734.61s15.47-23.53,17.12-33.87,6.15-20.31,10.19-23a24.91,24.91,0,0,0-17.26,17.37c-4,14.4-19.27,38.5-24.52,42.1S2138.57,734.61,2138.57,734.61Z"/><path class="cls-2" d="M2173.91,752.47s9.78-26.41,17.12-33.86,12.71-17,12.45-21.82a24.9,24.9,0,0,1-3.76,24.19c-9.2,11.78-19.57,38.35-19.36,44.71S2173.91,752.47,2173.91,752.47Z"/><path class="cls-42" d="M2112.38,853l-3.54,14.17s-10.56,8.17-28.91-7.41l12.12-24Z"/><path class="cls-43" d="M2098.29,855.33c29,14.65,114.5-139.14,82-159.29C2151.71,678.37,2061.84,836.9,2098.29,855.33Z"/><path class="cls-44" d="M2180.21,713.13c-.43.85-1.82,1-3.1.36s-2-1.86-1.55-2.71,1.81-1,3.1-.35S2180.63,712.29,2180.21,713.13Z"/><path class="cls-44" d="M2173.66,707.81c-.43.84-1.81,1-3.1.35s-2-1.86-1.55-2.7,1.82-1,3.1-.36S2174.09,707,2173.66,707.81Z"/><path class="cls-44" d="M2178.37,719c-.47.93-2,1.1-3.41.39s-2.18-2.05-1.71-3,2-1.11,3.42-.39S2178.84,718,2178.37,719Z"/><path class="cls-44" d="M2170.85,713.94c-.47.93-2,1.11-3.41.4s-2.17-2.05-1.7-3,2-1.11,3.41-.39S2171.32,713,2170.85,713.94Z"/><path class="cls-44" d="M2176.11,725.55c-.47.93-2,1.11-3.41.39s-2.17-2-1.7-3,2-1.11,3.41-.4S2176.58,724.62,2176.11,725.55Z"/><path class="cls-44" d="M2167.73,720.11c-.47.94-2,1.11-3.41.4s-2.17-2-1.7-3,2-1.11,3.41-.39S2168.2,719.18,2167.73,720.11Z"/><path class="cls-44" d="M2174.22,732.28c-.54,1.07-2.29,1.27-3.92.45s-2.5-2.36-2-3.43,2.3-1.27,3.92-.45S2174.76,731.21,2174.22,732.28Z"/><path class="cls-44" d="M2164.27,725.83c-.54,1.07-2.3,1.27-3.92.45s-2.5-2.36-2-3.43,2.29-1.27,3.92-.45S2164.81,724.76,2164.27,725.83Z"/><path class="cls-44" d="M2171.33,738.81c-.54,1.07-2.29,1.28-3.92.45s-2.5-2.35-2-3.42,2.29-1.27,3.92-.45S2171.87,737.74,2171.33,738.81Z"/><path class="cls-44" d="M2143.88,794.19c-.83,1.64-3.53,1.95-6,.69s-3.85-3.62-3-5.26,3.53-2,6-.69S2144.71,792.54,2143.88,794.19Z"/><path class="cls-44" d="M2128.27,795.88c-.83,1.64-3.53,2-6,.69s-3.85-3.62-3-5.26,3.53-2,6-.7S2129.1,794.23,2128.27,795.88Z"/><path class="cls-44" d="M2132.46,785.41c-.83,1.65-3.53,2-6,.69s-3.85-3.61-3-5.26,3.53-2,6-.69S2133.29,783.77,2132.46,785.41Z"/><path class="cls-44" d="M2151.8,784.05c-.83,1.64-3.53,2-6,.69s-3.84-3.62-3-5.26,3.53-2,6-.69S2152.63,782.4,2151.8,784.05Z"/><path class="cls-44" d="M2138.4,775.83c-.83,1.65-3.53,2-6,.7s-3.85-3.62-3-5.27,3.53-2,6-.69S2139.23,774.19,2138.4,775.83Z"/><path class="cls-44" d="M2156.23,773.4c-.69,1.37-2.94,1.63-5,.58s-3.2-3-2.51-4.38,2.94-1.63,5-.58S2156.92,772,2156.23,773.4Z"/><path class="cls-44" d="M2141.81,765c-.69,1.36-2.94,1.62-5,.57s-3.21-3-2.52-4.38,2.94-1.63,5-.58S2142.51,763.67,2141.81,765Z"/><path class="cls-44" d="M2160,765.87c-.69,1.37-2.94,1.63-5,.58s-3.2-3-2.51-4.39,2.94-1.62,5-.57S2160.73,764.5,2160,765.87Z"/><path class="cls-44" d="M2148.35,756.85c-.69,1.37-2.94,1.63-5,.58s-3.21-3-2.52-4.39,2.94-1.62,5-.57S2149.05,755.48,2148.35,756.85Z"/><path class="cls-44" d="M2163.93,757.39c-.64,1.25-2.69,1.48-4.59.52s-2.93-2.75-2.3-4,2.69-1.49,4.59-.52S2164.56,756.13,2163.93,757.39Z"/><path class="cls-44" d="M2153.05,748c-.63,1.25-2.68,1.49-4.59.53s-2.93-2.76-2.29-4,2.69-1.49,4.59-.53S2153.69,746.75,2153.05,748Z"/><path class="cls-44" d="M2142.68,742.85c-.56,1.29-2.59,1.65-4.55.81s-3.1-2.57-2.54-3.86,2.59-1.65,4.55-.81S2143.23,741.56,2142.68,742.85Z"/><path class="cls-44" d="M2128.83,762.4c-.55,1.29-2.59,1.65-4.55.81s-3.09-2.57-2.54-3.86,2.59-1.65,4.55-.81S2129.39,761.11,2128.83,762.4Z"/><path class="cls-44" d="M2136.41,750.55c-.55,1.29-2.59,1.65-4.55.81s-3.09-2.57-2.54-3.86,2.6-1.65,4.55-.81S2137,749.26,2136.41,750.55Z"/><path class="cls-44" d="M2147.85,732.62c-.55,1.28-2.59,1.65-4.55.8s-3.09-2.57-2.54-3.86,2.59-1.65,4.55-.8S2148.41,731.33,2147.85,732.62Z"/><path class="cls-44" d="M2165.93,750.2c-.6,1.17-2.52,1.39-4.3.49s-2.74-2.58-2.14-3.75,2.51-1.39,4.29-.49S2166.52,749,2165.93,750.2Z"/><path class="cls-44" d="M2155.66,739.69c-.59,1.17-2.51,1.39-4.29.49s-2.74-2.58-2.15-3.75,2.52-1.39,4.29-.49S2156.25,738.51,2155.66,739.69Z"/><path class="cls-44" d="M2168.36,744.7c-.54,1.07-2.3,1.27-3.93.45s-2.5-2.35-2-3.42,2.3-1.27,3.92-.45S2168.9,743.63,2168.36,744.7Z"/><path class="cls-44" d="M2159.64,732.48c-.54,1.07-2.3,1.27-3.92.45s-2.5-2.36-2-3.43,2.29-1.27,3.92-.45S2160.18,731.41,2159.64,732.48Z"/><path class="cls-44" d="M2152.49,723.91c-.38,1.13-2.09,1.58-3.81,1s-2.81-2-2.43-3.12,2.1-1.58,3.82-1S2152.88,722.77,2152.49,723.91Z"/><path class="cls-44" d="M2164.44,707.69c-.27.8-1.47,1.11-2.68.7s-2-1.39-1.71-2.19,1.47-1.11,2.69-.7S2164.71,706.89,2164.44,707.69Z"/><path class="cls-44" d="M2160.2,713.24c-.28.8-1.48,1.11-2.69.7s-2-1.39-1.7-2.19,1.47-1.11,2.68-.7S2160.47,712.44,2160.2,713.24Z"/><path class="cls-44" d="M2156,717.93c-.3.9-1.65,1.25-3,.79s-2.21-1.56-1.91-2.45,1.65-1.25,3-.79S2156.27,717,2156,717.93Z"/><path class="cls-44" d="M2164.16,760.09c-.71,1.21.21,3.06,2.05,4.14s3.9,1,4.61-.25-.2-3.06-2-4.14S2164.87,758.87,2164.16,760.09Z"/><path class="cls-44" d="M2155.29,778.94c-.71,1.21.21,3.07,2.05,4.14s3.9,1,4.61-.24-.21-3.07-2-4.14S2156,777.73,2155.29,778.94Z"/><path class="cls-44" d="M2160.91,769.84c-.71,1.21.21,3.07,2.05,4.14s3.9,1,4.61-.24-.2-3.07-2-4.14S2161.62,768.63,2160.91,769.84Z"/><path class="cls-44" d="M2167.78,751.56c-.71,1.21.21,3.07,2,4.14s3.9,1,4.61-.24-.21-3.07-2.05-4.14S2168.49,750.35,2167.78,751.56Z"/><path class="cls-44" d="M2173.4,740.52c-.69,1,0,2.63,1.46,3.67s3.26,1.09,3.94.1,0-2.62-1.46-3.66S2174.08,739.54,2173.4,740.52Z"/><path class="cls-44" d="M2180.67,718.16c-.48.69,0,1.85,1,2.58s2.29.76,2.77.07,0-1.84-1-2.58S2181.15,717.47,2180.67,718.16Z"/><path class="cls-44" d="M2178.55,725.22c-.49.69,0,1.84,1,2.57s2.3.77,2.78.08,0-1.85-1-2.58S2179,724.52,2178.55,725.22Z"/><path class="cls-44" d="M2176.06,733.81c-.54.77,0,2.07,1.15,2.89s2.56.85,3.1.08,0-2.07-1.15-2.89S2176.6,733,2176.06,733.81Z"/><path class="cls-1" d="M2101,856.19s9.78,3.29,14.09,2.59,29-16.92,37-32.13,27.06-35.93,29.84-52.84,15.92-29.6,15.92-29.6a48.09,48.09,0,0,0-18.08,10.31c-8.31,7.69-18.55,19.33-20.3,26.85s-7.29,25.15-19.67,28.74-25.49,15.7-27.06,25S2101,856.19,2101,856.19Z"/><path class="cls-1" d="M2098.29,855.33s-9.42-5.43-11.42-9.32-2.63-34.42,4.92-49.82,12.9-43.1,24.86-55.36,14.4-30.38,14.4-30.38a48.18,48.18,0,0,1,2.42,20.68c-1.27,11.25-4.57,26.4-9.59,32.27s-15.93,20.77-11.47,32.88,2.46,29.83-4.09,36.61S2098.29,855.33,2098.29,855.33Z"/><path class="cls-8" d="M2126.1,1099c5.38,14.47,26.81,18.34,36.13,6.36s8.31-25.66-4-30.29-20.46-5.66-26.11,0S2123.89,1093.06,2126.1,1099Z"/><path class="cls-2" d="M2147.17,1092.09c-30.06-75.79-18.76-125-4-153,16-30.35,38.66-42.53,40.06-43v1.34c-.24.12-23.11,12.36-38.93,42.37-14.61,27.71-25.76,76.55,4.09,151.82Z"/><path class="cls-2" d="M2142.28,1090.78s-6.54,1.45-6.26,7.92c0,0,8.29-.25,10.57-4.53,0,0,4.91,2.54,12.23.86,0,0,.48-6.89-6.56-8.6,0,0,2.82-7.22-1.14-11.21,0,0-4.61,1.45-5.17,9.39a21.18,21.18,0,0,0-8.83-4.07S2137,1088.69,2142.28,1090.78Z"/><path class="cls-45" d="M2156.34,1076.51s11.1,1.74,9.82,17.12C2166.16,1093.63,2163.14,1080.37,2156.34,1076.51Z"/><path class="cls-8" d="M2145.72,1047.53c5,13.36,24.76,16.93,33.36,5.88s7.68-23.71-3.68-28-18.89-5.22-24.12,0S2143.68,1042,2145.72,1047.53Z"/><path class="cls-2" d="M2160.66,1039.93s-6,1.34-5.78,7.32c0,0,7.66-.24,9.76-4.19,0,0,4.54,2.35,11.29.79a7.72,7.72,0,0,0-6.06-7.94s2.61-6.66-1-10.35c0,0-4.25,1.34-4.77,8.67a19.57,19.57,0,0,0-8.16-3.75S2155.82,1038,2160.66,1039.93Z"/><path class="cls-8" d="M2081.64,1040c5,13.36,24.76,16.94,33.36,5.88s7.68-23.7-3.69-28-18.89-5.22-24.11,0S2079.6,1034.54,2081.64,1040Z"/><path class="cls-2" d="M2096.58,1032.43s-6,1.34-5.79,7.32c0,0,7.67-.24,9.76-4.19,0,0,4.54,2.35,11.3.79a7.71,7.71,0,0,0-6.06-7.93s2.61-6.67-1.05-10.36c0,0-4.26,1.34-4.77,8.67a19.65,19.65,0,0,0-8.16-3.75S2091.74,1030.5,2096.58,1032.43Z"/><path class="cls-45" d="M2109.56,1019.26s10.25,1.6,9.07,15.8C2118.63,1035.06,2115.84,1022.82,2109.56,1019.26Z"/><path class="cls-8" d="M2142.86,994.18c5,13.35,24.75,16.93,33.35,5.87s7.68-23.7-3.68-28-18.89-5.22-24.11,0S2140.81,988.68,2142.86,994.18Z"/><path class="cls-2" d="M2157.8,986.58s-6.05,1.33-5.79,7.31c0,0,7.66-.23,9.76-4.19,0,0,4.54,2.35,11.3.8a7.74,7.74,0,0,0-6.06-7.94s2.6-6.67-1.06-10.36c0,0-4.25,1.35-4.76,8.68a19.6,19.6,0,0,0-8.16-3.76S2153,984.64,2157.8,986.58Z"/><path class="cls-45" d="M2170.78,973.4s10.25,1.6,9.06,15.81C2179.84,989.21,2177.06,977,2170.78,973.4Z"/><path class="cls-8" d="M2086.58,975c5,13.35,24.76,16.93,33.36,5.87s7.68-23.7-3.69-28-18.89-5.23-24.11,0S2084.54,969.51,2086.58,975Z"/><path class="cls-2" d="M2101.52,967.41s-6.05,1.33-5.79,7.31c0,0,7.66-.23,9.76-4.19,0,0,4.54,2.35,11.3.8a7.72,7.72,0,0,0-6.06-7.94s2.61-6.67-1.05-10.36c0,0-4.26,1.35-4.77,8.68a19.6,19.6,0,0,0-8.16-3.76S2096.67,965.47,2101.52,967.41Z"/><path class="cls-45" d="M2114.5,954.23s10.25,1.6,9.07,15.81C2123.57,970,2120.78,957.79,2114.5,954.23Z"/><path class="cls-8" d="M2109.61,916.59c5,13.36,24.76,16.93,33.36,5.88s7.68-23.71-3.68-28-18.89-5.22-24.12,0S2107.57,911.09,2109.61,916.59Z"/><path class="cls-2" d="M2124.56,909s-6,1.34-5.79,7.31c0,0,7.66-.23,9.76-4.19,0,0,4.54,2.36,11.3.8a7.74,7.74,0,0,0-6.07-7.94s2.61-6.67-1.05-10.36c0,0-4.25,1.35-4.77,8.68a19.43,19.43,0,0,0-8.15-3.75S2119.71,907.06,2124.56,909Z"/><path class="cls-45" d="M2137.54,895.81s10.24,1.61,9.06,15.81C2146.6,911.62,2143.82,899.37,2137.54,895.81Z"/><path class="cls-46" d="M2179.42,899s-37.23-3.54-50.62,7.91"/><path class="cls-46" d="M2105,966.19s24-21.74,39.88-28.94"/><path class="cls-46" d="M2162.54,984.55s-22.68-15.42-24.43-32.83"/><path class="cls-46" d="M2098.86,1029.43s21.27-12.56,30.16-34.27"/><path class="cls-46" d="M2165.41,1037.92s-23.29-.59-36.11-21.08"/><path class="cls-47" d="M2188.41,667.66A13.75,13.75,0,0,0,2180,665c-6.59,0-11.93,4.12-11.93,9.2v550.51c0,5.08,5.34,9.19,11.93,9.19s11.93-4.11,11.93-9.19V674.17A8.22,8.22,0,0,0,2188.41,667.66Z"/><path class="cls-5" d="M1880,626.84h142.72a0,0,0,0,1,0,0v660.91a71.36,71.36,0,0,1-71.36,71.36h0a71.36,71.36,0,0,1-71.36-71.36V626.84a0,0,0,0,1,0,0Z"/><rect class="cls-6" x="1864.18" y="614.02" width="174.43" height="32.92" rx="14.02"/><path class="cls-48" d="M1997.42,1048.59a15.64,15.64,0,0,1,6.12-3.08,8.88,8.88,0,0,1-3.29,10c-1.48,1.16-4.23,1.34-7.76.68C1993.56,1053.66,1995.21,1050.49,1997.42,1048.59Z"/><path class="cls-48" d="M1967.14,897.9a8.81,8.81,0,0,0,1.43-1.17c3.72-3.81,7.37-12,10.49-11.68s8.3,4.76,6.67,9.18-3.75,3.74-7.3,8.5a16.26,16.26,0,0,0-1.71,3.17C1974,904.75,1969,902.12,1967.14,897.9Z"/><path class="cls-43" d="M1928.35,955.36c1.78-17.94,9.73-35.62,20.16-45.92,9.18-9.07,14.86-9.08,18.63-11.54,1.81,4.22,6.86,6.85,9.58,8-2.9,6.7-5.48,19.24-6.69,26.28a132.28,132.28,0,0,0,5.15,63.16c9.88,29.14,22.06,40.44,26.5,46.6a12.91,12.91,0,0,1,1.86,3.57,15.64,15.64,0,0,0-6.12,3.08c-2.21,1.9-3.86,5.07-4.93,7.6-12.4-2.32-34.55-15.11-46.55-33.36C1928.36,996.09,1926.56,973.3,1928.35,955.36Z"/><path class="cls-49" d="M1992.24,1050.63s-44.39-28.92-46.49-77.83,21-69,21-69"/><path class="cls-48" d="M1960.78,974.11a1.41,1.41,0,1,0,1.07-1.84A1.51,1.51,0,0,0,1960.78,974.11Z"/><path class="cls-48" d="M1960.33,942.8a1.41,1.41,0,1,0,1.39-1.61A1.5,1.5,0,0,0,1960.33,942.8Z"/><path class="cls-48" d="M1959.74,924.86a1.41,1.41,0,1,0,1.07-1.84A1.51,1.51,0,0,0,1959.74,924.86Z"/><path class="cls-48" d="M1955,985.28c.22,1.13,1.07,1.91,1.92,1.75a1.86,1.86,0,0,0,1.13-2.33c-.21-1.12-1.07-1.9-1.91-1.74A1.87,1.87,0,0,0,1955,985.28Z"/><path class="cls-48" d="M1955.65,960.93c0,1.14.7,2.07,1.56,2.07s1.55-.93,1.55-2.07-.7-2.07-1.56-2.07S1955.65,959.78,1955.65,960.93Z"/><path class="cls-48" d="M1941.71,987.81c.22,1.12,1.07,1.9,1.92,1.74a1.87,1.87,0,0,0,1.14-2.32c-.22-1.13-1.07-1.91-1.92-1.75A1.88,1.88,0,0,0,1941.71,987.81Z"/><path class="cls-48" d="M1939.36,951.62a1.87,1.87,0,0,0,1.14,2.32c.85.16,1.7-.62,1.92-1.75a1.87,1.87,0,0,0-1.15-2.32C1940.43,949.71,1939.57,950.49,1939.36,951.62Z"/><path class="cls-48" d="M1943.17,939.34a1.87,1.87,0,0,0,1,2.37c.83.19,1.72-.55,2-1.67a1.88,1.88,0,0,0-1-2.37C1944.32,937.48,1943.43,938.22,1943.17,939.34Z"/><path class="cls-48" d="M1949.79,973.44c.28,1.47,1.3,2.51,2.29,2.33s1.55-1.54,1.27-3-1.31-2.52-2.29-2.33S1949.51,972,1949.79,973.44Z"/><path class="cls-48" d="M1959.92,957.45c0,1.5.81,2.72,1.81,2.72s1.82-1.22,1.81-2.72-.81-2.72-1.81-2.72S1959.92,956,1959.92,957.45Z"/><path class="cls-48" d="M1931.07,974.23c.28,1.47,1.3,2.52,2.28,2.33s1.56-1.53,1.28-3-1.31-2.52-2.29-2.33S1930.78,972.75,1931.07,974.23Z"/><path class="cls-48" d="M1935.42,947.13c-.28,1.47.29,2.82,1.28,3s2-.86,2.28-2.34-.29-2.82-1.27-3S1935.7,945.65,1935.42,947.13Z"/><path class="cls-48" d="M1941.12,927.05c-.34,1.46.17,2.83,1.15,3.06s2-.77,2.38-2.24-.17-2.83-1.15-3.06S1941.46,925.59,1941.12,927.05Z"/><path class="cls-48" d="M1963.74,1013.41c.76,1.3,2.07,1.94,2.94,1.43s1-2,.19-3.26-2.08-1.94-2.94-1.43S1963,1012.12,1963.74,1013.41Z"/><path class="cls-48" d="M1969.92,1042.94c.79.82,1.87,1,2.42.53s.34-1.62-.45-2.43-1.87-1-2.41-.52S1969.13,1042.13,1969.92,1042.94Z"/><path class="cls-48" d="M1948.06,1009.1c.76,1.29,2.07,1.93,2.94,1.43s1-2,.19-3.26-2.08-1.94-2.94-1.44S1947.3,1007.8,1948.06,1009.1Z"/><path class="cls-48" d="M1965.13,984.25a1.57,1.57,0,1,0,1.19-2.07A1.7,1.7,0,0,0,1965.13,984.25Z"/><path class="cls-48" d="M1964,928.85a1.57,1.57,0,1,0,1.86-1.49A1.7,1.7,0,0,0,1964,928.85Z"/><path class="cls-48" d="M1936.79,989.64a1.57,1.57,0,1,0,1.19-2.07A1.7,1.7,0,0,0,1936.79,989.64Z"/><path class="cls-48" d="M1934.14,956.16a1.57,1.57,0,1,0,1.55-1.81A1.71,1.71,0,0,0,1934.14,956.16Z"/><path class="cls-48" d="M1955.26,995.3c.2,1,1,1.76,1.76,1.62a1.73,1.73,0,0,0,1-2.15c-.2-1-1-1.77-1.76-1.62A1.74,1.74,0,0,0,1955.26,995.3Z"/><path class="cls-48" d="M1938.1,1004.15c.2,1,1,1.77,1.76,1.62a1.73,1.73,0,0,0,1-2.15c-.2-1-1-1.76-1.76-1.62A1.73,1.73,0,0,0,1938.1,1004.15Z"/><path class="cls-48" d="M1975.93,1014.5c.53.91,1.49,1.35,2.14,1a1.72,1.72,0,0,0,.21-2.35c-.53-.91-1.49-1.34-2.14-1A1.7,1.7,0,0,0,1975.93,1014.5Z"/><path class="cls-48" d="M1983.11,1037c.53.92,1.49,1.35,2.14,1a1.7,1.7,0,0,0,.21-2.34c-.53-.92-1.49-1.35-2.14-1A1.7,1.7,0,0,0,1983.11,1037Z"/><path class="cls-48" d="M1967.33,1003.31a1.48,1.48,0,1,0,1.17-1.73A1.47,1.47,0,0,0,1967.33,1003.31Z"/><path class="cls-48" d="M1964.13,995.12a1,1,0,1,0,.83-1.23A1.05,1.05,0,0,0,1964.13,995.12Z"/><path class="cls-48" d="M1938,985a1,1,0,1,0,.83-1.22A1,1,0,0,0,1938,985Z"/><path class="cls-48" d="M1937.15,961.06a1,1,0,0,0,1.22.83,1,1,0,0,0,.83-1.22,1.06,1.06,0,0,0-1.22-.83A1,1,0,0,0,1937.15,961.06Z"/><path class="cls-48" d="M1953.48,946.94a1,1,0,1,0,.83-1.22A1,1,0,0,0,1953.48,946.94Z"/><path class="cls-48" d="M1939.46,981.56a1.06,1.06,0,0,0,1.22.83,1,1,0,1,0-1.22-.83Z"/><path class="cls-48" d="M1957.25,931.78a1,1,0,1,0,.83-1.23A1.05,1.05,0,0,0,1957.25,931.78Z"/><path class="cls-48" d="M1984.12,1027.75a1,1,0,0,0,2.05-.39,1,1,0,1,0-2.05.39Z"/><path class="cls-48" d="M1979.58,1032.41a1,1,0,1,0,.83-1.22A1,1,0,0,0,1979.58,1032.41Z"/><path class="cls-48" d="M1974.51,1027.84a1.52,1.52,0,1,0,3-.57,1.52,1.52,0,0,0-3,.57Z"/><path class="cls-48" d="M1963.8,1031.42a1.52,1.52,0,1,0,1.21-1.78A1.53,1.53,0,0,0,1963.8,1031.42Z"/><path class="cls-48" d="M1954.89,1032.25a1.52,1.52,0,1,0,1.21-1.78A1.52,1.52,0,0,0,1954.89,1032.25Z"/><path class="cls-48" d="M1956,1022a1.52,1.52,0,1,0,1.21-1.78A1.52,1.52,0,0,0,1956,1022Z"/><path class="cls-48" d="M1991.77,1039.84a1.52,1.52,0,1,0,1.21-1.78A1.52,1.52,0,0,0,1991.77,1039.84Z"/><path class="cls-48" d="M1972.43,1019.91a1,1,0,1,0,.83-1.22A1,1,0,0,0,1972.43,1019.91Z"/><path class="cls-48" d="M1947.72,1019.4a1,1,0,1,0,.83-1.22A1.06,1.06,0,0,0,1947.72,1019.4Z"/><path class="cls-2" d="M1945.08,871c-6.1-17.17-1.18-56,3.57-93.53,3.67-28.94,7.13-56.26,4.69-68.82-5.43-27.88-38.41-46.69-38.75-46.88v-2.93c1.43.8,35.63,20.26,41.28,49.31,2.53,13-1,40.5-4.65,69.64-4.5,35.51-9.6,75.75-3.7,92.34Z"/><ellipse class="cls-50" cx="1927.16" cy="838.21" rx="15.15" ry="10.12" transform="translate(449.37 2332.44) rotate(-68.82)"/><ellipse class="cls-50" cx="1932.63" cy="855.05" rx="11.18" ry="7.47" transform="translate(437.16 2348.28) rotate(-68.82)"/><path class="cls-50" d="M1957,871.67c1.11,8.29-2.48,15.61-8,16.36s-10.93-5.38-12-13.67,2.48-15.62,8-16.36S1955.87,863.37,1957,871.67Z"/><ellipse class="cls-50" cx="1936.71" cy="813.56" rx="15.15" ry="10.12" transform="translate(478.47 2325.6) rotate(-68.82)"/><path class="cls-50" d="M1954.2,781c-3,7.8-9.7,12.49-14.91,10.47s-7-10-4-17.78,9.7-12.49,14.91-10.47S1957.22,773.18,1954.2,781Z"/><path class="cls-51" d="M1961.89,743.13s-4.89-6.85-6.5-19.19"/><ellipse class="cls-50" cx="1960.75" cy="838.21" rx="10.12" ry="15.15" transform="translate(-170.63 772.09) rotate(-21.37)"/><path class="cls-51" d="M1942.85,789s6.58-6.88,5.92-14.69-.38-17.2,4.48-22"/><path class="cls-50" d="M1977.9,813.88c3,7.8,1.3,15.76-3.91,17.8s-11.9-2.63-15-10.42-1.3-15.76,3.91-17.8S1974.85,806.09,1977.9,813.88Z"/><ellipse class="cls-50" cx="1954.57" cy="853.62" rx="10.12" ry="15.15" transform="translate(-176.67 770.9) rotate(-21.37)"/><path class="cls-50" d="M1972.22,789.19c3,7.8,1.3,15.76-3.9,17.8s-11.9-2.63-15-10.42-1.3-15.76,3.91-17.79S1969.18,781.4,1972.22,789.19Z"/><ellipse class="cls-50" cx="1968.47" cy="770.13" rx="10.12" ry="15.15" transform="translate(-145.29 770.22) rotate(-21.37)"/><path class="cls-50" d="M1978.37,745.49c4.68,6.94,4.71,15.09.07,18.22s-12.18,0-16.86-6.91-4.7-15.1-.07-18.22S1973.7,738.55,1978.37,745.49Z"/><path class="cls-52" d="M1969.14,757.67c4.68,6.94,4.71,15.1.07,18.22s-12.18,0-16.86-6.91-4.7-15.09-.07-18.22S1964.47,750.73,1969.14,757.67Z"/><ellipse class="cls-50" cx="1929.41" cy="721.41" rx="12.29" ry="8.21" transform="translate(-62.83 1244.88) rotate(-35.22)"/><path class="cls-50" d="M1936.77,738.59c-5.54,3.92-12.16,4.09-14.78.38s-.24-9.88,5.31-13.8,12.16-4.08,14.78-.38S1942.32,734.68,1936.77,738.59Z"/><ellipse class="cls-50" cx="1945.11" cy="723.94" rx="12.29" ry="8.21" transform="translate(512.73 2225.89) rotate(-66.77)"/><path class="cls-50" d="M1986.8,789.19c3,7.8,1.3,15.76-3.91,17.8S1971,804.36,1968,796.57s-1.3-15.76,3.9-17.79S1983.75,781.4,1986.8,789.19Z"/><path class="cls-53" d="M1945.43,718.32c-.36-.87,5.08-11.5,3.34-25.15"/><path class="cls-50" d="M1934.9,798.11c-6.55,5.21-14.67,5.88-18.16,1.51s-1-12.14,5.56-17.35,14.67-5.89,18.15-1.52S1941.45,792.9,1934.9,798.11Z"/><ellipse class="cls-50" cx="1933.64" cy="773.8" rx="15.15" ry="10.12" transform="translate(-61.2 1372.41) rotate(-38.51)"/><ellipse class="cls-50" cx="1968.71" cy="718.06" rx="10.12" ry="15.15" transform="translate(-126.57 753) rotate(-20.99)"/><path class="cls-50" d="M1992.42,718.76c2,5.1.78,10.3-2.63,11.61s-7.76-1.77-9.72-6.87-.79-10.31,2.63-11.62S1990.46,713.65,1992.42,718.76Z"/><ellipse class="cls-50" cx="1976.5" cy="700.07" rx="10.12" ry="15.15" transform="translate(218.75 1843.3) rotate(-52.54)"/><path class="cls-50" d="M1921.17,781.72c-6.55,5.21-14.68,5.89-18.16,1.52s-1-12.15,5.55-17.36,14.68-5.88,18.16-1.51S1927.71,776.51,1921.17,781.72Z"/><path class="cls-51" d="M1952,857.76s-10.06-15.56-8-26.74"/><path class="cls-52" d="M1933.34,712.08c3.23-6,9.08-9.07,13.07-6.91s4.61,8.75,1.38,14.72-9.08,9.07-13.07,6.91S1930.11,718.05,1933.34,712.08Z"/><ellipse class="cls-52" cx="1930.09" cy="739.3" rx="9.73" ry="6.5" transform="translate(361.79 2085.5) rotate(-61.6)"/><path class="cls-50" d="M1939.94,761.37c-6.55,5.21-14.67,5.89-18.16,1.51s-1-12.14,5.56-17.35,14.67-5.89,18.15-1.51S1946.49,756.16,1939.94,761.37Z"/><path class="cls-52" d="M1990.58,712.81c2.07,3.07,2.08,6.68,0,8.06s-5.39,0-7.46-3.06-2.08-6.68,0-8.06S1988.51,709.74,1990.58,712.81Z"/><ellipse class="cls-52" cx="1949.74" cy="828.63" rx="10.12" ry="15.15" transform="translate(-167.89 767.42) rotate(-21.37)"/><ellipse class="cls-52" cx="1937.15" cy="855.05" rx="13.02" ry="8.7" transform="translate(392.31 2303.2) rotate(-66.97)"/><path class="cls-51" d="M1950.94,806.64s-2.78-5-2.89-13.35"/><ellipse class="cls-52" cx="1956.82" cy="864.42" rx="7" ry="10.48" transform="translate(-149.07 1240.74) rotate(-33.97)"/><ellipse class="cls-52" cx="1971.66" cy="817.57" rx="8.7" ry="13.02" transform="translate(-156.25 984.55) rotate(-27.01)"/><line class="cls-51" x1="1927.44" y1="773.21" x2="1941.28" y2="759.89"/><path class="cls-51" d="M1942.85,754s8.37-5.64,11.12-18.94"/><ellipse class="cls-52" cx="1922.81" cy="782.92" rx="13.02" ry="8.7" transform="translate(449.97 2246.09) rotate(-66.97)"/><path class="cls-50" d="M1928,820.26c-6.55,5.21-14.68,5.88-18.16,1.51s-1-12.14,5.55-17.35,14.68-5.89,18.16-1.52S1934.57,815.05,1928,820.26Z"/><path class="cls-50" d="M1962.11,811c2.16,5.51.92,11.15-2.76,12.59s-8.41-1.86-10.57-7.37-.92-11.15,2.76-12.59S1960,805.44,1962.11,811Z"/><path class="cls-52" d="M1944.5,800.2c-3.28,4.92-8.61,7.14-11.9,4.95s-3.3-8,0-12.88,8.6-7.15,11.89-5S1947.77,795.27,1944.5,800.2Z"/><path class="cls-52" d="M1944.5,763.57c-3.28,4.93-8.61,7.14-11.9,4.95s-3.3-7.95,0-12.88,8.6-7.14,11.89-4.95S1947.77,758.64,1944.5,763.57Z"/><ellipse class="cls-52" cx="1955.45" cy="787.33" rx="7.16" ry="10.71" transform="translate(-106.23 1226.82) rotate(-33.97)"/><line class="cls-53" x1="1963.87" y1="703.79" x2="1943.31" y2="685.08"/><ellipse class="cls-52" cx="1968.12" cy="701.94" rx="7.16" ry="10.71" transform="translate(282.44 1936.72) rotate(-55.85)"/><ellipse class="cls-52" cx="1972.42" cy="723.3" rx="7.16" ry="10.71" transform="translate(-119.1 921.19) rotate(-25.54)"/><path class="cls-1" d="M1988.41,1203.81c14.67-7.62,30.82-49.23,18.57-73.77s-23.4-39.17-41.2-49.9-34.42-29.27-39.23-31-10.24,2.35-16,4.57-10.19,5-11.66,11.56,1.41,21.58,1.12,33.22-.18,56.82,20.28,80.45S1973.85,1211.36,1988.41,1203.81Z"/><path class="cls-54" d="M1985.29,1198.55c13.59-7,28.56-45.62,17.21-68.36s-21.69-36.3-38.19-46.25-31.89-27.12-36.35-28.67-9.49,2.17-14.81,4.23-9.44,4.67-10.81,10.71,1.31,20,1,30.79-.16,52.65,18.79,74.55S1971.79,1205.55,1985.29,1198.55Z"/><path class="cls-55" d="M1982.42,1193.74c12.61-6.54,26.5-42.32,16-63.41s-20.12-33.68-35.42-42.9-29.58-25.16-33.72-26.6-8.8,2-13.73,3.93-8.76,4.33-10,9.93,1.21,18.55,1,28.56-.15,48.84,17.43,69.15S1969.91,1200.23,1982.42,1193.74Z"/><path class="cls-8" d="M1979.14,1188.22c11.49-6,24.13-38.53,14.54-57.73s-18.32-30.67-32.25-39.07-26.93-22.9-30.7-24.21-8,1.83-12.5,3.57-8,4-9.14,9,1.11,16.89.88,26-.14,44.47,15.87,63S1967.75,1194.13,1979.14,1188.22Z"/><path class="cls-54" d="M1976,1182.78c3.66-.44,3.33-10.36,1.78-19.32s-2.44-24.25-8.8-35.75-20.49-25-28.18-30.71-18-19-20-23.53-5-11-2.47-14.56l-6.9,3.52a42.29,42.29,0,0,1,8.43,13.6c3.27,8.46,2.94,41.42,11.06,59.4S1970,1183.51,1976,1182.78Z"/><path class="cls-22" d="M1940.86,1145.29a2.9,2.9,0,1,1-4.08.45A2.91,2.91,0,0,1,1940.86,1145.29Z"/><path class="cls-22" d="M1946.77,1147.18a2.9,2.9,0,1,1-4.07.45A2.9,2.9,0,0,1,1946.77,1147.18Z"/><path class="cls-22" d="M1946.32,1143.11a2.9,2.9,0,1,1-4.07.45A2.89,2.89,0,0,1,1946.32,1143.11Z"/><path class="cls-22" d="M1952.26,1156.05a2.9,2.9,0,1,1-4.07.45A2.89,2.89,0,0,1,1952.26,1156.05Z"/><path class="cls-22" d="M1943.61,1137.22a2.9,2.9,0,1,1-4.08.45A2.89,2.89,0,0,1,1943.61,1137.22Z"/><path class="cls-22" d="M1950.43,1145.53a2.9,2.9,0,1,1-4.07.45A2.89,2.89,0,0,1,1950.43,1145.53Z"/><path class="cls-22" d="M1955.56,1136.2a2.9,2.9,0,1,1-4.07.45A2.88,2.88,0,0,1,1955.56,1136.2Z"/><path class="cls-22" d="M1961.28,1133.69a2.9,2.9,0,1,1-4.07.45A2.91,2.91,0,0,1,1961.28,1133.69Z"/><path class="cls-22" d="M1965.21,1135.23a2.9,2.9,0,1,1-4.08.46A2.91,2.91,0,0,1,1965.21,1135.23Z"/><path class="cls-22" d="M1951.37,1139.72a2.9,2.9,0,1,1-4.08.45A2.89,2.89,0,0,1,1951.37,1139.72Z"/><path class="cls-22" d="M1949.23,1134.84a2.9,2.9,0,1,1-4.08.45A2.89,2.89,0,0,1,1949.23,1134.84Z"/><path class="cls-22" d="M1951.64,1129.69a2.9,2.9,0,1,1-4.07.45A2.89,2.89,0,0,1,1951.64,1129.69Z"/><path class="cls-22" d="M1946.72,1119.34a2.9,2.9,0,1,1-4.07.45A2.89,2.89,0,0,1,1946.72,1119.34Z"/><path class="cls-22" d="M1943.12,1129.41a2.9,2.9,0,1,1-4.07.45A2.89,2.89,0,0,1,1943.12,1129.41Z"/><path class="cls-22" d="M1945.26,1124.24a2.9,2.9,0,1,1-4.07.45A2.91,2.91,0,0,1,1945.26,1124.24Z"/><path class="cls-22" d="M1946.52,1129.8a2.9,2.9,0,1,1-4.08.45A2.91,2.91,0,0,1,1946.52,1129.8Z"/><path class="cls-22" d="M1951.72,1125a2.9,2.9,0,1,1-4.07.45A2.89,2.89,0,0,1,1951.72,1125Z"/><path class="cls-22" d="M1945.82,1111.19a2.9,2.9,0,1,1-4.08.45A2.89,2.89,0,0,1,1945.82,1111.19Z"/><path class="cls-22" d="M1939.58,1117.08a2.9,2.9,0,1,1-4.07.46A2.91,2.91,0,0,1,1939.58,1117.08Z"/><path class="cls-22" d="M1930.65,1128.25a2.9,2.9,0,1,1-4.08.45A2.89,2.89,0,0,1,1930.65,1128.25Z"/><path class="cls-22" d="M1935.71,1131.54a2.9,2.9,0,1,1-4.08.45A2.91,2.91,0,0,1,1935.71,1131.54Z"/><path class="cls-22" d="M1940.65,1132a2.9,2.9,0,1,1-4.08.45A2.89,2.89,0,0,1,1940.65,1132Z"/><path class="cls-22" d="M1938.89,1126a2.9,2.9,0,1,1-4.08.45A2.89,2.89,0,0,1,1938.89,1126Z"/><path class="cls-22" d="M1934.52,1123.41a2.9,2.9,0,1,1-4.08.45A2.89,2.89,0,0,1,1934.52,1123.41Z"/><path class="cls-22" d="M1935.32,1115a2.9,2.9,0,1,1-4.07.45A2.89,2.89,0,0,1,1935.32,1115Z"/><path class="cls-22" d="M1931.31,1118.14a2.9,2.9,0,1,1-4.07.45A2.89,2.89,0,0,1,1931.31,1118.14Z"/><path class="cls-22" d="M1939.15,1112.26a2.9,2.9,0,1,1-4.08.45A2.91,2.91,0,0,1,1939.15,1112.26Z"/><path class="cls-22" d="M1946.25,1115.74a2.9,2.9,0,1,1-4.07.45A2.9,2.9,0,0,1,1946.25,1115.74Z"/><path class="cls-22" d="M1950.48,1119.74a2.9,2.9,0,1,1-4.07.45A2.89,2.89,0,0,1,1950.48,1119.74Z"/><path class="cls-22" d="M1955.54,1123.17a2.9,2.9,0,1,1-4.08.46A2.91,2.91,0,0,1,1955.54,1123.17Z"/><path class="cls-22" d="M1964.21,1124.66a2.9,2.9,0,1,1-4.07.46A2.91,2.91,0,0,1,1964.21,1124.66Z"/><path class="cls-22" d="M1961,1120.12a2.9,2.9,0,1,1-4.07.45A2.91,2.91,0,0,1,1961,1120.12Z"/><path class="cls-22" d="M1955.63,1118.42a2.9,2.9,0,1,1-4.08.45A2.91,2.91,0,0,1,1955.63,1118.42Z"/><path class="cls-22" d="M1955.38,1109.45a2.9,2.9,0,1,1-4.07.46A2.91,2.91,0,0,1,1955.38,1109.45Z"/><path class="cls-22" d="M1952.81,1114.82a2.9,2.9,0,1,1-4.08.45A2.89,2.89,0,0,1,1952.81,1114.82Z"/><path class="cls-22" d="M1950.66,1107.88a2.9,2.9,0,1,1-4.08.45A2.91,2.91,0,0,1,1950.66,1107.88Z"/><path class="cls-22" d="M1945.67,1106.74a2.9,2.9,0,1,1-4.08.45A2.89,2.89,0,0,1,1945.67,1106.74Z"/><path class="cls-22" d="M1941.81,1105.5a2.9,2.9,0,1,1-4.07.46A2.91,2.91,0,0,1,1941.81,1105.5Z"/><path class="cls-22" d="M1941.56,1105.82a2.9,2.9,0,1,1-4.07.45A2.89,2.89,0,0,1,1941.56,1105.82Z"/><path class="cls-22" d="M1936.62,1110.24a2.9,2.9,0,1,1-4.07.45A2.91,2.91,0,0,1,1936.62,1110.24Z"/><path class="cls-22" d="M1941.31,1121.92a2.9,2.9,0,1,1-4.07.45A2.89,2.89,0,0,1,1941.31,1121.92Z"/><path class="cls-22" d="M1956.6,1131a2.9,2.9,0,1,1-4.07.45A2.89,2.89,0,0,1,1956.6,1131Z"/><path class="cls-22" d="M1926.78,1082.33a2.9,2.9,0,1,1-4.07.45A2.91,2.91,0,0,1,1926.78,1082.33Z"/><path class="cls-22" d="M1927.47,1100a2.9,2.9,0,1,1-4.07.45A2.89,2.89,0,0,1,1927.47,1100Z"/><path class="cls-22" d="M1925.28,1094.13a2.9,2.9,0,1,1-4.07.45A2.91,2.91,0,0,1,1925.28,1094.13Z"/><path class="cls-22" d="M1941,1100.14a2.9,2.9,0,1,1-4.07.46A2.91,2.91,0,0,1,1941,1100.14Z"/><path class="cls-22" d="M1937.25,1098.14a2.9,2.9,0,1,1-4.08.45A2.89,2.89,0,0,1,1937.25,1098.14Z"/><path class="cls-22" d="M1935.07,1102a2.9,2.9,0,1,1-4.07.45A2.89,2.89,0,0,1,1935.07,1102Z"/><path class="cls-22" d="M1932.81,1100.16a2.9,2.9,0,1,1-4.08.45A2.89,2.89,0,0,1,1932.81,1100.16Z"/><path class="cls-22" d="M1935.44,1107.09a2.9,2.9,0,1,1-4.08.45A2.89,2.89,0,0,1,1935.44,1107.09Z"/><path class="cls-22" d="M1931.14,1109.57a2.9,2.9,0,1,1-4.08.45A2.89,2.89,0,0,1,1931.14,1109.57Z"/><path class="cls-22" d="M1931.57,1107a2.9,2.9,0,1,1-4.07.45A2.9,2.9,0,0,1,1931.57,1107Z"/><path class="cls-22" d="M1940.35,1109.28a2.9,2.9,0,1,1-4.08.45A2.89,2.89,0,0,1,1940.35,1109.28Z"/><path class="cls-22" d="M1933.57,1095.19a2.9,2.9,0,1,1-4.08.45A2.91,2.91,0,0,1,1933.57,1095.19Z"/><path class="cls-22" d="M1929.66,1093.3a2.9,2.9,0,1,1-4.07.45A2.89,2.89,0,0,1,1929.66,1093.3Z"/><path class="cls-22" d="M1933.15,1086.44a2.9,2.9,0,1,1-4.08.45A2.89,2.89,0,0,1,1933.15,1086.44Z"/><path class="cls-22" d="M1929.56,1088.79a2.9,2.9,0,1,1-4.07.45A2.89,2.89,0,0,1,1929.56,1088.79Z"/><path class="cls-22" d="M1933.57,1091.48a2.9,2.9,0,1,1-4.08.45A2.89,2.89,0,0,1,1933.57,1091.48Z"/><path class="cls-22" d="M1956.24,1141.8a2.9,2.9,0,1,1-4.08.45A2.91,2.91,0,0,1,1956.24,1141.8Z"/><path class="cls-22" d="M1963.91,1142.88a2.9,2.9,0,1,1-4.07.45A2.91,2.91,0,0,1,1963.91,1142.88Z"/><path class="cls-22" d="M1967.39,1139.59a2.9,2.9,0,1,1-4.07.45A2.91,2.91,0,0,1,1967.39,1139.59Z"/><path class="cls-22" d="M1972.82,1145a2.9,2.9,0,1,1-4.08.45A2.89,2.89,0,0,1,1972.82,1145Z"/><path class="cls-22" d="M1959.35,1126.83a2.9,2.9,0,1,1-4.08.45A2.91,2.91,0,0,1,1959.35,1126.83Z"/><path class="cls-22" d="M1965.59,1130.11a2.9,2.9,0,1,1-4.07.45A2.91,2.91,0,0,1,1965.59,1130.11Z"/><path class="cls-22" d="M1950.88,1149.6a2.9,2.9,0,1,1-4.07.46A2.91,2.91,0,0,1,1950.88,1149.6Z"/><path class="cls-22" d="M1959.68,1149.22a2.9,2.9,0,1,1-4.07.45A2.91,2.91,0,0,1,1959.68,1149.22Z"/><path class="cls-22" d="M1960.19,1144a2.9,2.9,0,1,1-4.08.46A2.91,2.91,0,0,1,1960.19,1144Z"/><path class="cls-22" d="M1961.24,1138.38a2.9,2.9,0,1,1-4.07.45A2.91,2.91,0,0,1,1961.24,1138.38Z"/><path class="cls-22" d="M1956,1157.41a2.9,2.9,0,1,1-4.08.45A2.91,2.91,0,0,1,1956,1157.41Z"/><path class="cls-22" d="M1955.8,1147a2.9,2.9,0,1,1-4.07.45A2.91,2.91,0,0,1,1955.8,1147Z"/><path class="cls-22" d="M1959.2,1153.41a2.9,2.9,0,1,1-4.08.45A2.91,2.91,0,0,1,1959.2,1153.41Z"/><path class="cls-22" d="M1955.38,1152.15a2.9,2.9,0,1,1-4.07.45A2.89,2.89,0,0,1,1955.38,1152.15Z"/><path class="cls-22" d="M1959.29,1159a2.9,2.9,0,1,1-4.08.45A2.89,2.89,0,0,1,1959.29,1159Z"/><path class="cls-22" d="M1952.66,1144.47a2.9,2.9,0,1,1-4.08.45A2.89,2.89,0,0,1,1952.66,1144.47Z"/><path class="cls-22" d="M1963.11,1156.54a2.9,2.9,0,1,1-4.07.46A2.91,2.91,0,0,1,1963.11,1156.54Z"/><path class="cls-22" d="M1966.46,1149a2.9,2.9,0,1,1-4.07.45A2.89,2.89,0,0,1,1966.46,1149Z"/><path class="cls-22" d="M1975.11,1149.48a2.9,2.9,0,1,1-4.08.45A2.91,2.91,0,0,1,1975.11,1149.48Z"/><path class="cls-22" d="M1967.84,1143.67a2.9,2.9,0,1,1-4.07.45A2.89,2.89,0,0,1,1967.84,1143.67Z"/><path class="cls-22" d="M1971.91,1136.89a2.9,2.9,0,1,1-4.07.45A2.89,2.89,0,0,1,1971.91,1136.89Z"/><path class="cls-22" d="M1970.22,1148.28a2.9,2.9,0,1,1-4.07.45A2.89,2.89,0,0,1,1970.22,1148.28Z"/><path class="cls-22" d="M1958.61,1162.16a2.9,2.9,0,1,1-4.07.45A2.91,2.91,0,0,1,1958.61,1162.16Z"/><path class="cls-22" d="M1963.3,1163.26a2.9,2.9,0,1,1-4.07.45A2.89,2.89,0,0,1,1963.3,1163.26Z"/><path class="cls-22" d="M1967.27,1160.63a2.9,2.9,0,1,1-4.08.45A2.89,2.89,0,0,1,1967.27,1160.63Z"/><path class="cls-22" d="M1971.05,1159.19a2.9,2.9,0,1,1-4.07.45A2.88,2.88,0,0,1,1971.05,1159.19Z"/><path class="cls-22" d="M1976,1157.63a2.9,2.9,0,1,1-4.07.45A2.91,2.91,0,0,1,1976,1157.63Z"/><path class="cls-22" d="M1966.05,1155.18a2.9,2.9,0,1,1-4.08.45A2.91,2.91,0,0,1,1966.05,1155.18Z"/><path class="cls-22" d="M1969.64,1164.62a2.9,2.9,0,1,1-4.08.45A2.89,2.89,0,0,1,1969.64,1164.62Z"/><path class="cls-22" d="M1962.46,1169a2.9,2.9,0,1,1-4.08.45A2.89,2.89,0,0,1,1962.46,1169Z"/><path class="cls-22" d="M1974.37,1166.32a2.9,2.9,0,1,1-4.07.45A2.89,2.89,0,0,1,1974.37,1166.32Z"/><path class="cls-22" d="M1970.61,1168.05a2.9,2.9,0,1,1-4.08.45A2.89,2.89,0,0,1,1970.61,1168.05Z"/><path class="cls-22" d="M1966.59,1166.76a2.9,2.9,0,1,1-4.07.45A2.89,2.89,0,0,1,1966.59,1166.76Z"/><path class="cls-22" d="M1974.29,1161.78a2.9,2.9,0,1,1-4.07.45A2.89,2.89,0,0,1,1974.29,1161.78Z"/><path class="cls-22" d="M1971.49,1154a2.9,2.9,0,1,1-4.08.45A2.89,2.89,0,0,1,1971.49,1154Z"/><path class="cls-22" d="M1976.94,1172.09a2.9,2.9,0,1,1-4.07.45A2.89,2.89,0,0,1,1976.94,1172.09Z"/><path class="cls-22" d="M1976.89,1176.79a2.9,2.9,0,1,1-4.07.45A2.91,2.91,0,0,1,1976.89,1176.79Z"/><path class="cls-22" d="M1973,1173.81a2.9,2.9,0,1,1-4-.78A2.89,2.89,0,0,1,1973,1173.81Z"/><path class="cls-31" d="M1938.9,1253.86s-3.08-11.8-4.85-19.95-2.89-16.88-2.89-16.88l3.75.58s4.35,32.18,6.41,35.87S1938.9,1253.86,1938.9,1253.86Z"/><path class="cls-8" d="M1937.14,1243.72c-3.55,1.84-7.86-.8-15.67,3.19s-15.71,12.95-15.39,32.51c.44,26.61,21.51,48.78,46.08,42.85,6.89-1.66,10.09-11.66,17.65-15.64,4.94-2.6,9.47,3.59,14.45-.15,35.94-27-14.4-86.62-39.89-70.68C1941.62,1237.52,1940.81,1241.82,1937.14,1243.72Z"/><path class="cls-56" d="M1975.19,1248c5,5.54,7,11.92,4.44,14.25s-8.73-.27-13.76-5.81-7-11.92-4.44-14.25S1970.17,1242.49,1975.19,1248Z"/><path class="cls-47" d="M1998.37,667.66a13.77,13.77,0,0,0-8.44-2.69c-6.59,0-11.93,4.12-11.93,9.2v550.51c0,5.08,5.34,9.19,11.93,9.19s11.93-4.11,11.93-9.19V674.17A8.22,8.22,0,0,0,1998.37,667.66Z"/><path class="cls-1" d="M2130.62,1168.3s2.62-25.08-11.79-60.08l-4.32,1.69s13.92,34.24,10.93,50.78c0,0-16.27-51.47-29-66.09l-5.51,2.15s26.42,43.84,30.56,66.76c0,0-13.85-23.22-17.51-34.77l-6.16-1s8.64,27.94,20.24,37.79c0,0-20.13-16.54-27.1-40.89l-4.42-1.94s8.81,36.32,34.16,50.69Z"/><path class="cls-55" d="M2182.77,1315.93,2156,1184.3a23.23,23.23,0,0,0-31.21-17h0a23.22,23.22,0,0,0-11.44,33.64Z"/><line class="cls-57" x1="2151.59" y1="1192.09" x2="2136.71" y2="1197.89"/><line class="cls-57" x1="2160.76" y1="1221.22" x2="2150.79" y2="1225.12"/><line class="cls-57" x1="2165.77" y1="1248.79" x2="2159.38" y2="1251.28"/><line class="cls-57" x1="2171.21" y1="1270.92" x2="2164.82" y2="1273.42"/><line class="cls-57" x1="2173.36" y1="1284.37" x2="2166.96" y2="1286.87"/><line class="cls-57" x1="2163.07" y1="1265.45" x2="2156.68" y2="1267.94"/><line class="cls-57" x1="2159.01" y1="1240.9" x2="2152.61" y2="1243.39"/><line class="cls-57" x1="2151.23" y1="1235.1" x2="2141.25" y2="1238.99"/><line class="cls-57" x1="2141.68" y1="1210.62" x2="2126.8" y2="1216.42"/><path class="cls-37" d="M1834,1094.79v305.76h408.31V1094.79Zm11,8.23h386.31v289.29H1845Z"/><path class="cls-6" d="M678.11,1171.56c-37.56,0-68,51.17-68,114.29s30.44,114.3,68,114.3h293.3V1171.56Z"/><path class="cls-58" d="M985,1377.65a36,36,0,0,1-13.63,2.71c-31.56,0-57.15-42.31-57.15-94.52s25.59-94.53,57.15-94.53A36.17,36.17,0,0,1,985,1194c-25,10.13-43.53,47.41-43.53,91.82S960.07,1367.55,985,1377.65Z"/><path class="cls-5" d="M1028.56,1285.84c0,40.68-15.52,75.38-37.35,88.67-23.33-7.8-41-44.53-41-88.67s17.67-80.87,41-88.65C1013,1210.52,1028.56,1245.19,1028.56,1285.84Z"/><path class="cls-5" d="M971.4,1171.54c-38.14,0-69.09,51.2-69.09,114.29s31,114.3,69.09,114.3,69.09-51.16,69.09-114.3S1009.58,1171.54,971.4,1171.54Zm19.82,203c-23.33-7.83-41-44.56-41-88.7s17.68-80.86,41-88.65c21.79,13.36,37.28,48,37.28,88.65S1013.05,1361.22,991.22,1374.53Z"/><path class="cls-6" d="M985,1377.65a36,36,0,0,0,13.62,2.71H971.41c-31.56,0-57.15-42.31-57.15-94.52s25.59-94.53,57.15-94.53h27.25A36.24,36.24,0,0,0,985,1194c-25,10.13-43.53,47.41-43.53,91.82S960.07,1367.55,985,1377.65Z"/><path class="cls-7" d="M1055.81,1285.84c0,52.21-25.59,94.52-57.15,94.52a36,36,0,0,1-13.62-2.71,38.53,38.53,0,0,0,6.17-3.14,28,28,0,0,0,9.31,1.57c27.81,0,50.35-40.38,50.35-90.24s-22.54-90.21-50.35-90.21a28.25,28.25,0,0,0-9.28,1.56A38.61,38.61,0,0,0,985,1194a36.24,36.24,0,0,1,13.62-2.71C1030.22,1191.31,1055.81,1233.66,1055.81,1285.84Z"/><path class="cls-7" d="M991.21,1374.51a38.53,38.53,0,0,1-6.17,3.14c-25-10.1-43.53-47.38-43.53-91.81S960.07,1204.15,985,1194a38.61,38.61,0,0,1,6.2,3.17c-23.36,7.78-41,44.51-41,88.65S967.88,1366.71,991.21,1374.51Z"/><path class="cls-6" d="M1050.87,1285.84c0,49.86-22.54,90.24-50.35,90.24a28,28,0,0,1-9.31-1.57c21.83-13.29,37.35-48,37.35-88.67s-15.52-75.32-37.32-88.65a28.25,28.25,0,0,1,9.28-1.56C1028.33,1195.63,1050.87,1236,1050.87,1285.84Z"/><path class="cls-5" d="M889.68,1197.19H684.78a5.57,5.57,0,0,1-5.57-5.57h0a5.57,5.57,0,0,1,5.57-5.58h204.9a5.58,5.58,0,0,1,5.58,5.58h0A5.57,5.57,0,0,1,889.68,1197.19Z"/><path class="cls-59" d="M662.19,1284c-25.44-21.78-44.13,43.63-11.37,69.83s72.21,8.73,62.85-10.61-25.74-4.7-39.78-19.26S670.13,1290.81,662.19,1284Z"/><path class="cls-60" d="M643.3,1302.59S640,1333.93,667.12,1349"/><path class="cls-59" d="M830.89,1355.45c-15.25,16.69,28.47,30.73,46.87,9.2s7.48-48.53-5.78-42.64-3.74,17.27-13.87,26.42S835.65,1350.24,830.89,1355.45Z"/><path class="cls-61" d="M843,1368.6s21.07,2.89,31.82-15"/><path class="cls-59" d="M755.1,1242.48c-15.52,17.61,30.12,31.37,48.82,8.68s6.86-50.51-6.79-44.15-3.56,18-13.9,27.68S759.94,1237,755.1,1242.48Z"/><path class="cls-62" d="M767.92,1255.91s21.93,2.6,32.75-16.22"/><path class="cls-30" d="M661.88,1210c-13.28,5.89.29,82.71,41.14,62.42C743.57,1252.28,677.66,1203,661.88,1210Z"/><path class="cls-63" d="M665.18,1227.87s4.09,28.12,23.45,38.53"/><path class="cls-63" d="M672.11,1219.37s23.57,9.57,36.38,30.38"/><path class="cls-63" d="M679.36,1240.85s12.27,22.41,24.6,23.89"/><path class="cls-30" d="M852.55,1314.77c4-14-63.82-52.6-74.3-8.21C767.85,1350.62,847.85,1331.37,852.55,1314.77Z"/><path class="cls-63" d="M836.7,1305.9s-24.25-14.82-44.62-6.57"/><path class="cls-63" d="M838.82,1316.66s-22.42,12-46.62,8.58"/><path class="cls-63" d="M817.66,1308.52s-25.08-4.87-34.09,3.67"/><path class="cls-30" d="M746.6,1343.47c-8.51,6.55,14.7,59.37,40.49,37.64C812.7,1359.54,756.72,1335.68,746.6,1343.47Z"/><path class="cls-64" d="M752.11,1355.73s7.86,19.49,23.59,23.57"/><path class="cls-64" d="M755.59,1348.4s18.61,2.76,31.46,15.47"/><path class="cls-64" d="M764.56,1362.57s12.74,14,21.86,12.86"/><path class="cls-31" d="M742.65,1315.83c-7.86,4.48-17,4.29-25.8-4.41s-2.92-26.31,6.38-36.57Z"/><path class="cls-65" d="M723.23,1274.85h0a16.08,16.08,0,0,1-3.11,7c-3.76,4.88-9.75,16,.71,28.25,17.65,20.69,42-3.71,25-22.39-8.57-9.45-15.26-10.47-15.26-10.47Z"/><path class="cls-30" d="M727.59,1282.59s-5,18.47,15.68,29.47C743.27,1312.06,746.6,1296.51,727.59,1282.59Z"/><path class="cls-31" d="M841.38,1286.92c9.86,5.61,21.36,5.37,32.36-5.54s3.66-33-8-45.86Z"/><path class="cls-65" d="M865.73,1235.52h0a20.21,20.21,0,0,0,3.91,8.73c4.71,6.12,12.23,20-.89,35.42-22.14,25.95-52.63-4.65-31.4-28.07,10.74-11.85,19.13-13.12,19.13-13.12Z"/><path class="cls-30" d="M860.27,1245.23s6.28,23.17-19.67,37C840.6,1282.18,836.43,1262.68,860.27,1245.23Z"/><path class="cls-52" d="M1843.43,1373c-17,14.79-41.45,25-74.68,27.14-157.16,10.38-203-127.58-126.09-200.31a94.87,94.87,0,0,1,26.06-17.84c40.41-18.19,77.11,4.45,84.82,1.75C1848.86,1150.15,1918.77,1307.42,1843.43,1373Z"/><path class="cls-8" d="M1843.43,1373c-14.2,6.76-31.51,11.21-52.23,12.58-157.13,10.39-203-127.57-126.09-200.3,1.21-1.15,2.4-2.24,3.61-3.29,40.41-18.19,77.11,4.45,84.82,1.75C1848.86,1150.15,1918.77,1307.42,1843.43,1373Z"/><path class="cls-1" d="M1746.14,1184.78s-3.3-48.43,29.2-79.24h11.3s-16.33,20-23.47,37-10.44,44.43-10.44,44.43Z"/><path class="cls-1" d="M1749.28,1182.43c-11.57-1.83-18.06-28.11-29.2-31.88S1695,1159,1695,1159s18.36-9.89,24.49-5.34,8.32,19.94,15.07,27.17c0,0-10.36-.08-17.19,7.14s-1,14.6-4.55,23c0,0,5.65-6.91,6.35-14.76s22.85-8.63,22.85-8.63,9.57,2.51,9.93,11.46,9.18,21.17,19.9,21.47c0,0-11-7.81-11.89-14.82s1-13.84-4.54-20c0,0,12.19,3,17.06-1.29s6.67-21.91,23.86-17.35c0,0-5.26-4.08-11.46-2.83s-10.36,6.4-12.8,10.54-18.29,6.18-20.17,5.55S1749.28,1182.43,1749.28,1182.43Z"/><path class="cls-45" d="M1816.79,1211.2s62.88,22.25,40.51,113.07C1857.3,1324.27,1848.66,1249.4,1816.79,1211.2Z"/><path class="cls-31" d="M1091.09,1384.59c-10.25,14-26.45,20.79-48.57,12.42s-25.66-43.72-17.39-68.93Z"/><path class="cls-65" d="M1025.13,1328.08h0a31.1,31.1,0,0,1,0,14.61c-2.76,11.47-4.58,35.56,23.29,48.84,47,22.4,70.5-39.25,26.31-58.7-22.36-9.83-34.85-6.39-34.85-6.39Z"/><path class="cls-30" d="M1038.79,1338.22s5.67,36.21,50.44,39.29C1089.23,1377.51,1082.91,1347.71,1038.79,1338.22Z"/><path class="cls-48" d="M1614.82,394.63c.2-10.86-3-20.88-6.5-28.48-18.66,7.37-24.31,24.25-23.92,37.94.23,8,7.08,17.56,18.85,27.37C1608.68,421.07,1614.59,407,1614.82,394.63Z"/><path class="cls-48" d="M2192.19,84.81a35.85,35.85,0,0,1-.05-7.89c2.39-22.55,19.37-56.78,9.89-66.17s-38.17-14.34-48.3,3-2.09,22.46-8.1,47.06a69.14,69.14,0,0,1-5.76,14.26C2151,80.89,2173.4,90.34,2192.19,84.81Z"/><path class="cls-54" d="M2108.75,368.35c54.08-54.6,90.6-128.71,96.12-191,4.86-54.8-10.55-73.5-12.68-92.57-18.79,5.53-41.16-3.92-52.32-9.72-14.16,27.7-48.34,70.25-68.17,93.35C2048,196,1972.78,276.34,1850.2,323s-192.81,37.38-225.08,39.52a55.25,55.25,0,0,0-16.8,3.59c3.47,7.6,6.7,17.62,6.5,28.48-.23,12.39-6.14,26.44-11.57,36.83,41.29,34.43,143.47,72.47,236,62.32C1974.9,478.92,2054.68,422.94,2108.75,368.35Z"/><path class="cls-66" d="M1622.21,417.19s215.58,67.26,382-58.66,169.71-256.61,169.71-256.61"/><path class="cls-48" d="M1959.06,312.73c-3.31,1.82-7.28,1-8.87-1.93s-.19-6.7,3.13-8.52,7.28-1,8.86,1.93S1962.37,310.91,1959.06,312.73Z"/><path class="cls-48" d="M2063.16,229.15c-2.91,2.41-7,2.3-9.07-.23s-1.43-6.55,1.48-9,7-2.3,9.07.24S2066.08,226.75,2063.16,229.15Z"/><path class="cls-48" d="M2123.7,182.37c-3.31,1.83-7.28,1-8.87-1.92s-.19-6.7,3.12-8.52,7.29-1,8.87,1.92S2127,180.55,2123.7,182.37Z"/><path class="cls-48" d="M1938.07,362.06c-4.27,2.36-9.17,1.66-10.93-1.54s.27-7.71,4.55-10.06,9.16-1.66,10.93,1.55S1942.34,359.71,1938.07,362.06Z"/><ellipse class="cls-48" cx="2012.08" cy="288.65" rx="8.83" ry="6.62" transform="translate(276.87 1347.34) rotate(-39.55)"/><path class="cls-48" d="M1965.84,412.55c-4.28,2.35-9.17,1.66-10.93-1.54s.27-7.71,4.54-10.06,9.17-1.66,10.93,1.54S1970.11,410.2,1965.84,412.55Z"/><path class="cls-48" d="M2091.13,322c-3.12,3.75-7.93,4.89-10.74,2.55s-2.57-7.27.55-11,7.93-4.9,10.74-2.56S2094.25,318.23,2091.13,322Z"/><ellipse class="cls-48" cx="2115.85" cy="272.1" rx="8.83" ry="6.62" transform="translate(617.32 1790.41) rotate(-52.7)"/><path class="cls-48" d="M1991.13,347c-5.61,3.09-11.82,2.56-13.88-1.18s.83-9.27,6.43-12.36,11.83-2.55,13.88,1.19S1996.74,343.91,1991.13,347Z"/><path class="cls-48" d="M2016.13,270.29c-4.93,4.07-11.14,4.71-13.86,1.42s-.92-9.26,4-13.34,11.14-4.71,13.86-1.42S2021.07,266.21,2016.13,270.29Z"/><ellipse class="cls-48" cx="2035.65" cy="403.89" rx="11.59" ry="7.73" transform="translate(57.33 1030.98) rotate(-28.81)"/><ellipse class="cls-48" cx="2110.64" cy="317.8" rx="11.59" ry="7.73" transform="translate(517.21 1737.93) rotate(-50.27)"/><path class="cls-48" d="M2167.07,249.47c-3.88,5.1-9.77,7.13-13.17,4.54s-3-8.81.88-13.9,9.77-7.12,13.17-4.54S2171,244.38,2167.07,249.47Z"/><path class="cls-48" d="M1821.89,409.73c-6.31,1-12-1.55-12.68-5.76s3.89-8.46,10.2-9.49,12,1.55,12.68,5.76S1828.21,408.7,1821.89,409.73Z"/><path class="cls-48" d="M1708.07,469.62c-4.82-.38-8.53-3.3-8.27-6.51s4.36-5.51,9.18-5.13,8.53,3.29,8.27,6.51S1712.89,470,1708.07,469.62Z"/><path class="cls-48" d="M1878.66,449.53c-6.32,1-12-1.56-12.68-5.77s3.88-8.46,10.2-9.48,12,1.55,12.68,5.76S1885,448.5,1878.66,449.53Z"/><path class="cls-48" d="M1913.93,326c-3.74,2.06-8.2,1.12-10-2.08s-.16-7.47,3.58-9.53,8.2-1.12,10,2.08S1917.67,323.9,1913.93,326Z"/><path class="cls-48" d="M2099.06,179.28c-2.73,3.28-7.22,4-10,1.7s-2.88-6.89-.16-10.17,7.22-4.05,10-1.71S2101.79,176,2099.06,179.28Z"/><path class="cls-48" d="M1973.19,433.71c-3.74,2.05-8.2,1.12-10-2.08s-.16-7.47,3.58-9.53,8.19-1.13,10,2.08S1976.93,431.65,1973.19,433.71Z"/><path class="cls-48" d="M2090.38,351.49c-3.29,2.71-7.85,2.63-10.18-.19s-1.55-7.31,1.74-10,7.85-2.63,10.18.19S2093.67,348.77,2090.38,351.49Z"/><path class="cls-48" d="M1904.42,388.38c-4,2.18-8.47,1.56-10.08-1.38s.28-7.08,4.23-9.26,8.47-1.55,10.08,1.39S1908.37,386.21,1904.42,388.38Z"/><path class="cls-48" d="M1922,468.81c-4,2.18-8.47,1.56-10.08-1.38s.28-7.08,4.23-9.26,8.47-1.55,10.08,1.39S1925.9,466.64,1922,468.81Z"/><path class="cls-48" d="M1785.21,372.64c-4.46.73-8.48-1.25-9-4.42s2.68-6.32,7.13-7.05,8.48,1.26,9,4.43S1789.66,371.92,1785.21,372.64Z"/><path class="cls-48" d="M1691.87,410.09c-4.45.72-8.48-1.26-9-4.43s2.67-6.32,7.13-7,8.48,1.25,9,4.42S1696.32,409.36,1691.87,410.09Z"/><path class="cls-48" d="M1845.33,370.49a6.29,6.29,0,1,1,2.48-8.54A6.29,6.29,0,0,1,1845.33,370.49Z"/><path class="cls-48" d="M1881,358.75a4.45,4.45,0,1,1,1.75-6A4.45,4.45,0,0,1,1881,358.75Z"/><path class="cls-48" d="M1985.14,417.09a4.45,4.45,0,1,1,1.76-6A4.44,4.44,0,0,1,1985.14,417.09Z"/><path class="cls-48" d="M2066.11,354.92a4.44,4.44,0,1,1,1.76-6A4.44,4.44,0,0,1,2066.11,354.92Z"/><path class="cls-48" d="M2068.14,262.89a4.45,4.45,0,1,1,1.75-6A4.44,4.44,0,0,1,2068.14,262.89Z"/><path class="cls-48" d="M1992.49,403a4.45,4.45,0,1,1,1.76-6A4.45,4.45,0,0,1,1992.49,403Z"/><path class="cls-48" d="M2107.75,209.33a4.45,4.45,0,1,1,1.75-6.05A4.46,4.46,0,0,1,2107.75,209.33Z"/><path class="cls-48" d="M1719.43,381.7a4.45,4.45,0,1,1,1.75-6A4.45,4.45,0,0,1,1719.43,381.7Z"/><path class="cls-48" d="M1716.46,409.28a4.45,4.45,0,1,1,1.75-6A4.44,4.44,0,0,1,1716.46,409.28Z"/><path class="cls-48" d="M1745.24,413.51a6.49,6.49,0,1,1,2.56-8.82A6.5,6.5,0,0,1,1745.24,413.51Z"/><circle class="cls-48" cx="1759.42" cy="452.76" r="6.49" transform="translate(-57.21 432.75) rotate(-13.8)"/><path class="cls-48" d="M1784.05,490a6.49,6.49,0,1,1,2.56-8.81A6.48,6.48,0,0,1,1784.05,490Z"/><path class="cls-48" d="M1814.71,458.3a6.49,6.49,0,1,1,2.56-8.82A6.5,6.5,0,0,1,1814.71,458.3Z"/><path class="cls-48" d="M1658.93,389.42a6.49,6.49,0,1,1,2.56-8.81A6.49,6.49,0,0,1,1658.93,389.42Z"/><path class="cls-48" d="M1776.92,398.83a4.45,4.45,0,1,1,1.76-6A4.45,4.45,0,0,1,1776.92,398.83Z"/><path class="cls-48" d="M1845.71,478.62a4.45,4.45,0,1,1,1.76-6A4.45,4.45,0,0,1,1845.71,478.62Z"/><path class="cls-48" d="M1745.79,537.51c-2.88-10.47-8.82-19.17-14.31-25.47-15.8,12.36-16.43,30.14-12.18,43.16,2.5,7.64,11.77,14.83,25.84,20.91C1747.4,564.6,1749.08,549.45,1745.79,537.51Z"/><path class="cls-48" d="M2211.63,76.7a36.49,36.49,0,0,1-2.29-7.55c-4.1-22.3,2.48-59.95-9.27-66.26S2159.4,0,2154.61,19.48s4.36,22.13,5.57,47.43a69,69,0,0,1-1.48,15.31C2171,84.61,2195.17,87.33,2211.63,76.7Z"/><path class="cls-43" d="M2212,372.26c36.38-67.69,50.39-149.12,38-210.38-10.87-53.93-31-67.5-38.4-85.18-16.46,10.63-40.59,7.91-52.93,5.52-5.73,30.57-26.44,81.07-38.91,108.84-14.89,33.18-64.27,131.52-168.58,211.06s-174.3,90.51-204.64,101.71a55.31,55.31,0,0,0-15.09,8.21c5.49,6.3,11.43,15,14.31,25.47,3.29,11.94,1.61,27.09-.65,38.6,49.35,21.31,158.13,28.81,244-7.16C2115,516.24,2175.63,440,2212,372.26Z"/><path class="cls-66" d="M1759.27,557s225.81,3.38,349.65-164.54,90-294.19,90-294.19"/><path class="cls-48" d="M2052.68,361.36c-2.66,2.69-6.71,3-9,.67s-2.08-6.37.58-9,6.72-3,9.05-.67S2055.34,358.68,2052.68,361.36Z"/><path class="cls-48" d="M2128.82,251.7c-2.11,3.14-6,4.19-8.77,2.35s-3.23-5.87-1.12-9,6-4.18,8.77-2.34S2130.93,248.57,2128.82,251.7Z"/><path class="cls-48" d="M2173.61,189.68c-2.66,2.69-6.71,3-9.05.67s-2.08-6.37.58-9.06,6.71-3,9.05-.67S2176.27,187,2173.61,189.68Z"/><path class="cls-48" d="M2046.54,414.63c-3.43,3.46-8.32,4.18-10.92,1.61s-1.92-7.47,1.51-10.93,8.32-4.19,10.92-1.62S2050,411.16,2046.54,414.63Z"/><ellipse class="cls-48" cx="2096.7" cy="323.24" rx="8.83" ry="6.62" transform="translate(656.88 1881.3) rotate(-56.02)"/><path class="cls-48" d="M2087.49,455.17c-3.44,3.47-8.32,4.19-10.92,1.61s-1.93-7.46,1.5-10.93,8.32-4.19,10.92-1.61S2090.92,451.7,2087.49,455.17Z"/><ellipse class="cls-48" cx="2175.87" cy="330.18" rx="8.83" ry="6.62" transform="translate(1013.31 2198.84) rotate(-66.74)"/><ellipse class="cls-48" cx="2191.52" cy="277.95" rx="8.83" ry="6.62" transform="translate(1152.58 2227.47) rotate(-69.17)"/><path class="cls-48" d="M2093.15,385.13c-4.5,4.55-10.61,5.8-13.64,2.8s-1.84-9.13,2.66-13.68,10.62-5.8,13.65-2.79S2097.66,380.58,2093.15,385.13Z"/><path class="cls-48" d="M2095.38,304.48c-3.58,5.31-9.35,7.68-12.89,5.29s-3.5-8.62.07-13.92,9.35-7.68,12.89-5.3S2099,299.17,2095.38,304.48Z"/><path class="cls-48" d="M2157.47,432.5c-4.51,4.55-10.62,5.81-13.65,2.8s-1.84-9.12,2.67-13.67,10.61-5.8,13.64-2.8S2162,428,2157.47,432.5Z"/><ellipse class="cls-48" cx="2199.48" cy="323.25" rx="11.59" ry="7.73" transform="translate(1033.97 2216.34) rotate(-66.74)"/><path class="cls-48" d="M2234.23,241.73c-2.28,6-7.36,9.6-11.35,8.09s-5.37-7.6-3.1-13.58,7.36-9.61,11.34-8.09S2236.5,235.75,2234.23,241.73Z"/><path class="cls-48" d="M1948.65,493.28c-5.77,2.77-11.94,1.91-13.79-1.94s1.32-9.21,7.09-12,11.94-1.91,13.79,1.94S1954.42,490.5,1948.65,493.28Z"/><path class="cls-48" d="M1856.47,583c-4.73,1-9.11-.75-9.77-3.9s2.62-6.52,7.35-7.52,9.11.74,9.78,3.89S1861.2,582,1856.47,583Z"/><path class="cls-48" d="M2014.37,515.35c-5.77,2.77-11.94,1.91-13.8-1.94s1.33-9.21,7.1-12,11.94-1.91,13.79,1.94S2020.14,512.57,2014.37,515.35Z"/><path class="cls-48" d="M2013.16,386.85c-3,3-7.55,3.4-10.15.83s-2.27-7.12.74-10.15,7.54-3.41,10.14-.83S2016.16,383.81,2013.16,386.85Z"/><path class="cls-48" d="M2149.1,193.69c-1.68,3.92-5.77,5.93-9.13,4.49s-4.72-5.8-3-9.72,5.78-5.92,9.14-4.48S2150.79,189.77,2149.1,193.69Z"/><path class="cls-48" d="M2100.53,473.37c-3,3-7.54,3.4-10.14.83s-2.27-7.12.73-10.15,7.54-3.4,10.14-.83S2103.53,470.34,2100.53,473.37Z"/><path class="cls-48" d="M2189.6,361.3c-2.39,3.54-6.78,4.75-9.81,2.71s-3.56-6.57-1.17-10.11,6.77-4.75,9.81-2.71S2192,357.76,2189.6,361.3Z"/><path class="cls-48" d="M2021.74,449.4c-3.18,3.21-7.68,3.9-10.06,1.54s-1.74-6.87,1.43-10.08,7.68-3.89,10.06-1.53S2024.91,446.2,2021.74,449.4Z"/><ellipse class="cls-48" cx="2057.04" cy="517.29" rx="8.17" ry="6.07" transform="translate(242.06 1614.96) rotate(-45.28)"/><ellipse class="cls-48" cx="1900.43" cy="462.88" rx="8.17" ry="5.81" transform="translate(-12.7 870.11) rotate(-25.71)"/><ellipse class="cls-48" cx="1821.54" cy="525.25" rx="8.17" ry="5.81" transform="translate(-47.55 842.07) rotate(-25.71)"/><path class="cls-48" d="M1960,449a6.29,6.29,0,1,1,0-8.89A6.29,6.29,0,0,1,1960,449Z"/><path class="cls-48" d="M1990.82,427.65a4.45,4.45,0,1,1,0-6.3A4.45,4.45,0,0,1,1990.82,427.65Z"/><path class="cls-48" d="M2107.29,454.05a4.45,4.45,0,1,1,0-6.29A4.46,4.46,0,0,1,2107.29,454.05Z"/><path class="cls-48" d="M2167.31,371.48a4.45,4.45,0,1,1,0-6.3A4.45,4.45,0,0,1,2167.31,371.48Z"/><path class="cls-48" d="M2143.16,282.65a4.45,4.45,0,1,1,0-6.29A4.46,4.46,0,0,1,2143.16,282.65Z"/><path class="cls-48" d="M2110.33,438.42a4.45,4.45,0,1,1,0-6.29A4.44,4.44,0,0,1,2110.33,438.42Z"/><path class="cls-48" d="M2166,220.05a4.45,4.45,0,1,1,0-6.29A4.44,4.44,0,0,1,2166,220.05Z"/><path class="cls-48" d="M1842.44,495.44a4.45,4.45,0,1,1,0-6.29A4.44,4.44,0,0,1,1842.44,495.44Z"/><path class="cls-48" d="M1847.41,522.74a4.45,4.45,0,1,1,0-6.29A4.45,4.45,0,0,1,1847.41,522.74Z"/><path class="cls-48" d="M1876.21,518.63a6.49,6.49,0,1,1,0-9.18A6.49,6.49,0,0,1,1876.21,518.63Z"/><path class="cls-48" d="M1905.55,556.82a6.49,6.49,0,1,1,0-9.18A6.49,6.49,0,0,1,1905.55,556.82Z"/><path class="cls-48" d="M1935.11,581a6.49,6.49,0,1,1,0-9.18A6.49,6.49,0,0,1,1935.11,581Z"/><path class="cls-48" d="M1955.53,541.89a6.49,6.49,0,1,1,0-9.18A6.5,6.5,0,0,1,1955.53,541.89Z"/><path class="cls-48" d="M1786.61,520a6.49,6.49,0,1,1,0-9.18A6.5,6.5,0,0,1,1786.61,520Z"/><path class="cls-48" d="M1902.43,495.57a4.45,4.45,0,1,1,0-6.29A4.44,4.44,0,0,1,1902.43,495.57Z"/><path class="cls-48" d="M1991,552.58a4.45,4.45,0,1,1,0-6.29A4.44,4.44,0,0,1,1991,552.58Z"/></g></g></svg>